<?xml version="1.0" encoding="utf-8"?>
<!-- Generator: Adobe Illustrator 26.3.1, SVG Export Plug-In . SVG Version: 6.00 Build 0)  -->
<svg version="1.1" id="Layer_1" xmlns="http://www.w3.org/2000/svg" xmlns:xlink="http://www.w3.org/1999/xlink" x="0px" y="0px"
	 viewBox="0 0 36 36" style="enable-background:new 0 0 36 36;" xml:space="preserve">
<style type="text/css">
	.st0{fill:#C82727;}
	.st1{fill:#FFB04A;}
	.st2{fill:#FFCE8F;}
	.st3{fill:#5F5925;}
</style>
<path class="st0" d="M31,14.4c3.5-0.6,3.6-6.3-0.1-6.3c-2.8,0-2.6,2.8-2.9,2.3c-0.7-1.1-1-3.8,1.9-4.9c2.5-1,5.8,1,6.1,4.6
	c0.1,2.3-1.3,6.6-6.5,5.8C22.3,14.9,27.5,15,31,14.4z"/>
<path class="st1" d="M10.3,21.9c0,0,1,2.4,0.7,8.2c-0.1,1.1-0.2,2.1-0.2,3c-1.8,0-1.7,2.1-1.3,2.1h2.9c0.7,0,1.9-3.4,2.2-8.2
	C14.9,22.3,10.3,21.9,10.3,21.9z M22.2,21.6c0,0,0.6,3.5,3.7,6.4c0.3,1.2,0.8,4.2,0.9,5.2c-1.9,0-1.3,2-0.7,2h2.6
	c1,0,1.1-3.4,0.2-7.7C28,23.3,22.2,21.6,22.2,21.6z"/>
<path class="st1" d="M32.2,15.7c-1.3-3.8-7.2-3.6-14-2.8c-3.1,0.4-3.6-4.5-3.6-5.3c0-3.6-3.2-5.5-6.5-4.2C7.3,3.7,6.7,4.7,6.3,5.2
	c-2,3-4.7,0-4.9,2.8c-0.3,3.4,1.7,4.5,5.1,4.8c1.9,0.2,3.5,1.1,3.9,5c0.2,1.5-0.3,5.6,2.4,7.1c0.8,3,1.8,6.6,2.2,8.5
	c-2.3,0.5-1.3,2.2-1.3,2.2s3.2,0,3.8,0c0.8,0,0.2-6-0.9-9.8c4.8,0,7.8-1.3,8.8-1.8c1,3,4.2,3.6,4.9,4.9c0.4,0.8,1.9,3.4,2,4.5
	c-1.6,0.5-1.1,1.7-0.9,2.1c1.1,0,3.2,0,3.5,0c1.1,0-1.1-6.9-2.1-8.7C31.6,24.8,33.5,19.4,32.2,15.7z"/>
<path class="st2" d="M16.3,24.5c0,0.4,0.1,0.9,0.3,1.4c4.8,0,7.8-1.3,8.8-1.8c-0.2-0.8-0.2-1.3-0.2-1.5
	C21.8,23.1,20.6,24.7,16.3,24.5z M6.4,12.9c1.9,0.2,2.4,1.1,2.8,5c0.2,1.5,0.7,5.7,3.4,7.1C12,22.2,10.7,12.6,6.4,12.9z"/>
<path class="st2" d="M3.2,6.7c-2.8,0-1.9,0.5-2,1.7s-0.1,3,0.8,3.9c1.1,1.3,3.9,1.3,5.2,0.3S6.7,6.7,3.2,6.7z"/>
<path class="st0" d="M2.5,8.3C2.4,9.1,2,9.5,1.6,9.5C0.9,9.3,0.2,8.4,0.2,7.6s0.6-1,1.4-0.9C2.7,6.7,2.6,7.5,2.5,8.3z"/>
<path class="st0" d="M15.2,9c0.3,2.5-1.2,2.9-2.4,2.9S9.7,10.7,10,8.2C10.2,7,10.6,6,10.8,5c0.3-1.3,1.2-1.7,1.9-1.4
	C14.4,4.5,14.9,7.4,15.2,9z"/>
<circle class="st3" cx="8.1" cy="6.7" r="0.9"/>
<path class="st0" d="M19,12.8c0.1,1.5,0.9,3.2,2.7,3.7c1.9,0.5,4.1,0.1,4.7-2.5c0.1-0.4,0.1-1.2,0.1-1.5
	C24.4,12.3,21.8,12.5,19,12.8z"/>
</svg>
