<?xml version="1.0" encoding="utf-8"?>
<!-- Generator: Adobe Illustrator 26.3.1, SVG Export Plug-In . SVG Version: 6.00 Build 0)  -->
<svg version="1.1" id="Layer_1" xmlns="http://www.w3.org/2000/svg" xmlns:xlink="http://www.w3.org/1999/xlink" x="0px" y="0px"
	 viewBox="0 0 405.6 410.7" style="enable-background:new 0 0 405.6 410.7;" xml:space="preserve">
<style type="text/css">
	.st0{fill:#FDC44E;}
	.st1{fill:#FCB216;}
	.st2{fill:#2B3B47;}
	.st3{fill:#E5A1C7;}
	.st4{fill:#FFEECC;}
</style>
<g id="Layer_2_1_">
	<path class="st0" d="M170.2,395.5c4.4,4.9-12.2,9.7-19.6,9.7h-14.9c-7.4,0-11.8-6.9-7.5-11.8c0,0,3.5-8.3,11.7-8.3
		c3.4,0,11.8,1.5,14.5-5.3c-3.2-45.4-3.9-60.2-43.9-105.2l51.3-25.1C188.1,282.5,173.4,377,170.2,395.5L170.2,395.5z M405,388
		c1.3-18.3-10.6-42-19.6-54.9c-31.5-45.3-13.9-72.1-36.9-119L275.8,235c-15.6,45.7,50.9,90.3,72.6,99.8c32.3,14.1,41,45,41,45
		s0,0,0,0c-2.3-0.5-4.5-0.7-6.2-0.7c-6.2,0-8.9,7.8-8.9,7.8c-3.3,4.6,0.1,11.1,5.7,11.1h18.7C403.9,398,407.1,392.5,405,388z
		 M76.6,119.2C80,90.7,50.9,73.7,46.7,76c-4.2,2.3-13.3,17.6-10.2,36.8C36.5,112.8,73.2,147.8,76.6,119.2z"/>
</g>
<g id="Layer_3_1_">
	<path class="st1" d="M361.5,206.7c-1.7-11.5-5.5-20.2-10.8-26.7c0.6-1.3,1.2-2.6,1.7-3.9c2-5.1,3.8-11.1,4.9-17.7
		c1-6.6,1.4-14,0.5-21.7c-0.9-7.7-2.9-15.8-6.5-23.5c-3.6-7.7-8.7-15.1-14.9-21.4c-3.1-3.1-6.5-6-10.1-8.7c-1.8-1.3-3.6-2.6-5.5-3.7
		l-2.8-1.7l-2.8-1.6l-2.7-1.5c-0.9-0.5-1.7-1-2.5-1.5c-0.8-0.5-1.6-1-2.5-1.5c-0.8-0.5-1.6-1-2.4-1.6c-3.2-2.1-6.4-4.4-9.3-6.7
		c-5.9-4.7-11.1-10-15-15.5c-3.9-5.5-6.5-11.5-7.1-16.8c-0.3-2.7,0-5.1,0.6-7.2c0.7-2.1,1.7-3.7,3.1-5c2.7-2.5,6.5-3.4,10.2-3.2
		c3.7,0.1,7.1,1.3,9.9,2.5c2.8,1.2,4.9,2.5,6.3,3.4c0.7,0.4,1.2,0.8,1.6,1.1c0.4,0.2,0.5,0.4,0.5,0.4l0,0c3.3,2.3,7.8,1.4,10.1-1.9
		c2.2-3.2,1.4-7.6-1.7-9.9c0,0-0.2-0.2-0.7-0.5c-0.5-0.3-1.1-0.8-2-1.4c-1.8-1.2-4.4-3-8.2-4.8c-3.8-1.8-8.7-3.7-15.2-4.2
		c-3.2-0.2-6.8-0.1-10.7,0.9c-3.8,1-7.8,2.9-11.3,6c-3.4,3-6.2,7.2-7.8,11.7c-1.6,4.5-2.1,9.4-1.7,14c0.3,4.6,1.5,9.1,3.1,13.4
		c1.6,4.2,3.8,8.2,6.2,12c4.9,7.5,11.1,14.1,17.8,19.9c3.4,2.9,6.9,5.6,10.5,8.2c0.9,0.7,1.8,1.3,2.7,1.9c0.9,0.6,1.8,1.2,2.8,1.9
		l2.8,1.8l2.6,1.6l2.4,1.5l2.2,1.5c1.4,1,2.9,2,4.2,3.1c2.7,2.1,5.2,4.4,7.4,6.9c4.5,4.9,7.9,10.3,10.3,15.9c2.4,5.6,3.6,11.4,4,17
		c0.4,5.6,0,11-1,15.8c-0.8,4.2-2.1,8.1-3.4,11.3c-11.5-4.7-24.8-5.9-37.4-5.9c-28.7-0.1-157,22.8-187.7-31.7c0,0,0-0.1-0.1-0.1
		c-1.1-2.4-2.4-4.6-3.9-6.8c6.8-20.6-5.5-43.4-9.5-43.7c-4.5-0.2-18.6,6.8-26.6,22.3c-1.8-0.2-3.7-0.3-5.5-0.3
		c-27.7,0-49.6,22.3-49.6,46.1c0,0-1.7,13.9-5.9,19.7c-2.1,2.9-3.2,6.5-3,10.3c-2.8,11.8,10.7,23.7,32.9,18.5
		c1.7-0.2,3.7-0.6,6.2-1.4c29.3-9.7,29.6,25.6,40.2,56.3l-0.1,0c0.2,0.4,0.4,0.8,0.5,1.1c2.6,7.4,5.9,14.4,10.3,20.5
		c7,16.2,9.7,38.2-2.3,106.1c0,0,0,0,0,0c-1.9,11.2-11.1,13.3-14.2,13.3c-8.2,0-11.7,8.3-11.7,8.3c-4.4,4.9,0.1,11.8,7.5,11.8h12.4
		c6.4,0,20.1-4.1,20.6-9.3c7.2-11.6,37.9-63.4,45-112.3c49-4,66.8-5.8,90.6-12.7c14.7-4.2,18.8-5.3,27,9.7
		c5,9.2,13.1,19.1,20.2,26.8c8.5,9.4,11.1,22.7,6.8,34.6c-3.9,10.7-9.7,24.7-17.8,39.8c-0.2,0.3-0.3,0.7-0.5,1c-5.4-1.5-12-2-15.8-2
		c-7.2,0-10.3,8.3-10.3,8.3c-3.9,4.9,0.1,11.8,6.6,11.8h13.9c2.5,0,5.3-1.2,7.7-2.8c0.1,0.1,0.1,0.2,0.1,0.2s53.8-38.7,57.3-84.3
		C338.1,286.4,368,250.9,361.5,206.7z"/>
</g>
<g id="Layer_4_1_">
	<path class="st2" d="M37,141.1c3.3,0,5.9,1.7,5.9,3.8v5.5c0,2.1-2.6,3.8-5.9,3.8l0,0c-3.3,0-5.9-1.7-5.9-3.8V145
		C31.1,142.9,33.7,141.1,37,141.1L37,141.1z"/>
</g>
<g id="Layer_5_1_">
	<path class="st3" d="M3,171.1L3,171.1c1.6,2.2,0.9,4.2,4,3.3c14.8-4.2,4.9,8.6,0.6,8.6C0.6,183-2.9,171.1,3,171.1z M91.9,126.3
		c12.8-15.8,1.8-37-1.6-37.2s-13.2,5.4-18.6,18.1C71.7,107.2,79.1,142.1,91.9,126.3z"/>
</g>
<g id="Layer_6_1_">
	<path class="st4" d="M25.1,178.2c-0.4,0-0.8-0.3-0.9-0.8c-0.1-0.5,0.3-1,0.8-1c34.9-5.3,46.4-1.7,46.8-1.5c0.5,0.2,0.7,0.7,0.6,1.1
		c-0.2,0.5-0.7,0.7-1.1,0.6c-0.1,0-11.7-3.6-46,1.6C25.2,178.2,25.1,178.2,25.1,178.2z M70.1,184.9c0.1-0.5-0.3-1-0.8-1
		c-0.2,0-17.7-2.4-38.8-3.6c-0.5,0-0.9,0.4-1,0.9c0,0.5,0.4,0.9,0.9,1c21,1.2,38.5,3.5,38.6,3.5c0,0,0.1,0,0.1,0
		C69.6,185.7,70,185.4,70.1,184.9z M64.6,198c0.3-0.4,0.2-1-0.2-1.3c-0.2-0.1-17.2-11.5-42.5-13c-0.5,0-0.9,0.4-1,0.9
		c0,0.5,0.4,0.9,0.9,1c24.8,1.4,41.4,12.5,41.5,12.7c0.2,0.1,0.3,0.2,0.5,0.2C64.2,198.4,64.4,198.3,64.6,198z"/>
</g>
</svg>
