<?xml version="1.0" encoding="UTF-8"?><svg id="Layer_1" xmlns="http://www.w3.org/2000/svg" viewBox="0 0 405.65 410.78"><defs><style>.cls-1{fill:#fec;}.cls-2{fill:#a4ddef;}.cls-3{fill:#bfe7f4;}.cls-4{fill:#bde0bc;}.cls-5{fill:#231f20;}</style></defs><g id="Layer_2"><path class="cls-3" d="M170.19,395.28c4.4,4.9-12.2,9.7-19.6,9.7h-14.9c-7.4,0-11.8-6.9-7.5-11.8,0,0,3.5-8.3,11.7-8.3,3.4,0,11.8,1.5,14.5-5.3-3.2-45.4-3.9-60.2-43.9-105.2l51.3-25.1c26.3,33,11.6,127.5,8.4,146h0Zm234.8-7.5c1.3-18.3-10.6-42-19.6-54.9-31.5-45.3-13.9-72.1-36.9-119l-72.7,20.9c-15.6,45.7,50.9,90.3,72.6,99.8,32.3,14.1,41,45,41,45h0c-2.3-.5-4.5-.7-6.2-.7-6.2,0-8.9,7.8-8.9,7.8-3.3,4.6,.1,11.1,5.7,11.1h18.7c5.2,0,8.4-5.5,6.3-10ZM76.59,118.98c3.4-28.5-25.7-45.5-29.9-43.2s-13.3,17.6-10.2,36.8c0,0,36.7,35,40.1,6.4Z"/></g><g id="Layer_3"><path class="cls-2" d="M361.49,206.48c-1.7-11.5-5.5-20.2-10.8-26.7,.6-1.3,1.2-2.6,1.7-3.9,2-5.1,3.8-11.1,4.9-17.7,1-6.6,1.4-14,.5-21.7s-2.9-15.8-6.5-23.5-8.7-15.1-14.9-21.4c-3.1-3.1-6.5-6-10.1-8.7-1.8-1.3-3.6-2.6-5.5-3.7l-2.8-1.7-2.8-1.6-2.7-1.5c-.9-.5-1.7-1-2.5-1.5s-1.6-1-2.5-1.5c-.8-.5-1.6-1-2.4-1.6-3.2-2.1-6.4-4.4-9.3-6.7-5.9-4.7-11.1-10-15-15.5s-6.5-11.5-7.1-16.8c-.3-2.7,0-5.1,.6-7.2,.7-2.1,1.7-3.7,3.1-5,2.7-2.5,6.5-3.4,10.2-3.2,3.7,.1,7.1,1.3,9.9,2.5,2.8,1.2,4.9,2.5,6.3,3.4,.7,.4,1.2,.8,1.6,1.1,.4,.2,.5,.4,.5,.4h0c3.3,2.3,7.8,1.4,10.1-1.9,2.2-3.2,1.4-7.6-1.7-9.9,0,0-.2-.2-.7-.5s-1.1-.8-2-1.4c-1.8-1.2-4.4-3-8.2-4.8-3.8-1.8-8.7-3.7-15.2-4.2-3.2-.2-6.8-.1-10.7,.9-3.8,1-7.8,2.9-11.3,6-3.4,3-6.2,7.2-7.8,11.7-1.6,4.5-2.1,9.4-1.7,14,.3,4.6,1.5,9.1,3.1,13.4,1.6,4.2,3.8,8.2,6.2,12,4.9,7.5,11.1,14.1,17.8,19.9,3.4,2.9,6.9,5.6,10.5,8.2,.9,.7,1.8,1.3,2.7,1.9,.9,.6,1.8,1.2,2.8,1.9l2.8,1.8,2.6,1.6,2.4,1.5,2.2,1.5c1.4,1,2.9,2,4.2,3.1,2.7,2.1,5.2,4.4,7.4,6.9,4.5,4.9,7.9,10.3,10.3,15.9,2.4,5.6,3.6,11.4,4,17s0,11-1,15.8c-.8,4.2-2.1,8.1-3.4,11.3-11.5-4.7-24.8-5.9-37.4-5.9-28.7-.1-157,22.8-187.7-31.7,0,0,0-.1-.1-.1-1.1-2.4-2.4-4.6-3.9-6.8,6.8-20.6-5.5-43.4-9.5-43.7-4.5-.2-18.6,6.8-26.6,22.3-1.8-.2-3.7-.3-5.5-.3-27.7,0-49.6,22.3-49.6,46.1,0,0-1.7,13.9-5.9,19.7-2.1,2.9-3.2,6.5-3,10.3-2.8,11.8,10.7,23.7,32.9,18.5,1.7-.2,3.7-.6,6.2-1.4,29.3-9.7,29.6,25.6,40.2,56.3h-.1c.2,.4,.4,.8,.5,1.1,2.6,7.4,5.9,14.4,10.3,20.5,7,16.2,9.7,38.2-2.3,106.1h0c-1.9,11.2-11.1,13.3-14.2,13.3-8.2,0-11.7,8.3-11.7,8.3-4.4,4.9,.1,11.8,7.5,11.8h12.4c6.4,0,20.1-4.1,20.6-9.3,7.2-11.6,37.9-63.4,45-112.3,49-4,66.8-5.8,90.6-12.7,14.7-4.2,18.8-5.3,27,9.7,5,9.2,13.1,19.1,20.2,26.8,8.5,9.4,11.1,22.7,6.8,34.6-3.9,10.7-9.7,24.7-17.8,39.8-.2,.3-.3,.7-.5,1-5.4-1.5-12-2-15.8-2-7.2,0-10.3,8.3-10.3,8.3-3.9,4.9,.1,11.8,6.6,11.8h13.9c2.5,0,5.3-1.2,7.7-2.8,.1,.1,.1,.2,.1,.2,0,0,53.8-38.7,57.3-84.3,2.9-33.4,32.8-68.9,26.3-113.1Z"/></g><g id="Layer_4"><path class="cls-5" d="M36.99,140.88c3.3,0,5.9,1.7,5.9,3.8v5.5c0,2.1-2.6,3.8-5.9,3.8h0c-3.3,0-5.9-1.7-5.9-3.8v-5.4c0-2.1,2.6-3.9,5.9-3.9h0Z"/></g><g id="Layer_5"><path class="cls-4" d="M2.99,170.88h0c1.6,2.2,.9,4.2,4,3.3,14.8-4.2,4.9,8.6,.6,8.6-7,0-10.5-11.9-4.6-11.9Zm88.9-44.8c12.8-15.8,1.8-37-1.6-37.2s-13.2,5.4-18.6,18.1c0,0,7.4,34.9,20.2,19.1Z"/></g><g id="Layer_6"><path class="cls-1" d="M25.09,177.98c-.4,0-.8-.3-.9-.8s.3-1,.8-1c34.9-5.3,46.4-1.7,46.8-1.5,.5,.2,.7,.7,.6,1.1-.2,.5-.7,.7-1.1,.6-.1,0-11.7-3.6-46,1.6h-.2Zm45,6.7c.1-.5-.3-1-.8-1-.2,0-17.7-2.4-38.8-3.6-.5,0-.9,.4-1,.9,0,.5,.4,.9,.9,1,21,1.2,38.5,3.5,38.6,3.5h.1c.5,0,.9-.3,1-.8Zm-5.5,13.1c.3-.4,.2-1-.2-1.3-.2-.1-17.2-11.5-42.5-13-.5,0-.9,.4-1,.9,0,.5,.4,.9,.9,1,24.8,1.4,41.4,12.5,41.5,12.7,.2,.1,.3,.2,.5,.2,.4-.1,.6-.2,.8-.5Z"/></g></svg>