<?xml version="1.0" encoding="utf-8"?>
<!-- Generator: Adobe Illustrator 26.3.1, SVG Export Plug-In . SVG Version: 6.00 Build 0)  -->
<svg version="1.1" id="Layer_3" xmlns="http://www.w3.org/2000/svg" xmlns:xlink="http://www.w3.org/1999/xlink" x="0px" y="0px"
	 viewBox="0 0 102.2 119.4" style="enable-background:new 0 0 102.2 119.4;" xml:space="preserve">
<style type="text/css">
	.st0{fill:#1F91FF;}
	.st1{fill:#FF4AF2;}
	.st2{fill:#FFFDFD;}
	.st3{fill:#1FE2FF;}
	.st4{fill:#2E2C33;}
	.st5{fill:#9E00FF;}
</style>
<path class="st0" d="M46.5,9.5l-19,10.7L16.5,30.9l-9,1.7c0,0,3.5,3.9,13.8,0.6C31.4,30,37.1,16.4,48.1,17.6
	c10.6,1.2,8.6,11.5,8.6,11.5l14.5-16.5L46.5,9.5z"/>
<path class="st0" d="M43.3,38.2c0,0-3.4,1-5.3,6.2c-1.5,4.1-0.5,8-0.1,9.6c0.4,1.5,1.5,3.7,1.6,4.5s-2.4,2.5-2.3,4
	c0.1,0.9,1.8,2.3,3.9,2.5c4.1,0.5,5-0.6,5-0.6l5.5-18.9L43.3,38.2z"/>
<path class="st0" d="M45.3,71.1c0,0-7.1-4.1-14.3-3.7s-9.3,3.8-10.1,6.7C20.3,76,19,79.4,17.9,81c-1,1.6-3,2.9-4.2,3.2
	c-1.8,0.4-4.1,1.2-3.3,3.9c0.6,2.3,2.2,3.7,4.3,5.1c2,1.3,4.4,2.8,4.4,2.8l26-17.2L45.3,71.1z"/>
<path class="st0" d="M70.1,84.1l-5.9,7.8c0,0,2.3,4.7,8.1,6c5.8,1.3,8.8,1.7,9.5,3.6c1.1,2.5-0.1,5.9-0.6,6.6c-0.4,0.7-2.6,3-1,4.6
	c1.9,1.9,7.2,0.8,9,0.1s4.1-1.1,4.9-3.8c0.6-1.8,1.7-8.4,1.5-12.5c-0.2-4.8-1.1-7.9-2.5-9.3C91.7,85.9,82,84.1,82,84.1
	s1.7-3.9,3.6-8.9c0.9-2.5,1.5-5.2,2-5.3c0.7-0.3,1.9,1.7,2.2,2.5s0.1,8.5,1.2,9.6c0.9,1,3.8,1.6,6.5-0.2c2.4-1.6,4.8-4.5,4.7-7.5
	c-0.2-3.9-3.8-6.8-3.9-8.3c-0.1-1.6,0.6-5.5,0-8.5c-0.6-3-15-12-15-12L70.1,84.1z"/>
<polyline class="st1" points="44.1,97.6 10.7,106.6 6.2,107.7 6.3,112.3 14.8,117.9 34.6,112.1 47.2,105.3 43.6,97.1 "/>
<path class="st2" d="M7.5,113.5c0,0,0.3-4.2,2.1-3.8c1.5,0.3,2.2,5.2,2.2,5.2l2.5,2.1l2.5-2.4c0,0,1.3-4.9,2.8-5.1
	c1.7-0.2,2.8,4.4,2.8,4.4l-8.1,4.4L7.5,113.5z"/>
<path class="st2" d="M27.5,103c0,0,1.8,3.5,3.8,3.3c2.5-0.2,2.9-6.2,2.9-6.2L27.5,103z"/>
<path class="st3" d="M23.1,88.3c-0.3,1.9-4.3,4.3-6,5.4c-2.1,1.4-4.5,3.2-6,3.2s-3.9,0.2-6.1,0.4c-2.1,0.1-3.6,0.6-4.6,2.6
	c-0.7,1.5-0.9,5,0.8,6.7s5.4,3.2,10.4,2.5c5-0.6,6.5-1.5,8.2-2.2s9.1-3.7,12.7-4.7s10.1-2.8,11.3-1.8c1.1,1-3.4,4-6.9,5.3
	s-14,7.3-18.1,8.4c-2.9,0.8-9.2,0.4-10.7-1.1c-1.2-1.1-1.5-1.8-1.6-2.8c0-1-1.1-1.3-2.1-0.3c-1.2,1.2,0.1,4.5,2.5,6.5
	c2.4,1.9,6.5,3.1,12.5,2.7c8.2-0.6,15.7-5.8,17.4-5.9c1.8-0.1,7.5,0.8,13-1.3c5.6-2.2,8.4-6.4,8.4-6.4s4.9-2.3,8-4.5
	c3.1-2.1,5.1-3.6,5.1-3.6s-2.7-1.6-2.8-5.5c0-2.3,0.8-5.5,2.8-5.1c2,0.3-1.5,5.5,2.3,7.3s10.3,3.9,13.9,1.8c3.5-2,7.2-7.3,6-9.1
	c-1.2-1.8-4-2.4-6.8-3c-2.6-0.5-5.8-0.7-5.8-0.7s3.4-8.7,3.9-13.5c0.2-2.5,0.1-4.9-0.2-7c-0.4-2.6-1.1-5.8-1.1-8.2
	c0-2.6,0.3-6.2,1.6-5.9c1.3,0.3,0.7,3.9,1,7.4c0.3,3.9,2,9.4,6.3,9.1c4.4-0.3,6.7-3.3,6.1-9.1c-0.6-5.8-1.3-9.4-3.7-12.4
	c-2.4-3-5-3.5-5-3.5s-0.3-10.9-3.6-17.7C82.5,15.1,74.6,5,62.3,1.5S41,1.4,34.7,5.2C26,10.5,22.2,24.8,16.9,27.4s-9.7,2.5-9.8,4
	c-0.1,1.5,0.5,2,3.9,1.9s7-0.6,11.5-3.9c5.4-3.8,12.7-12.7,18.3-14.8s11.5-1.4,14.4,1.6s3.7,6.4,3,9.1c-1.1,4.5-4.4,7.4-4.4,7.4
	s-10.5,2.8-13.5,7.5s-2.2,6.7,0.1,8.6c3.7,3,8.6,1.5,8.6,1.5s-2.4,8.9-3,11.7c-0.6,2.8-2.4,11.8-2.9,13.2c-0.6,1.4-1.3,4.5-3.2,4.4
	c-1.9-0.1-5.3-3.6-11.1-1.3C23.7,80.3,23.6,85.7,23.1,88.3z"/>
<path class="st2" d="M40.1,99.6c-2.2,0.6-2.3,5.9-2.3,5.9s1.3-0.5,2.7-1.3c1.4-0.8,2-1.4,2-1.4S41.5,99.2,40.1,99.6z"/>
<path class="st4" d="M49.8,90.9c0.1,1.6-0.3,3.6-2.8,4.2c-2.3,0.6-4.5-0.9-4.6-3.3c0-2.3,1.8-4,3.8-4S49.7,88.9,49.8,90.9z"/>
<path class="st4" d="M15,103.5c-0.1,1.2-1.1,1.5-1.8,1.4c-1-0.1-1.7-1.1-1.4-2.1c0.3-0.9,1.2-1.4,2-1.1
	C14.6,102,15.1,102.5,15,103.5z"/>
<path class="st4" d="M6.9,101.2c0.4,0.9-0.4,1.9-1,2.1c-0.8,0.3-1.9,0-2.2-1c-0.3-0.9,0.3-1.8,1.1-2C5.6,100.1,6.5,100.3,6.9,101.2z
	"/>
<path class="st5" d="M47.6,73.2c-0.7,2.3,0.1,3.7,0.4,4.4c0.7,1.4,1.7,1.4,2.5,0.7c0.8-0.7-0.4-3,0-4.1c0.6-1.6,2.8-1.6,2.6-3.5
	c-0.1-1.4-2-1.7-3.3-0.6C48.8,71,48,71.7,47.6,73.2z"/>
<path class="st5" d="M52,59.4c-1,2.3-0.3,4.2-0.1,4.9c0.5,1.1,2.6,1.5,2.8-0.4c0.1-1.3-0.5-2.1,0.1-3.5c0.6-1.4,1.7-1.1,2.8-2
	c0.6-0.5,0.6-2.4-1.4-2.4C55.1,56,53.2,56.6,52,59.4z"/>
<path class="st5" d="M69.5,64.6c-0.4,2.2-0.1,3.5,0.3,4.3c0.4,0.7,2.2,1.3,2.7-0.3c0.3-0.9-0.4-1.7,0.1-3.6c0.2-1,0.9-1.4,1.6-2.1
	c1-1.1-0.3-2.8-1.9-2.1C71.2,61.2,70.1,62,69.5,64.6z"/>
<path class="st5" d="M63.2,77.9c-0.9,1.6-0.7,3.4-0.6,4.4c0.3,2.2,2.5,2.1,2.7,0.9s0-2.8,0.4-3.8s1.8-1.3,2.6-1.7
	c1.2-0.6,0.8-3.1-1.3-2.6C64.8,75.6,63.9,76.6,63.2,77.9z"/>
<path class="st5" d="M73.5,48.6c-0.5,1.8-0.4,3-0.2,3.7c0.3,1.5,2.4,1.6,2.6,0.2c0.2-1.3,0.1-2.1,0.4-2.9c0.4-1.4,0.8-1.6,1.4-2.3
	c1.1-1.2-0.2-3-1.9-2C74.8,45.9,73.9,47.3,73.5,48.6z"/>
<path class="st5" d="M56.4,43.5c-0.9,1.8-0.7,3.7-0.6,4.6c0.2,0.9,0.6,1.8,1.6,1.7c1-0.1,1.4-0.8,1.3-1.7c-0.1-0.4-0.3-1.9,0.2-2.9
	s1.4-1.6,2.2-1.9c1.8-0.7,0.8-3.3-1.3-2.6C58.3,41.3,57.2,42.1,56.4,43.5z"/>
<path class="st5" d="M63.2,29.8c-1.3,1.4-1.4,3.1-1.3,4.4c0.2,2.4,2.4,2,2.7,0.7c0.2-0.9,0.4-2.2,0.7-2.8c0.6-1.3,1.5-2,0.8-2.8
	C65.4,28.5,64.1,28.9,63.2,29.8z"/>
<path class="st5" d="M75.8,33.1c-0.1,2.1,0.2,3,0.8,3.9c0.8,1.4,2.7,1,2.8-0.6c0.1-1.2-0.5-0.9-0.4-3.2c0.1-1.5,0.9-2.9-0.2-3.4
	C77.8,29.3,76,29.6,75.8,33.1z"/>
<path class="st5" d="M72.5,16.9c0.6,1,1.4,1.9,1.7,3.3c0.4,1.9,2.9,1.5,3-0.3c0-2.4-0.7-3.4-1.6-4.5c-0.8-1-2.2-1.1-2.7-0.7
	S72,16,72.5,16.9z"/>
<path class="st5" d="M62.9,17.7c-0.6,0.5-0.9,1.6-0.2,2.4c0.8,1,1.3,1.9,1.3,2.8c-0.1,1.4,1.2,1.9,2,1.3c1.1-0.8,1.4-2.2,0.4-4.5
	C65.3,17.5,63.6,17.1,62.9,17.7z"/>
<path class="st5" d="M60.1,5.4c-0.3,1,0.7,1.3,1.8,1.5c1,0.2,2.2,1,2.6,1.7c0.5,1.1,2,1.7,2.4,0c0.3-1.4-1.6-2.9-2.7-3.6
	C63.2,4.5,60.6,3.7,60.1,5.4z"/>
<path class="st5" d="M57.8,9.7c-1.6-0.9-4.3-0.8-4.7,0.7c-0.3,1.6,1.2,1.6,1.8,1.6c0.9,0.1,1.7,0.3,2.2,1c0.5,0.6,0.9,1.3,2,1
	C60.3,13.7,60.6,11.3,57.8,9.7z"/>
<path class="st5" d="M52.4,4.5c0.5-0.6,0.3-2.3-2.8-2.4C47,2,46.4,3.2,46.8,4c0.5,1,1.8,0.3,2.9,0.4C51,4.5,51.8,5.2,52.4,4.5z"/>
<path class="st5" d="M45.9,7.6c-1.8-0.2-3.8,0.9-3.4,2.4c0.3,1.2,1.8-0.1,3-0.1c1.4,0,2.7,0.9,3.1,0.1C49.1,8.8,48.3,7.9,45.9,7.6z"
	/>
<path class="st5" d="M40.6,5.5c0,1.2-1.2,0.9-2.5,1.4c-0.8,0.3-1.6,1.8-2.4,1.2c-1.1-0.9-0.1-2.3,1.5-3.1
	C38.3,4.3,40.6,4.2,40.6,5.5z"/>
<path class="st5" d="M34.7,10.8c-2.3,1.2-3,4-1.8,4.5c1.4,0.6,1.4-1.5,2.6-2.3c1-0.6,3.2-0.3,3.2-1.7S36.1,10.1,34.7,10.8z"/>
<path class="st5" d="M30.3,18.5c0.3-0.9-1.5-2.1-3.7-0.7s-2.3,3.6-0.9,3.9c1,0.2,1.1-1.3,1.9-1.9C28.8,18.8,29.9,19.7,30.3,18.5z"/>
</svg>
