<?xml version="1.0" encoding="utf-8"?>
<!-- Generator: Adobe Illustrator 26.3.1, SVG Export Plug-In . SVG Version: 6.00 Build 0)  -->
<svg version="1.1" id="Layer_1" xmlns="http://www.w3.org/2000/svg" xmlns:xlink="http://www.w3.org/1999/xlink" x="0px" y="0px"
	 viewBox="0 0 512 512" style="enable-background:new 0 0 512 512;" xml:space="preserve">
<style type="text/css">
	.st0{fill:#FF00D7;}
	.st1{fill:#CCC9C4;}
	.st2{fill:#67F400;}
	.st3{fill:#B34F9D;}
	.st4{fill:#D59EC9;}
	.st5{fill:#2B3B47;}
	.st6{fill:#FFD469;}
</style>
<g id="Layer_3">
	<path class="st0" d="M507.5,50.3c-0.8-0.3-1.7,0.1-2,0.9l0,0.1c0,0-0.1,0.2-0.2,0.4c-0.1,0.3-0.3,0.7-0.5,1.3
		c-0.5,1.1-1.2,2.7-2.3,4.6c-1.2,1.8-2.8,3.9-5.2,5.6c-2.4,1.7-5.4,3.1-9.1,3.8c-1.9,0.4-4,0.6-6.2,0.6c0.5-0.6,1.1-1.1,1.6-1.7
		c0.7-0.9,1.5-1.7,2.1-2.7c0.3-0.5,0.7-1,1-1.4c0.3-0.5,0.6-1,0.9-1.5c0.3-0.5,0.6-1,0.9-1.5c0.3-0.5,0.5-1.1,0.8-1.6
		c0.6-1,0.9-2.1,1.4-3.1c0.5-1,0.7-2.1,1-3c0.1-0.5,0.3-1,0.4-1.4c0.1-0.5,0.2-0.9,0.3-1.4c0.2-0.9,0.3-1.7,0.4-2.4
		c0.1-0.7,0.1-1.3,0.2-1.8c0.1-1,0.1-1.6,0.1-1.6c0.1-0.8-0.5-1.5-1.2-1.6c-0.8-0.2-1.6,0.4-1.8,1.2l0,0.2c0,0-0.1,0.5-0.3,1.4
		c-0.1,0.5-0.2,1-0.3,1.6c-0.1,0.6-0.4,1.3-0.6,2.1c-0.1,0.4-0.2,0.8-0.4,1.2c-0.1,0.4-0.3,0.8-0.5,1.2c-0.4,0.8-0.7,1.7-1.2,2.6
		c-0.5,0.9-0.9,1.8-1.5,2.6c-0.3,0.4-0.6,0.9-0.8,1.3c-0.3,0.4-0.6,0.8-0.9,1.2c-0.3,0.4-0.6,0.8-1,1.2c-0.3,0.4-0.7,0.8-1,1.2
		c-0.7,0.8-1.4,1.4-2.1,2.1c-0.7,0.6-1.4,1.3-2.1,1.8c-0.7,0.6-1.4,1.1-2,1.5c-1.2,0.8-2.2,1.4-3,1.9c-3.3-0.4-6.8-0.9-10.4-1.5
		c-4.9-0.8-10.1-1.8-15.7-2.3c-5.6-0.4-11.2-0.5-16.8,0c-5.6,0.4-11.3,1.3-16.7,2.6c-5.4,1.3-10.7,2.9-15.7,4.9
		c-10,3.9-18.7,8.9-25.7,13.7c-3.5,2.4-6.6,4.8-9.3,6.9c-2.7,2.2-5,4.1-6.8,5.8c-0.9,0.8-1.8,1.6-2.5,2.3c-0.4,0.3-0.7,0.7-1,0.9
		c-0.3,0.3-0.5,0.5-0.8,0.7c-0.9,0.9-1.4,1.3-1.4,1.3c-0.2,0.2-0.4,0.4-0.5,0.6c-3.3,3.8-2.9,9.6,0.9,13s9.6,2.9,13-0.9
		c0,0,0.4-0.5,1.3-1.5c0.2-0.2,0.4-0.5,0.7-0.8c0.2-0.3,0.5-0.6,0.8-0.9c0.6-0.6,1.2-1.3,2-2.1c1.5-1.6,3.4-3.5,5.6-5.7
		c2.2-2.1,4.8-4.4,7.7-6.8c5.9-4.8,13.2-9.8,21.6-14c4.2-2.1,8.8-3.9,13.5-5.5c4.7-1.6,9.7-2.7,14.7-3.5c5-0.8,10.1-1.2,15.1-1.3
		c4.9,0,10.1,0.4,15.1,0.8c5.1,0.3,10.1,0.6,14.9,0.5c4.8-0.1,9.5-0.7,13.7-2c4.2-1.2,7.9-3.3,10.6-5.7c2.7-2.4,4.5-5.1,5.6-7.3
		c1.1-2.2,1.8-4.1,2.1-5.4c0.2-0.6,0.3-1.1,0.4-1.4c0.1-0.3,0.1-0.5,0.1-0.5C508.7,51.4,508.3,50.6,507.5,50.3z"/>
</g>
<g id="Layer_4">
	<path class="st1" d="M380.3,208.5c0,0,0.4-0.8,1-2c0.2-0.3,0.4-0.7,0.6-1.1c0.2-0.4,0.4-0.8,0.7-1.2c0.3-0.4,0.5-0.8,0.8-1.2
		c0.3-0.4,0.6-0.8,1-1.2c0.3-0.4,0.7-0.8,1.1-1.1c0.4-0.3,0.8-0.7,1.3-1c0.2-0.1,0.5-0.3,0.7-0.4c0.2-0.1,0.5-0.2,0.7-0.3
		c0.2-0.1,0.5-0.2,0.7-0.2c0.2-0.1,0.5-0.1,0.7-0.1c0.5-0.1,0.9,0,1.3,0c0.4,0.1,0.7,0.1,1,0.2c0.3,0.1,0.5,0.2,0.6,0.3
		c0.1,0.1,0.3,0.2,0.3,0.2c0.6,0.4,0.8,1.2,0.4,1.8c-0.4,0.6-1.2,0.8-1.8,0.4c0,0,0,0,0,0.1c0,0-0.2,0-0.3,0.1
		c-0.1,0-0.3,0.1-0.4,0.2c-0.1,0.1-0.3,0.2-0.4,0.4c-0.1,0.1-0.1,0.2-0.2,0.3c-0.1,0.1-0.1,0.2-0.2,0.3c0,0.1-0.1,0.2-0.1,0.3
		c0,0.1-0.1,0.3-0.1,0.4c-0.1,0.3-0.2,0.6-0.2,0.9c-0.1,0.4-0.1,0.7-0.2,1c0,0.4-0.1,0.7-0.1,1.1c0,0.4,0,0.8,0,1.1c0,0.4,0,0.7,0,1
		c0,0.3,0,0.6,0.1,0.9c0,1.5,0,2.4,0,2.4c0,2.8-2.2,5.2-5.1,5.2s-5.2-2.2-5.2-5.1c0-0.8,0.2-1.6,0.5-2.4L380.3,208.5z M411.5,205.1
		c-0.7,0.3-1.4,0.8-1.9,1.4c-1.8,2.2-1.6,5.4,0.6,7.2s5.4,1.6,7.2-0.6c0,0,0.2-0.2,0.4-0.5c0.1-0.2,0.3-0.4,0.5-0.6
		c0.2-0.2,0.4-0.5,0.6-0.7c0.2-0.2,0.3-0.5,0.5-0.7c0.2-0.3,0.4-0.5,0.7-0.8c0.3-0.3,0.5-0.6,0.8-0.8c0.3-0.3,0.6-0.6,0.9-0.8
		c0.3-0.3,0.6-0.5,0.9-0.7c0.3-0.2,0.6-0.4,1-0.6c0.6-0.4,1.3-0.7,1.8-0.8c0.3-0.1,0.5-0.2,0.8-0.2c0.2,0,0.4-0.1,0.6-0.1
		c0.2,0,0.3,0,0.4,0c0.1,0,0.1,0,0.1,0c0.6,0.4,1.4,0.2,1.8-0.4c0.4-0.6,0.2-1.4-0.4-1.8c0,0-0.1-0.1-0.2-0.2
		c-0.1-0.1-0.3-0.2-0.5-0.3c-0.2-0.1-0.5-0.2-0.8-0.3c-0.3-0.1-0.7-0.2-1.1-0.3c-0.8-0.2-1.7-0.3-2.7-0.4c-0.5,0-1,0-1.5,0
		c-0.5,0-1,0.1-1.5,0.2c-0.5,0.1-1,0.2-1.5,0.3c-0.5,0.1-1,0.2-1.4,0.4c-0.5,0.1-0.9,0.2-1.3,0.4c-0.4,0.2-0.8,0.3-1.2,0.4
		c-0.4,0.1-0.7,0.3-0.9,0.4c-0.3,0.1-0.5,0.2-0.7,0.3c-0.4,0.2-0.6,0.2-0.6,0.2L411.5,205.1z M433.9,224.5c-0.7-0.1-1.4-0.1-2.1,0.1
		c-2.7,0.7-4.4,3.5-3.7,6.2s3.5,4.4,6.2,3.7c0,0,0.3-0.1,0.7-0.2c0.2-0.1,0.5-0.1,0.8-0.2c0.3-0.1,0.8-0.2,1-0.3
		c0.3-0.1,0.5-0.2,0.8-0.3c0.3-0.1,0.7-0.2,1-0.2c0.2,0,0.4-0.1,0.6-0.1c0.2,0,0.4,0,0.6-0.1l0.6-0.1c0.2,0,0.4,0,0.6,0
		c0.2,0,0.4,0,0.6,0l0.6,0.1c0.4,0,0.7,0.1,1.1,0.2c0.3,0.1,0.7,0.2,0.9,0.4c0.3,0.1,0.6,0.3,0.8,0.5c0.5,0.4,0.8,0.8,1,1.1
		c0.1,0.2,0.2,0.3,0.2,0.4c0,0.1,0.1,0.1,0.1,0.1c0,0.7,0.6,1.3,1.3,1.3c0.7,0,1.3-0.6,1.3-1.3c0,0,0-0.1,0-0.3c0-0.2,0-0.4,0-0.7
		c-0.1-0.6-0.2-1.3-0.5-2.2c-0.2-0.4-0.4-0.9-0.7-1.4c-0.3-0.5-0.6-0.9-1-1.4c-0.4-0.4-0.8-0.9-1.3-1.3c-0.5-0.4-1-0.8-1.5-1.1
		c-0.3-0.2-0.5-0.3-0.8-0.5c-0.3-0.1-0.5-0.3-0.8-0.4c-0.3-0.1-0.5-0.2-0.8-0.4c-0.3-0.1-0.5-0.2-0.8-0.3c-0.5-0.2-1-0.4-1.5-0.5
		c-0.5-0.1-1-0.2-1.4-0.3c-0.5-0.1-0.8-0.1-1.1-0.2c-0.3-0.1-0.6-0.1-0.8-0.1c-0.5-0.1-0.7-0.1-0.7-0.1L433.9,224.5z M405.7,100.3
		c1.7,2.6,5.2,3.4,7.8,1.7c2.6-1.7,3.4-5.2,1.7-7.8l-8.8-13.7c-0.2-0.3-0.5-0.5-0.9-0.5c-0.6,0-1,0.5-1,1.1l0.4,16.3
		C404.8,98.4,405.1,99.4,405.7,100.3z M434.1,92.5c1.1,2.9,4.4,4.4,7.3,3.3c2.9-1.1,4.4-4.4,3.3-7.3l-5.2-13.8
		c-0.1-0.3-0.4-0.6-0.7-0.7c-0.6-0.1-1.1,0.2-1.3,0.8l-3.6,14.3C433.7,90.2,433.7,91.4,434.1,92.5z M412.1,50.4
		c-4.6,0.4-8,4.4-7.6,8.9s4.4,8,8.9,7.6l0,0c0,0,0.3,0,0.8-0.1c0.1,0,0.3,0,0.4,0l0.1,0c0,0,0,0,0,0c0,0,0,0-0.1-0.1
		c0-0.1-0.1-0.1-0.1-0.2c0,0,0-0.1,0-0.1c0,0,0-0.1,0-0.1l0.1,0c0.2,0,0.4-0.1,0.7-0.1c0.3,0.1,0.6,0,1,0.2c0.4,0.1,0.8,0.2,1.2,0.4
		c0.4,0.2,0.9,0.4,1.3,0.7c0.4,0.2,0.9,0.5,1.3,0.8c0.4,0.3,0.9,0.6,1.3,0.9c0.8,0.6,1.6,1.3,2.2,1.9c0.6,0.6,1.1,1.1,1.5,1.5
		c0.3,0.4,0.5,0.6,0.5,0.6l0.1,0.1c0.3,0.3,0.8,0.5,1.2,0.5c0.8-0.1,1.5-0.8,1.4-1.6c0,0,0-0.3-0.1-0.9c-0.1-0.6-0.1-1.3-0.3-2.3
		c-0.1-0.9-0.3-2-0.6-3.2c-0.2-0.6-0.3-1.2-0.5-1.9c-0.2-0.6-0.4-1.3-0.7-1.9c-0.2-0.7-0.5-1.3-0.9-2c-0.3-0.7-0.7-1.3-1.1-1.9
		c-0.4-0.6-0.9-1.2-1.3-1.8c-0.5-0.6-1.1-1.1-1.6-1.6c-0.2-0.2-0.7-0.5-1-0.8c-0.4-0.2-0.8-0.5-1.1-0.7c-0.2-0.1-0.4-0.2-0.5-0.3
		l-0.2-0.1l-0.1-0.1c-0.1-0.1-0.3-0.2-0.4-0.2c-0.4-0.3-0.7-0.5-0.7-0.5C415.9,50.8,414.1,50.2,412.1,50.4z M431.5,38.8
		c-1.4-0.6-2.9-0.9-4.5-0.7c-4.5,0.6-7.6,4.7-6.9,9.2c0.6,4.5,4.7,7.6,9.2,6.9c0,0,0.4,0,1-0.1c0.3,0,0.7-0.1,1.1-0.2
		c0.2,0,0.1,0,0.1,0l0-0.1c0,0,0.1-0.1,0.1-0.2c0.1,0,0.1-0.2,0.2-0.2c0.1,0,0.3,0,0.4-0.1c0.1,0,0.3-0.1,0.5-0.1c0.2,0,0.3,0,0.5,0
		c0.4,0,0.7,0.1,1.1,0.3c0.4,0.1,0.8,0.4,1.2,0.6c0.4,0.3,0.8,0.6,1.2,1c0.4,0.4,0.8,0.8,1.1,1.2c0.4,0.4,0.7,0.9,1,1.3
		c0.3,0.4,0.6,0.9,0.8,1.3c0.2,0.4,0.4,0.8,0.6,1.2c0.2,0.4,0.3,0.7,0.4,0.9c0.2,0.5,0.3,0.8,0.3,0.8l0.1,0.2
		c0.2,0.4,0.6,0.8,1.1,0.9c0.8,0.2,1.6-0.4,1.8-1.2c0,0,0-0.1,0.1-0.3c0-0.2,0.1-0.4,0.1-0.8c0.1-0.3,0.1-0.7,0.2-1.2
		c0.1-0.5,0.1-1,0.2-1.6c0-0.6,0.1-1.2,0.1-1.9c0-0.7,0-1.4-0.1-2.2c-0.1-0.8-0.2-1.6-0.4-2.4c-0.2-0.8-0.5-1.7-0.8-2.6
		c-0.4-0.8-0.7-1.7-1.3-2.6c-0.5-0.8-1.1-1.7-1.8-2.4c-0.3-0.4-0.7-0.7-1-1.1c-0.4-0.3-0.7-0.6-1.1-0.9c-0.4-0.3-0.7-0.6-1.1-0.8
		c-0.4-0.3-0.9-0.5-1.3-0.7c-0.4-0.2-0.9-0.4-1.3-0.6c-0.4-0.2-0.8-0.3-1.1-0.5c-0.4-0.2-0.7-0.3-1-0.5
		C431.8,38.9,431.5,38.8,431.5,38.8L431.5,38.8z"/>
</g>
<g id="Layer_5">
	<path class="st2" d="M352.5,352.2c-4.9-9.4-15.8-16.9-27.7-20.4l10.9-62.4c-5.3-2-10.6-1.4-16,0.7l-4.7-44
		c-5.3,0.1-10.9,1.8-16.1,4.6l-9.1-45c-1.3,0.2-2.7,0.5-4,0.8l6.2-39.8c-0.9-0.2-1.9-0.4-2.8-0.5l29.1-42.1
		c-1.6-1.2-3.4-2.3-5.4-3.1l18.8-27.5c-0.8-0.8-1.7-1.6-2.7-2.4L371.9,51c-8.2-23.3-33.7-35.5-56.9-27.4c-12,4.2-21.1,13-25.9,23.7
		c-2.5,5.5,6.4,9.5,15.7,13.9c-12.4-1.8-25.2,0.6-33,8.4c-7.3,7.4-10.8,17.1-10.5,26.7c0.1,3.1,4.7,4.5,11,5.4
		c-10.2,3.1-19.1,8.1-23.9,14.1c-6.5,8.1-8.9,18.2-7.6,27.7c0.8,5.8,15.8,4.9,28.5,5.1c-14.1,5-27.2,16.3-30.3,28.9
		c-2.5,10.1-0.6,20.2,4.6,28.4c2.9,4.6,13.9-2.6,24.3-8.6c-10.5,9.9-17.7,24.3-16.1,36.6c1.4,10.3,6.9,19,14.7,24.7
		c2.2,1.6,5.3,0.1,8.7-2.9c-2.1,4.6-3.3,9.4-3.2,14.1c0.2,10.4,4.8,19.7,11.9,26.2c0.9,0.8,1.9,1,3.2,0.7c-2,2-3.8,4-5.6,5.8
		c-7.3,7.4-7.8,20.1-3.6,28.8c1.4,2.9,6.4,3.6,12.7,3.6c-8.2,3.8-16.6,7-18.9,15c-1.3,4.4,6.9,12.2,15.8,19.9
		c-6.1-3.4-12.6-5.3-18.8-5c-10.4,0.5-19.5,5.3-25.8,12.6c-3,3.5,3.8,10.1,11.3,17c-5.4-2.1-10.7-3.5-15.4-4
		c-10.3-1.1-20.1,2.2-27.5,8.4c-3.5,3,2.1,10.4,8.3,18.3c-9-4.2-17.2-7.8-22.2-10.2c-9.4-4.5-12.3-8.7-21.3-5.4
		c-3.6,1.4-8.2,9.1-12.6,18.2c0.3-4.7-0.2-9.2-1.7-13.3c-3.6-9.8-5-20.9-13.9-24.7c-4.2-1.8-13,5.3-21.7,13.1
		c4.1-5.6,6.9-11.9,7.4-18.1c0.8-10.4-2.8-20-9.2-27.2c-3.1-3.4-10.5,2.5-18.3,9.1c2.7-5.1,4.8-10.2,5.9-14.8
		c2.4-10.1,0.4-20.2-4.9-28.3c-1.1-1.8-4.3-2.8-8.7-3.5c6-5.4,9-6,9-14.2c0-4-5.9-8.7-12.6-13.4c5,0.5,9.5-0.2,13.2-2.2
		c7-4,11.3-11.4,12.3-20c0.4-3.4-4.9-6.4-11.5-9.4c4.4,0.7,8.7,0.3,12.5-1.4c6.8-3.1,11.7-8.7,13.9-15.3c0.8-2.4-2.9-4.9-7.9-7.4
		c1.7,0.1,3.3-0.1,5-0.4c7.3-1.7,13.2-6.2,16.7-12.1c1.3-2.1-1.7-5.2-6-8.7c5.7,1,11.1,1,15.2-0.4c7.1-2.4,12.4-7.6,15.3-13.8
		c1.8-3.8-7.7-9.1-15.3-14.1c10.5,2.4,22.8,0.7,29.6-5.8c5.4-5.1,8.2-12,8.2-19c0-3.9-9.4-3.8-18-4.1c10.2-1.9,20.1-7.9,23.9-16
		c3.2-6.8,3.2-14.2,0.7-20.7c-1.2-3-7.2-1.1-13.7,1.2c2.8-5.5,4.4-11.4,3.7-15.8c-0.9-5.4-3.9-9.9-8.1-12.8
		c-2.5-1.7-7.5,4.4-12.1,9.3c3.1-7.3,3.3-16.4-0.5-22.1c-3-4.6-7.7-7.4-12.7-8.3c-2.8-0.5-3.9,6.3-5.2,12.5
		c-0.1-7.6-3.2-15.5-8.5-19.2c-4.5-3.1-9.9-4.1-14.8-3.1c-2.3,0.5-1.7,5-0.9,10c-2.6-4.3-5.9-7.8-9.2-9.3c-4.2-1.8-8.7-1.7-12.6-0.1
		c-2.3,1-0.3,7,1,12.3c-2.5-3.5-6.1-6.3-9.7-6.8c-3.8-0.5-7.4,0.5-10.1,2.7c-1.2,1,0.4,3.4,2.3,6.2c-3.1-2.2-6.9-3.4-10.1-2.6
		c-3.1,0.7-5.5,2.6-7,5.2c-0.7,1.2,1.7,2.8,4.3,4.5c-2.9-0.8-6.1-0.6-8.3,0.7c-2.4,1.4-3.9,3.7-4.4,6.1c-0.5,2.3,9.3,2.7,10.6,4.9
		l9.5-6.9c-0.1-0.2-0.3-0.4-0.5-0.7l10.6-3.5c0,0.3,0.1,0.5,0,0.7l16.3,0.9c0.1-0.9,0.1-1.9,0-2.9l21.1,7.5c0.4-1,0.7-2.1,0.8-3.3
		l16.4,9.4c0.4-0.6,0.8-1.2,1.1-1.8l13.3,16.6c0.4-0.3,0.8-0.6,1.2-0.9l3.9,17l-10,27.6c0.9,0.4,1.8,0.8,2.7,1l-19.2,21.7
		c0.5,0.5,1,1,1.5,1.4L111,187.3c0.9,2.6,2.7,5.2,5.1,7.5l-18.9,8.1c1.1,5,4.1,10.1,8,14.4l-23.4,16.3c1.9,4.2,5.2,8.1,9.3,11.4
		c-2.8-1.6-4.9-3.2-5.9-5L57,260.4c3.3,5.8,8.5,11,14.5,15.1l-30.7,35.9c2.6,2.7,5.9,4.9,9.6,6.5L66,387.1c6.6,1.6,13.5-0.6,19.8-5
		l0.4,34c6.8,0.5,14.2-1.5,21-5.2c-1,0.6-1.9,1.1-2.7,1.4l30.4,49.4c5.3-1.9,10.2-5.6,14.4-10.3l117.6,6.3
		c3.4-7.1-3.7-15.1-14.7-22.7l34.9-4.8c0.7-6.8-2.3-13.3-7.5-19l33.6-4.7c-0.3-6.8-3.3-13.9-7.8-20.2c0.8,0.9,1.4,1.7,1.7,2.5
		L352.5,352.2z"/>
</g>
<g id="Layer_6">
	<path class="st3" d="M451.4,76.2l-63.7,17.4c-3.5,1-5.6-3.8-2.6-5.7l69.4-45.1c1.4-0.9,1.9-2.7,1.1-4.2l-12-21.8
		c-0.8-1.4-2.5-2-4-1.4c0,0-7.2,3.1-17,7.2c-3.5-2.9-8.5-3.5-12.6-1.2c-3.5,1.9-5.5,5.4-5.8,9.1c-10.4,4.4-20.5,8.7-26.7,11.4
		c-3.2,1.4-6.9,0.9-9.7-1.2c-10.3-7.6-24.9-8.4-36.3-0.2c-10,7.2-14.5,19.9-11.9,31.6c-19.1,18.5-33.1,41.8-40.7,68
		c-11.5,39.7-7,81.5,12.9,117.8c0,0,0,0,0,0c0,0,0.4,0.8,1.1,2.3c0.2,0.4,0.4,0.9,0.6,1.3c0.1,0.3,0.3,0.7,0.4,1.1
		c0.2,0.4,0.3,0.8,0.5,1.3c0.2,0.5,0.4,1.1,0.7,1.7c1,2.4,2.1,5.4,3.2,9c1.1,3.6,2.2,7.7,3.1,12.4c0.9,4.7,1.7,9.9,2,15.6
		c0.2,2.9,0.3,5.8,0.2,8.9c0,3.1-0.2,6.3-0.5,9.5c-0.6,6.5-1.7,13.5-3.7,20.6c-2,7.1-4.6,14.3-8.2,21.5c-3.6,7.2-8,14.2-13.4,20.9
		c-5.3,6.7-11.7,12.9-18.8,18.5c-3.6,2.8-7.4,5.4-11.4,7.8c-2,1.2-4,2.4-6.2,3.5l-1,0.5l-0.5,0.3l-0.4,0.2l-1.3,0.6
		c-0.4,0.2-1,0.5-1.5,0.7l-1.6,0.8c-8.7,3.9-18,6.8-27.8,8.4c-4.9,0.8-9.8,1.3-14.8,1.5c-5,0.2-10.1,0-15.2-0.5
		c-10.2-1-20.3-3.4-30.1-7.1c-9.8-3.7-19.1-8.8-27.5-15.2c-8.5-6.3-16.2-13.8-22.6-22.4c-1.6-2.1-3.2-4.3-4.6-6.6
		c-0.7-1.1-1.5-2.3-2.2-3.4l-1-1.7l-0.1-0.2c0.4,0.7,0,0,0.1,0.1l-0.3-0.6l-0.6-1.1c-2.6-4.6-5-9.5-7-14.5c-4-10-6.5-20.5-7.5-31.1
		c-1-10.6-0.7-21.4,1.1-31.9c1.8-10.5,5.1-20.6,9.5-30c8.8-18.9,21.7-35.2,37.1-47.9c1.9-1.6,3.9-3.1,5.9-4.6l1.5-1.1l0.4-0.3
		c0.2-0.1-0.2,0.1,0.5-0.3l0.2-0.2l0.9-0.6l1.9-1.2l0.9-0.6l1.1-0.7c1.5-1,3.1-2.1,4.5-3.1c1.4-1,2.8-2,4.1-3.1
		c1.3-1.1,2.7-2.1,4-3.2c1.3-1.1,2.6-2.2,3.9-3.4c5.1-4.6,10-9.6,14.3-15.2c4.3-5.6,8.2-11.7,11.2-18.4c1.5-3.3,2.7-6.9,3.7-10.5
		c1-3.6,1.6-7.3,1.9-11.1c0.3-3.8,0.3-7.5-0.1-11.2c-0.4-3.7-1.2-7.3-2.3-10.8c-1.1-3.5-2.6-6.7-4.2-9.7c-1.7-3-3.6-5.8-5.6-8.3
		c-4.2-5-8.8-9-13.7-12.1c-4.8-3.1-9.7-5.3-14.5-6.9c-4.8-1.6-9.5-2.5-13.9-3.1c-4.5-0.5-8.7-0.6-12.7-0.4c-4,0.2-7.7,0.8-11.1,1.4
		c-6.9,1.4-12.7,3.4-17.5,5.5c-4.8,2.1-8.6,4.3-11.6,6.2c-0.7,0.5-1.4,0.9-2.1,1.3c-0.6,0.4-1.2,0.8-1.8,1.2c-1.1,0.8-2,1.4-2.7,2
		c-1.4,1.1-2.2,1.7-2.2,1.7c-1.4,1.1-2.1,3-1.5,4.8c0.7,2.3,3.2,3.6,5.6,2.9l0.2-0.1c0,0,0.8-0.3,2.4-0.7c0.8-0.3,1.8-0.5,2.9-0.8
		c0.6-0.2,1.2-0.3,1.9-0.5c0.7-0.2,1.4-0.3,2.2-0.5c3.1-0.7,6.8-1.5,11.2-2c4.4-0.6,9.4-0.7,14.7-0.3c5.4,0.4,11.1,1.5,16.6,3.7
		c5.5,2.2,10.9,5.3,14.8,9.7c4,4.2,6.4,9.3,6.6,14.1c0.2,4.8-1.3,9.6-5.1,15c-3.7,5.3-9.7,10.8-17.2,15.7c-1,0.6-1.9,1.2-2.9,1.8
		c-1,0.6-2,1.2-3,1.8c-1,0.6-2.1,1.1-3.1,1.7c-1,0.6-2,1-3,1.5c-1.2,0.6-2.5,1.2-3.8,1.9l-1,0.5l-0.2,0.1c0.6-0.3,0,0,0-0.1
		l-0.6,0.3l-2.4,1.1c-1.6,0.7-3.2,1.5-4.7,2.3c-1.6,0.8-3.1,1.6-4.7,2.5c-6.2,3.4-12.4,7.4-18.3,11.8c-2.9,2.2-5.9,4.5-8.7,7
		c-2.8,2.4-5.6,5-8.3,7.7C45.7,205.5,36.1,218,28.4,232c-7.7,14-13.6,29.2-17.4,45.3c-3.8,16-5.6,32.9-4.7,49.8
		c0.8,16.9,4,34,9.6,50.3c2.8,8.2,6.1,16.1,10.1,23.9l0.6,1.2l0.3,0.6l0.6,1.1L29,407c1,1.9,2.1,3.8,3.3,5.6
		c2.2,3.7,4.6,7.3,7.1,10.9c10,14.2,22.1,27.1,35.7,37.9c13.7,10.8,28.8,19.6,44.7,26.1c15.9,6.5,32.7,10.7,49.5,12.5
		c16.8,1.8,33.7,1.4,49.9-1.4c16.2-2.7,31.8-7.6,46.2-14.1l2.7-1.3c0.9-0.4,1.8-0.8,2.7-1.3l2.9-1.5l0.7-0.4l0.5-0.3l1-0.6
		c3.4-1.8,6.8-3.8,10-5.8c6.5-4.1,12.8-8.5,18.6-13.2c5.9-4.7,11.3-9.8,16.4-15c5.1-5.3,9.8-10.8,14-16.4
		c4.3-5.6,8.2-11.4,11.6-17.3c3.5-5.9,6.5-11.8,9.2-17.8c10.8-23.8,15.3-47.7,16-68.8c0.7-21.1-2.5-39.4-6.6-53.9
		c-4.1-14.5-9.1-25.2-12.8-32.3c-0.5-0.9-0.9-1.7-1.3-2.5c-0.5-0.8-0.9-1.6-1.3-2.3c-0.4-0.7-0.8-1.4-1.1-2
		c-0.3-0.5-0.5-0.9-0.8-1.3c-0.9-1.5-1.3-2.2-1.3-2.2c-0.1-0.1-0.1-0.2-0.2-0.3l0,0c-11.9-21.7-14.7-46.7-7.8-70.5
		c3.1-10.6,7.9-20.4,14.3-29.1c7.2,6.8,16,9.8,27.4,3.5l68.6-37.7c0.7-0.4,1.2-0.9,1.4-1.7l4.7-12.2C456.1,78,453.9,75.5,451.4,76.2
		z"/>
</g>
<g id="Layer_7">
	<path class="st4" d="M436.1,224.9c0,0-0.1-0.1-0.4-0.3c-0.3-0.2-0.7-0.4-1.2-0.7c-0.1-0.1-0.3-0.2-0.4-0.2
		c-0.1-0.1-0.3-0.2-0.5-0.2c-0.4-0.2-0.9-0.3-1.4-0.5c-0.5-0.2-1.1-0.4-1.7-0.5c-0.5-0.1-1.1-0.3-1.7-0.4c-1.2-0.3-2.6-0.5-4-0.6
		c-0.7-0.1-1.5-0.1-2.2-0.1c-0.8,0-1.6,0-2.4,0.1c-0.8,0.1-1.6,0.2-2.4,0.3c-0.8,0.1-1.6,0.3-2.5,0.5c-0.8,0.2-1.6,0.4-2.5,0.7
		c-0.5,0.2-1,0.3-1.5,0.5c0.1-0.2,0.1-0.4,0.2-0.6c0.2-0.5,0.4-1,0.6-1.5c0.2-0.5,0.4-0.9,0.6-1.4c0.2-0.4,0.4-0.9,0.6-1.3
		c0.5-0.8,0.9-1.6,1.4-2.3c0.2-0.3,0.5-0.7,0.7-1c0.2-0.3,0.4-0.5,0.6-0.8c0.2-0.2,0.4-0.5,0.5-0.7c0.1-0.2,0.4-0.5,0.6-0.7
		c0.8-0.9,1.3-1.3,1.3-1.3c1.8-1.9,2-4.9,0.3-7c-1.8-2.3-5.2-2.7-7.5-0.8l-0.2,0.2c0,0-0.5,0.4-1.4,1.2c-0.2,0.2-0.5,0.3-0.8,0.7
		c-0.3,0.3-0.7,0.6-1,1c-0.4,0.4-0.8,0.7-1.2,1.2c-0.4,0.4-0.7,0.8-1.1,1.3c-0.8,0.9-1.6,1.9-2.4,3c-0.4,0.5-0.8,1.1-1.2,1.7
		c-0.4,0.6-0.8,1.2-1.1,1.9c-0.4,0.7-0.7,1.3-1.1,2c-0.3,0.7-0.6,1.4-1,2.2c-0.3,0.7-0.6,1.5-0.9,2.3c-0.2,0.8-0.6,1.5-0.7,2.3
		c-0.1,0.5-0.2,0.9-0.4,1.4l-0.4-0.3c-0.4-0.3-0.6-0.7-1-1c-0.3-0.3-0.7-0.7-0.9-1.1c-0.3-0.4-0.6-0.7-0.9-1.1
		c-0.3-0.4-0.5-0.8-0.8-1.2c-0.3-0.4-0.4-0.8-0.7-1.2c-0.2-0.4-0.4-0.8-0.6-1.2c-0.3-0.8-0.7-1.6-0.9-2.3c-0.1-0.4-0.3-0.7-0.4-1.1
		c-0.1-0.3-0.2-0.6-0.3-0.9c-0.1-0.3-0.2-0.5-0.2-0.8c-0.1-0.3-0.1-0.6-0.2-0.9c-0.2-1.1-0.3-1.7-0.3-1.7c-0.4-2.4-2.4-4.2-4.9-4.4
		c-3-0.2-5.5,2-5.8,5c0,0,0,0.6-0.1,1.8c0,0.3-0.1,0.6-0.1,1c0,0.4,0,0.9,0,1.4c0,0.5,0,1,0.1,1.6c0,0.5,0.1,1.1,0.2,1.6
		c0.1,1.1,0.3,2.4,0.6,3.7c0.1,0.7,0.3,1.3,0.5,2c0.2,0.7,0.4,1.4,0.6,2.1c0.3,0.7,0.5,1.4,0.8,2.1c0.3,0.7,0.6,1.4,1,2.1
		c0.3,0.7,0.7,1.4,1.1,2.1c0.4,0.7,0.8,1.4,1.3,2c0.5,0.7,1,1.3,1.4,2c0.5,0.6,1.1,1.2,1.6,1.8c0.5,0.6,1.1,1.1,1.7,1.7
		c0.6,0.5,1.1,1.1,1.7,1.6c0.6,0.5,1.2,0.9,1.8,1.4c0.6,0.4,1.2,0.8,1.8,1.2c0.6,0.4,1.1,0.7,1.7,1c0.3,0.5,0.8,1,1.2,1.4
		c0.1,0.2,0.1,0.4,0.2,0.6c0.2,0.4,0.3,0.8,0.5,1.2c0.6,1.4,0.9,2.2,0.9,2.2c0.1,0.3,0.3,0.6,0.4,0.9c0.3,0.6,0.7,1.1,1.1,1.6
		c-0.2,0.6-0.4,1.3-0.7,1.9c-0.7,1.9-1.7,3.9-2.8,5.9c-1.2,1.9-2.5,3.9-4.1,5.6c-1.6,1.7-3.4,3.4-5.4,4.7c-2,1.4-4.2,2.5-6.5,3.5
		c-2.3,0.9-4.7,1.6-7.2,2.1c-2.4,0.5-4.9,0.7-7.3,0.8c-2.4,0.1-4.8,0-7-0.2c-2.2-0.2-4.3-0.6-6.1-1c-1.9-0.4-3.5-0.9-4.9-1.4
		c-0.7-0.3-1.3-0.5-1.9-0.7c-0.6-0.2-1.1-0.5-1.5-0.6c-0.3-0.2-0.6-0.3-0.9-0.5c-0.4-0.2-0.8-0.4-1.1-0.5c-0.7-0.3-1-0.5-1-0.5
		c-0.4-0.2-0.9-0.4-1.4-0.6c-6.4-2.2-13.3,1.3-15.5,7.7c-2.2,6.4,1.3,13.3,7.7,15.5l1.1,0.4c0,0,0.4,0.1,1.1,0.4
		c0.2,0.1,0.4,0.1,0.6,0.2c0.2,0.1,0.4,0.2,0.8,0.3c0.6,0.2,1.4,0.4,2.2,0.6c0.8,0.2,1.6,0.4,2.6,0.6c0.9,0.2,2,0.4,3,0.6
		c2.2,0.3,4.6,0.7,7.3,0.9c2.7,0.2,5.6,0.3,8.6,0.1c3.1-0.1,6.3-0.5,9.6-1c3.3-0.6,6.7-1.4,10.1-2.6c3.4-1.2,6.8-2.7,10-4.5
		c3.2-1.9,6.3-4.1,9-6.5c2.8-2.5,5.2-5.3,7.2-8.1c2.1-2.9,3.6-5.9,4.9-8.8c1.2-2.9,2.2-5.8,2.8-8.4c0.7-2.6,1.1-5.1,1.4-7.2
		c0.3-2.1,0.5-4,0.6-5.6c0.1-1.2,0.1-2.1,0.1-2.9c0,0,0.1,0,0.1-0.1c0.3-0.3,0.6-0.6,1-0.8c0.3-0.3,0.7-0.5,1-0.8
		c0.4-0.3,0.7-0.5,1.1-0.8c0.4-0.3,0.7-0.5,1.1-0.7c0.4-0.2,0.8-0.5,1.2-0.7c0.4-0.2,0.8-0.4,1.2-0.7c0.4-0.2,0.8-0.4,1.2-0.6
		c0.8-0.4,1.6-0.7,2.4-1.1c0.8-0.3,1.6-0.6,2.3-0.8c0.7-0.2,1.4-0.5,1.9-0.6c0.3-0.1,0.5-0.2,0.8-0.3c0.1-0.1,0.3-0.1,0.5-0.1
		c0.2,0,0.3,0,0.5-0.1c0.6-0.1,1.1-0.2,1.4-0.2c0.3-0.1,0.5-0.1,0.5-0.1c1.4-0.3,2.8-1.2,3.7-2.5
		C439.5,230.2,438.7,226.7,436.1,224.9z"/>
</g>
<g id="Layer_9">
	<path class="st5" d="M412.2,35.8c-0.6,0-1.3-0.3-1.6-0.9c-0.8-1.4-0.9-2.9-0.5-4.4s1.4-2.7,2.8-3.5c1.4-0.8,2.9-0.9,4.4-0.5
		c1.5,0.4,2.7,1.4,3.5,2.8c0.5,0.9,0.2,2-0.7,2.5c-0.9,0.5-2,0.2-2.5-0.7c-0.3-0.5-0.8-0.9-1.3-1.1c-0.6-0.2-1.2-0.1-1.7,0.2
		c-0.5,0.3-0.9,0.8-1.1,1.3c-0.2,0.6-0.1,1.2,0.2,1.7c0.5,0.9,0.2,2-0.7,2.5C412.8,35.8,412.5,35.8,412.2,35.8z"/>
</g>
<circle class="st6" cx="351.9" cy="70.1" r="10.5"/>
</svg>
