<?xml version="1.0" encoding="utf-8"?>
<!-- Generator: Adobe Illustrator 26.3.1, SVG Export Plug-In . SVG Version: 6.00 Build 0)  -->
<svg version="1.1" id="Layer_2_00000078753150828480551080000013357540634753821579_"
	 xmlns="http://www.w3.org/2000/svg" xmlns:xlink="http://www.w3.org/1999/xlink" x="0px" y="0px" viewBox="0 0 128 128"
	 style="enable-background:new 0 0 128 128;" xml:space="preserve">
<style type="text/css">
	.st0{fill:#3953A4;}
	.st1{fill:#FFF1AA;}
	.st2{fill:#FCF6B6;}
	.st3{fill:#000304;}
	.st4{fill:#F27CB6;}
	.st5{fill:#4B4C4D;}
	.st6{fill:#F47DAD;}
</style>
<path class="st0" d="M45.7,90.5l16,9.6c0,0,27.2,9.8,30.7,9.6c3.5-0.3,18.9-1.6,19.2-2.9c0.3-1.4-4-6.7-4-6.7s11.7-6.3,11.5-7.9
	c-0.2-2.4-4.5-4.5-4.5-4.5s8.2-11.3,7.8-12.4c-1-2.5-6.7-2.5-6.7-2.5s8-8.6,7.7-10.1c-0.6-2.9-11.5-3.9-11.5-3.9s5.7-5.5,4.7-7.5
	c-1-2.2-14.6-3.2-14.6-3.2s5.5-8,4.8-9c-2-2.6-18.9-1.3-18.9-1.3s2.3-7.2,1.1-7.9c-0.9-0.5-14.4,5.5-14.4,5.5s-0.1-6.8-2.2-6.3
	S59.4,41.5,59.4,41.5s-5.3-7.8-6.3-7.8s-7.2,7.9-7.2,7.9s-3.7-8.5-5.5-8.5c-1.8,0-7.7,13.2-7.7,13.2s-6.4-7.2-7.4-6.6
	c-1,0.6-2.2,5.8-2.5,8.7s-0.8,7-0.8,7s-5.1-1.5-5.8-2c-0.7-0.6-3.3-2.5-4.3-1.8c-0.7,0.5,1.3,5.8,2.7,8.5c1.8,3.4,5.8,8.3,5.8,8.3
	L45.7,90.5z"/>
<path class="st0" d="M18,59.8c0,0,8.3-3.4,13.7-2.4s14.5,7.3,19,13.9s8.6,13.8,15.1,18.9c6.5,5.1,11.5,10,19.3,13.1
	c7.7,3.1,15.1,2.3,17.6,2.2s8.4,0.1,8.4-0.6s-4.5-8.2-4.5-8.2s11.5-4.7,12-5.6s-5.2-5.9-5.2-5.9s8.4-10.3,8.2-11s-8.7-3.4-8.7-3.4
	s9.6-7.6,9.6-9.2c0-1.5-11-3.1-11.8-4.5c-0.8-1.4,5.5-5.5,5.5-6.5s-16.6-3.5-16.9-4.4s6.9-6.9,6.5-7.9c-0.4-1-12.2-1.7-15.1-1.7
	c-2.8,0-6.1,0.7-6.8,0c-0.7-0.7,4.7-5.2,5.3-6.5s-6.1,1.1-9.7,2.1c-3.7,1-7,3.4-7.9,2.4s2.7-5.5,1-5.6c-1.7-0.1-7.2,4.1-8.9,5.9
	s-4.9,5.2-4.9,5.2s-3.7-5.3-4.1-4.8c-0.6,0.6-3.9,6.5-4.9,6.8c-1,0.3-7-7.7-7.7-7.7s-7.3,12.2-7.3,12.2s-6.5-5.3-7.5-5.8
	c-0.9-0.4-2.7,13.8-2.7,13.8S20,54.3,18,53.6s-5.9-3.2-6.2-2s1.8,4.2,3.1,5.6S18,59.8,18,59.8z"/>
<path class="st1" d="M56.1,102.8c0,0-18.3,11-16.5,11.9c1.8,0.9,3.1,1.8,7.4,0s12-7.2,12-7.2s5.3,1.6,10.4,1.8s14.3,0.6,14.3,0.6
	l4.4-5.5l-27.4-6.3L56.1,102.8z"/>
<g>
	<path class="st2" d="M44,77.7L30.3,96.1c0,0-0.7,5.1-1.3,6.4c-0.7,1.3-6.3,6.8-3.9,8.6s8.3,1.2,10.2-1.3c2.1-2.8,4.7-8.2,4.7-8.2
		s6.4-2.2,8.2-5c1.8-2.7,2.3-5.3,2.3-6.5s0.4-4.5,0.3-5.9s-1.4-7-1.4-7L44,77.7z"/>
	<path class="st2" d="M42.5,72.3c0,0-4.2-8.4-13-9.5S16,70.9,13.6,72.1S5.8,72.8,5,77.2s1.8,9.4,6.8,13.1c5,3.7,10.8,6.3,20.1,6.4
		S46.1,88.9,47,83.8c0.4-2.3,0.4-5.2,0.4-5.2s6.7-1.8,8.7-9.8c2.1-8.1-5.6-8.6-9.4-4.1C43.3,68.6,42.5,72.3,42.5,72.3z"/>
	<path class="st2" d="M59.5,90.8c5.8,1.1,12.4,3.2,17.4,5.3s15.8,7.1,16,12c0.1,3.7-2.5,6-4.6,6.7c-2.3,0.8-10.1,1.9-13.1,0.3
		c-3-1.6-3.7-4.2,0-6.2s8.9-1.8,8.5-3.7s-7.4,0.3-13.4-0.3c-5.3-0.5-12.5-1.1-12.5-1.1s-4.6,4.2-7.5,6.8c-3.3,3-6.2,5.8-10.3,4.5
		c-3.5-1.1-4.8-3.2-3.3-4.7s3.5-2.9,4-3.6c0.6-0.7,1.4-2.6,1.4-2.6s-1.1-1.1-1.9-2.2c-0.8-1.1-1.2-1.9-1.2-1.9s5.3-2.9,7.2-4.9
		s3.8-5.4,3.8-5.7S53.9,89.7,59.5,90.8z"/>
</g>
<path class="st3" d="M30.7,75.4c0.1,2.1,0.9,4.3,3.7,4.3c2.8,0,3.2-2.5,3-4.8s-1.3-4.2-3.5-4.2C31.8,70.8,30.6,73,30.7,75.4z"/>
<path class="st4" d="M45.2,74.3c1.2,1.8,3.8,0.6,5.4-1.3s2.5-3.9,1.2-5.3c-1.5-1.6-3.9,0.1-5.1,1.4C45.6,70.5,44.1,72.8,45.2,74.3z"
	/>
<path class="st5" d="M10.5,82.2c0,0,3-2.7,3.1-4.1s-1.4-2.4-4.1-3.1c-2.7-0.7-4.6-1-4.9,2S6.4,81,6.4,81s-0.5,0.8-0.8,1.1
	S5.1,83,5.2,83.3c0.5,1.1,1.2,0.6,1.6,0.5c0.4-0.1,1-0.8,1-0.8s1.3,4.4,4.5,5.4c3.3,1.1,6-1.3,6.7-2c0.7-0.7,0.4-2.8-1.6-1.8
	c-1.7,0.8-1.5,1.7-3.9,1.3S10.5,82.2,10.5,82.2z"/>
<path class="st6" d="M27.1,107c0.8,0.5,0,2.3-0.4,2.7c-0.4,0.4-1.5,1.8-2.5,1s-0.3-2.5,0.4-3.1S26.1,106.3,27.1,107z"/>
<path class="st6" d="M40.6,110.1c0.9,0.7,0.5,2.2-0.4,2.9s-2.5,1.9-3.4,0.9c-1.1-1.2,0.9-2.9,1.4-3.3
	C38.7,110.2,39.7,109.4,40.6,110.1z"/>
<path class="st6" d="M44.4,111.7c0.9,0.7,0.3,1.8-0.5,2.6c-0.9,0.9-2.4,1.7-3.3,0.9s0.7-2.4,1.3-2.9S43.4,110.9,44.4,111.7z"/>
<path class="st6" d="M74.7,111.2c-0.7,0.6-2.1,2-1,3c1.1,1,2.8-0.4,3.3-1c0.5-0.6,1.4-1.6,0.6-2.5C76.8,109.7,75.5,110.5,74.7,111.2
	z"/>
<path class="st6" d="M77.1,115.6c0.7,0.8,2.1,0.1,3-0.8c0.4-0.4,1.2-1.6,0.3-2.4c-0.6-0.5-1.9-0.1-2.9,0.8S76.4,114.8,77.1,115.6z"
	/>
</svg>
