<?xml version="1.0" encoding="utf-8"?>
<!-- Generator: Adobe Illustrator 26.3.1, SVG Export Plug-In . SVG Version: 6.00 Build 0)  -->
<svg version="1.1" id="Layer_1" xmlns="http://www.w3.org/2000/svg" xmlns:xlink="http://www.w3.org/1999/xlink" x="0px" y="0px"
	 viewBox="0 0 508.2 368" style="enable-background:new 0 0 508.2 368;" xml:space="preserve">
<style type="text/css">
	.st0{fill:#7560AA;}
	.st1{fill:#029447;}
	.st2{fill:#2B3B47;}
	.st3{fill:#76C043;}
</style>
<g id="Layer_2_00000065056036251463679670000006165110084632725127_">
	<path class="st0" d="M150.1,187.9c0,0-8.9,51.4-14.7,84.8s-28.5,82.4-28.5,82.4l-0.5-0.1c-1.7,3.2-5,5.5-9.1,5.5H69.6
		c-8.3,0-13.3-9.4-8.4-16.2c0,0,4-11.3,13.1-11.3c3.4,0,8,0.6,12.7,1.8c7.4-43,14.5-89.3,13.6-146.6L150.1,187.9z M395.1,156.9
		l-87.3-22.3c-43.6,37.6-2.1,123.5,14.5,146.3c15.6,21.5,13.7,46,10.2,61c-4.1-0.9-8.1-1.4-11.2-1.4c-9.1,0-13.1,11.3-13.1,11.3
		c-4.9,6.7,0.1,16.2,8.4,16.2h27.7c3.1,0,5.8-1.3,7.6-3.4c1.7-1.3,2.8-3.8,3.1-7.7c1.5-20.9,18.4-37.6,12.6-55.7
		C349.6,244.9,390.5,219,395.1,156.9z M98.2,21.6C94.8,12.2,87.4,5.5,81.7,1.5c-4-2.8-9.7-1.5-11.9,2.9C65,13.6,59.3,29.9,69.5,44
		C84.5,65,98.2,21.6,98.2,21.6z"/>
</g>
<g id="Layer_3">
	<path class="st0" d="M508.2,263.5c0-4.7-3.7-8.6-8.5-8.8c-4.9-0.2-9,3.6-9.2,8.5l0,0c0,0,0,0.3,0,0.8c0,0.5,0,1.3-0.1,2.3
		c-0.1,2-0.4,5-1.2,8.6c-0.9,3.5-2.2,7.7-4.8,11.4c-2.5,3.7-6.2,6.8-10.5,7.5c-2.2,0.4-4.6,0.2-7-0.6c-2.5-0.9-5-2.4-7.4-4.6
		c-4.8-4.4-8.7-11.2-11.2-19.1c-2.6-7.8-3.9-16.7-4.3-25.8c-0.2-4.6-0.1-9.2,0.2-13.9c0-1.2,0.1-2.3,0.2-3.5
		c0.1-1.2,0.2-2.4,0.3-3.5c0.1-1.2,0.2-2.3,0.4-3.5l0.5-3.7l0.5-3.8l0.4-4c0.2-2.7,0.3-5.4,0.3-8.1c0-5.4-0.3-10.8-1.1-16.1
		c-1.6-10.6-5-20.9-10-30c-4.9-9.1-11.3-17-18.1-23.4c-6.9-6.4-14.3-11.4-21.5-15.2c-0.5-0.3-1-0.5-1.5-0.8
		c-11.4-20.1-30.8-29.8-49.4-29.9c-29-0.1-50.3,14.6-103.4,14.3c-41.3-0.2-100.1-3.8-113.1-26.8c-2-3.5-4-5.9-6-7.4
		c-0.7-4.7-2-9.3-3.9-13.7c5.6-8.1,7.7-17.7,8.4-25.5c0.8-8.2-6.4-14.9-14.6-13.7c-7.5,1.1-16.7,3.8-24.3,9.9
		c-5.3-2-10.9-3.1-16.8-3.1c-28.9,0-43.7,17-43.7,44.4c0,2.4-32.8,30.2-26.2,40.1c0.1,11.3,4.5,16.9,16.5,18.8
		c1,4.8,2.4,8.9,6.5,8.9c19.7,0,33.5-8.8,42.3-11.6c0.9,2.5,2.2,5.1,3.9,7.9c18.3,29.8,11,91.7,60.8,106.5
		c15.1,52.9,26.8,73.6,18,108.7c-4.5-1.1-8.9-1.7-12.2-1.7c-9.1,0-13.1,11.3-13.1,11.3c-4.9,6.7,0.1,16.2,8.4,16.2h27.7
		c6.2,0,10.5-5.2,10.3-10.6h0.8c0,0,10.3-36.5,10.3-60.2c0-14.7,1.4-43.4,2.5-63c50-7.4,84.7-23.5,108.3-29.8
		c14.2-3.8,19,9.1,28.1,20.6c13.5,17.1,16.5,40.7,34.3,46.1c28.3,8.5,37.7,43.4,40.6,60.2c0.3,2,0.9,3.9,1.5,5.8
		c-3.1-0.7-6-1.1-8.4-1.1c-8.1,0-11.6,11.3-11.6,11.3c-4.3,6.7,0.1,16.2,7.4,16.2h24.5c4,0,7-2.7,8.4-6.3c1.2-0.9,1.9-3,1.9-6.7
		c0-107.3-30.3-76.7-17.6-160.4c0.5-2.6,2.4-14.3,3-17.6c0,0,0-9.8,0-15c0-1,0-1.9,0-2.8c3.1,3.3,6,7.1,8.4,11.2
		c3.8,6.3,6.5,13.6,8,21.5c0.7,3.9,1.2,8,1.3,12.2c0.1,2.1,0,4.2,0,6.3l-0.2,3.2l-0.3,3.5l-0.3,3.7l-0.3,4.1
		c-0.1,1.4-0.2,2.7-0.2,4.1c-0.1,1.3-0.1,2.7-0.1,4c-0.1,5.4,0,10.8,0.4,16.1c0.8,10.8,2.7,21.5,6.5,31.7c1.9,5.1,4.2,10.1,7.1,14.7
		c2.9,4.7,6.5,9,10.7,12.7c4.2,3.7,9.3,6.7,14.8,8.5c5.5,1.7,11.6,2.1,17,0.9c5.5-1.1,10.3-3.6,14-6.6c3.8-3,6.5-6.4,8.6-9.7
		c4.2-6.7,5.9-12.9,6.9-17.9c1-5,1.2-8.9,1.3-11.5c0.1-1.3,0-2.3,0-3C508.2,263.8,508.2,263.5,508.2,263.5z"/>
</g>
<g id="Layer_4">
	<path class="st1" d="M104.8,27c8.7-6.6,14.6,0.3,13.2,8.3c-1.4,8.6-5.5,18.7-16.3,23.7C81.1,68.4,100.8,30,104.8,27z"/>
</g>
<path class="st2" d="M47.4,64.2c3.3,0,6,2.7,6,6v8.6c0,3.3-2.7,6-6,6l0,0c-3.3,0-6-2.7-6-6v-8.6C41.4,66.9,44.1,64.2,47.4,64.2
	L47.4,64.2z M12.4,105.5l5.5-4c3.2-2.3-6.7-1.6-11.5-1.6l-4.5-4.4C-2.9,95.6,1.7,112.4,12.4,105.5z"/>
<g id="Layer_6">
	<path class="st3" d="M68,37.2c-2.3,0-4.3-1.2-5.3-3.1c-0.8-1.5-0.8-3.2-0.1-4.8c0.6-1.4,1.7-2.6,3.2-3.4c1-0.5,2.1-0.8,3.1-0.8
		c2.3,0,4.3,1.2,5.3,3.1c0.8,1.5,0.8,3.2,0.1,4.8c-0.6,1.4-1.7,2.6-3.2,3.4C70.1,37,69,37.2,68,37.2z M68.8,31c-0.1,0-0.2,0-0.4,0.1
		c-0.2,0.1-0.3,0.2-0.3,0.2c0.1,0,0.2,0,0.4-0.1C68.6,31.2,68.7,31.1,68.8,31z"/>
	<path class="st3" d="M72,61.1c-2.4,0-4.3-1.1-5.2-2.9c-0.8-1.6-0.7-3.5,0.3-5.3c0.8-1.4,2.1-2.6,3.7-3.4c1.4-0.7,2.8-1.1,4.2-1.1
		c2.4,0,4.3,1.1,5.2,2.9c0.8,1.6,0.7,3.5-0.3,5.3c-0.8,1.4-2.1,2.6-3.7,3.4C74.9,60.8,73.4,61.1,72,61.1z M74.2,54.5
		c-0.2,0.1-0.5,0.2-0.7,0.3c-0.3,0.1-0.5,0.3-0.7,0.4c0.2-0.1,0.5-0.2,0.7-0.3C73.8,54.7,74.1,54.6,74.2,54.5z"/>
	<path class="st3" d="M52.9,44.1c-2.3,0-4.8-1.5-6.3-3.9c-2.3-3.6-1.9-7.8,0.9-9.6c0.8-0.5,1.7-0.8,2.7-0.8c2.3,0,4.8,1.5,6.3,3.9
		c1,1.5,1.5,3.2,1.5,4.8c0,2-0.9,3.8-2.4,4.8C54.9,43.8,53.9,44.1,52.9,44.1z M51.1,36.3c0.1,0.2,0.2,0.5,0.4,0.7
		c0.2,0.2,0.3,0.4,0.5,0.6c-0.1-0.2-0.2-0.5-0.4-0.7S51.3,36.4,51.1,36.3z"/>
	<path class="st3" d="M158.9,120c-0.7,0-1.5-0.1-2.2-0.3c-2.4-0.6-4.5-2.1-5.8-4.2c-1.3-2.1-1.7-4.7-1.1-7.1c1-4.2,4.8-7.2,9.1-7.2
		c0.7,0,1.5,0.1,2.2,0.3c5,1.2,8.1,6.3,6.9,11.3C166.9,117.1,163.2,120,158.9,120z M158.9,107.1c-1.6,0-3,1.1-3.4,2.7
		c-0.2,0.9-0.1,1.9,0.4,2.7c0.5,0.8,1.3,1.4,2.2,1.6c1.9,0.5,3.8-0.7,4.3-2.6c0.5-1.9-0.7-3.8-2.6-4.3
		C159.4,107.1,159.1,107.1,158.9,107.1z"/>
	<path class="st3" d="M251,160.2c-0.5,0-1-0.1-1.6-0.2c-1.7-0.4-3.1-1.5-4-3c-0.9-1.5-1.2-3.3-0.8-4.9c0.7-2.9,3.3-5,6.4-5
		c0.5,0,1,0.1,1.6,0.2c3.5,0.9,5.7,4.4,4.8,7.9C256.7,158.1,254.1,160.2,251,160.2z M251,152.9c-0.3,0-0.6,0.2-0.7,0.5
		c-0.1,0.2,0,0.4,0.1,0.5s0.2,0.3,0.4,0.3c0.3,0.1,0.7-0.1,0.9-0.5c0.1-0.4-0.1-0.8-0.5-0.9C251.1,152.9,251.1,152.9,251,152.9z"/>
	<path class="st3" d="M271.2,142.1c-0.5,0-1-0.1-1.6-0.2c-1.7-0.4-3.1-1.5-4-3c-0.9-1.5-1.2-3.3-0.8-4.9c0.7-2.9,3.3-5,6.4-5
		c0.5,0,1,0.1,1.6,0.2c3.5,0.9,5.7,4.4,4.8,7.9C276.8,140,274.2,142.1,271.2,142.1z M271.1,134.8c-0.3,0-0.6,0.2-0.7,0.5
		c-0.1,0.2,0,0.4,0.1,0.5s0.2,0.3,0.4,0.3c0.3,0.1,0.7-0.1,0.9-0.5c0.1-0.4-0.1-0.8-0.5-0.9C271.3,134.8,271.2,134.8,271.1,134.8z"
		/>
	<path class="st3" d="M124.9,170.4c-0.5,0-1-0.1-1.6-0.2c-1.7-0.4-3.1-1.5-4-3c-0.9-1.5-1.2-3.3-0.8-4.9c0.7-2.9,3.3-5,6.4-5
		c0.5,0,1,0.1,1.6,0.2c1.7,0.4,3.1,1.5,4,3s1.2,3.3,0.8,4.9C130.6,168.4,127.9,170.4,124.9,170.4z M124.9,163.2
		c-0.3,0-0.6,0.2-0.7,0.5c-0.1,0.2,0,0.4,0.1,0.5s0.2,0.3,0.4,0.3c0.3,0.1,0.8-0.1,0.9-0.5c0.1-0.2,0-0.4-0.1-0.5s-0.2-0.3-0.4-0.3
		C125,163.2,125,163.2,124.9,163.2z"/>
	<path class="st3" d="M211.2,188.3c-0.5,0-1-0.1-1.6-0.2c-1.7-0.4-3.1-1.5-4-3s-1.2-3.3-0.8-4.9c0.7-2.9,3.3-5,6.4-5
		c0.5,0,1,0.1,1.6,0.2c1.7,0.4,3.1,1.5,4,3c0.9,1.5,1.2,3.3,0.8,4.9C216.9,186.2,214.3,188.3,211.2,188.3z M211.2,181
		c-0.3,0-0.6,0.2-0.7,0.5c-0.1,0.2,0,0.4,0.1,0.5s0.2,0.3,0.4,0.3c0.3,0.1,0.7-0.1,0.9-0.5c0.1-0.2,0-0.4-0.1-0.5
		c-0.1-0.1-0.2-0.3-0.4-0.3C211.4,181,211.3,181,211.2,181z"/>
	<path class="st3" d="M405.7,311.7c-0.5,0-1-0.1-1.6-0.2c-1.7-0.4-3.1-1.5-4-3c-0.9-1.5-1.2-3.3-0.8-4.9c0.7-2.9,3.3-5,6.4-5
		c0.5,0,1,0.1,1.6,0.2c3.5,0.9,5.7,4.4,4.8,7.9C411.3,309.7,408.7,311.7,405.7,311.7z M405.7,304.5c-0.3,0-0.6,0.2-0.7,0.5
		c-0.1,0.2,0,0.4,0.1,0.5s0.2,0.3,0.4,0.3c0.3,0.1,0.7-0.1,0.9-0.5c0.1-0.4-0.1-0.8-0.5-0.9C405.8,304.5,405.8,304.5,405.7,304.5z"
		/>
	<path class="st3" d="M431.2,188.2c-0.5,0-1-0.1-1.6-0.2c-1.7-0.4-3.1-1.5-4-3c-0.9-1.5-1.2-3.3-0.8-4.9c0.7-2.9,3.3-5,6.4-5
		c0.5,0,1,0.1,1.6,0.2c1.7,0.4,3.1,1.5,4,3c0.9,1.5,1.2,3.3,0.8,4.9C436.8,186.2,434.2,188.2,431.2,188.2z M431.2,181
		c-0.3,0-0.6,0.2-0.7,0.5c-0.1,0.2,0,0.4,0.1,0.5s0.2,0.3,0.4,0.3c0.3,0.1,0.7-0.1,0.9-0.5c0.1-0.2,0-0.4-0.1-0.5
		c-0.1-0.1-0.2-0.3-0.4-0.3C431.3,181,431.2,181,431.2,181z"/>
	<path class="st3" d="M165.9,278c-0.5,0-1-0.1-1.6-0.2c-1.7-0.4-3.1-1.5-4-3c-0.9-1.5-1.2-3.3-0.8-4.9c0.7-2.9,3.3-5,6.4-5
		c0.5,0,1,0.1,1.6,0.2c1.7,0.4,3.1,1.5,4,3s1.2,3.3,0.8,4.9C171.5,276,168.9,278,165.9,278z M165.9,270.8c-0.3,0-0.6,0.2-0.7,0.5
		c-0.1,0.2,0,0.4,0.1,0.5c0.1,0.1,0.2,0.3,0.4,0.3c0.3,0.1,0.7-0.1,0.9-0.5c0.1-0.2,0-0.4-0.1-0.5s-0.2-0.3-0.4-0.3
		C166,270.8,166,270.8,165.9,270.8z"/>
	<path class="st3" d="M114.6,89.5c-0.5,0-1-0.1-1.4-0.2c-1.8-0.4-3.2-1.6-4.1-3.3c-0.8-1.6-1-3.4-0.5-5.2c0.8-3.3,3.5-5.6,6.6-5.6
		c0.5,0,1,0.1,1.4,0.2c3.5,0.9,5.6,4.7,4.6,8.5C120.4,87.2,117.7,89.5,114.6,89.5z M115.2,81c-0.3,0-0.8,0.4-1,1.1
		c-0.1,0.4-0.1,0.9,0.1,1.2c0.1,0.1,0.2,0.3,0.3,0.3l0,0c0.2,0,0.8-0.4,0.9-1.1C115.7,81.6,115.4,81.1,115.2,81
		C115.2,81,115.2,81,115.2,81z"/>
	<path class="st3" d="M94.2,115.6c-0.5,0-1-0.1-1.4-0.2c-1.8-0.4-3.2-1.6-4.1-3.3c-0.8-1.6-1-3.4-0.5-5.2c0.8-3.3,3.5-5.6,6.6-5.6
		c0.5,0,1,0.1,1.4,0.2c3.5,0.9,5.6,4.7,4.6,8.5C100,113.3,97.3,115.6,94.2,115.6z M94.8,107.1c-0.3,0-0.8,0.4-1,1.1
		c-0.1,0.4-0.1,0.9,0.1,1.2c0.1,0.1,0.2,0.3,0.3,0.3l0,0c0.2,0,0.8-0.4,0.9-1.1C95.3,107.8,95,107.2,94.8,107.1
		C94.8,107.1,94.8,107.1,94.8,107.1z"/>
	<path class="st3" d="M251.5,131.7c-0.7,0-1.5-0.1-2.2-0.3c-2.4-0.6-4.5-2.1-5.8-4.2c-1.3-2.1-1.7-4.7-1.1-7.1
		c1-4.2,4.8-7.2,9.1-7.2c0.7,0,1.5,0.1,2.2,0.3c2.4,0.6,4.5,2.1,5.8,4.2c1.3,2.1,1.7,4.7,1.1,7.1
		C259.6,128.8,255.8,131.7,251.5,131.7z M251.5,118.8c-1.6,0-3,1.1-3.4,2.7c-0.2,0.9-0.1,1.9,0.4,2.7c0.5,0.8,1.3,1.4,2.2,1.6
		c1.9,0.5,3.8-0.7,4.3-2.6c0.2-0.9,0.1-1.9-0.4-2.7c-0.5-0.8-1.3-1.4-2.2-1.6C252.1,118.8,251.8,118.8,251.5,118.8z"/>
	<path class="st3" d="M201.1,156.8c-0.7,0-1.5-0.1-2.2-0.3c-5-1.2-8.1-6.3-6.9-11.3c1-4.2,4.8-7.2,9.1-7.2c0.7,0,1.5,0.1,2.2,0.3
		c2.4,0.6,4.5,2.1,5.8,4.2c1.3,2.1,1.7,4.7,1.1,7.1C209.2,153.9,205.4,156.8,201.1,156.8z M201.1,143.9c-1.6,0-3,1.1-3.4,2.7
		c-0.5,1.9,0.7,3.8,2.6,4.3c0.3,0.1,0.6,0.1,0.8,0.1c1.6,0,3-1.1,3.4-2.7c0.2-0.9,0.1-1.9-0.4-2.7c-0.5-0.8-1.3-1.4-2.2-1.6
		C201.6,143.9,201.4,143.9,201.1,143.9z"/>
	<path class="st3" d="M170.5,314.6c-0.7,0-1.5-0.1-2.2-0.3c-2.4-0.6-4.5-2.1-5.8-4.2c-1.3-2.1-1.7-4.7-1.1-7.1
		c1-4.2,4.8-7.2,9.1-7.2c0.7,0,1.5,0.1,2.2,0.3c2.4,0.6,4.5,2.1,5.8,4.2c1.3,2.1,1.7,4.7,1.1,7.1
		C178.6,311.6,174.9,314.6,170.5,314.6z M170.5,301.7c-1.6,0-3,1.1-3.4,2.7c-0.2,0.9-0.1,1.9,0.4,2.7c0.5,0.8,1.3,1.4,2.2,1.6
		c1.9,0.5,3.8-0.7,4.3-2.6c0.2-0.9,0.1-1.9-0.4-2.7c-0.5-0.8-1.3-1.4-2.2-1.6C171.1,301.7,170.8,301.7,170.5,301.7z"/>
	<path class="st3" d="M159.5,160.6c-0.7,0-1.5-0.1-2.2-0.3c-5-1.2-8.1-6.3-6.9-11.3c1-4.2,4.8-7.2,9.1-7.2c0.7,0,1.5,0.1,2.2,0.3
		c2.4,0.6,4.5,2.1,5.8,4.2c1.3,2.1,1.7,4.7,1.1,7.1C167.5,157.7,163.8,160.6,159.5,160.6z M159.4,147.7c-1.6,0-3,1.1-3.4,2.7
		c-0.5,1.9,0.7,3.8,2.6,4.3c0.3,0.1,0.6,0.1,0.8,0.1c1.6,0,3-1.1,3.4-2.7c0.2-0.9,0.1-1.9-0.4-2.7c-0.5-0.8-1.3-1.4-2.2-1.6
		C160,147.7,159.7,147.7,159.4,147.7z"/>
	<path class="st3" d="M181.5,135.2c-1.1,0-2.2-0.1-3.3-0.4c-5.2-1.3-8.4-4.9-7.6-8.5c0.7-2.8,3.5-4.5,7.4-4.5c1.1,0,2.2,0.1,3.3,0.4
		c5.2,1.3,8.4,4.9,7.6,8.5C188.2,133.5,185.4,135.2,181.5,135.2z M176.8,127.8c0.5,0.4,1.4,1,2.9,1.4c1.2,0.3,2.5,0.3,3.2,0.1
		c-0.5-0.4-1.4-1-2.9-1.4C178.7,127.6,177.4,127.6,176.8,127.8z"/>
	<path class="st3" d="M133.3,104.9c-4.4,0-8-2.7-8.7-6.5c-0.9-4.5,2.5-9,7.6-10c0.7-0.1,1.4-0.2,2.1-0.2c4.4,0,8,2.7,8.7,6.5
		c0.9,4.5-2.5,9-7.6,10C134.7,104.8,134,104.9,133.3,104.9z M134.2,93.9c-0.3,0-0.6,0-0.9,0.1c-1.9,0.4-3.2,1.8-3,3.1
		c0.3,1.3,2.1,2.1,4,1.7c1.9-0.4,3.2-1.8,3-3.1C137,94.7,135.8,93.9,134.2,93.9z"/>
	<path class="st3" d="M229.3,163c-3.2,0-6.2-2.9-7.5-7.3c-0.6-2.1-0.8-4.3-0.4-6.1c0.5-2.4,1.9-4.1,3.9-4.7c0.5-0.1,0.9-0.2,1.4-0.2
		c3.2,0,6.2,2.9,7.5,7.3c1.5,5.1,0,9.8-3.5,10.9C230.3,162.9,229.8,163,229.3,163z M227.2,150.9c-0.1,0.7-0.2,1.8,0.3,3.2
		c0.4,1.4,1.1,2.3,1.5,2.8c0.1-0.7,0.2-1.8-0.3-3.2C228.3,152.2,227.6,151.3,227.2,150.9z"/>
	<path class="st3" d="M109.1,147.7c-1.1,0-2.2-0.1-3.3-0.4c-5.2-1.3-8.4-4.9-7.6-8.5c0.7-2.8,3.5-4.5,7.4-4.5c1.1,0,2.2,0.1,3.3,0.4
		c5.2,1.3,8.4,4.9,7.6,8.5C115.8,146,112.9,147.7,109.1,147.7z M104.3,140.2c0.5,0.4,1.4,1,2.9,1.4c1.2,0.3,2.5,0.3,3.2,0.1
		c-0.5-0.4-1.4-1-2.9-1.4C106.3,140,105,140.1,104.3,140.2z"/>
	<path class="st3" d="M220.6,132.6c-6.9,0-12.1-3.3-12.3-7.9c-0.1-2.5,1.4-5,4.1-6.6c2.2-1.4,5.2-2.2,8.3-2.3
		c7.3-0.3,13,3.1,13.2,7.8c0.1,2.5-1.4,5-4.1,6.6c-2.2,1.4-5.2,2.2-8.3,2.3C221.2,132.6,220.9,132.6,220.6,132.6z M221.7,121.6
		c-0.2,0-0.4,0-0.7,0c-2.1,0.1-4.2,0.6-5.5,1.5c-1,0.6-1.4,1.2-1.3,1.4c0,0.5,2.1,2.3,6.4,2.3c0.2,0,0.4,0,0.7,0
		c2.1-0.1,4.2-0.6,5.5-1.5c1-0.6,1.4-1.2,1.3-1.4C228.2,123.3,226.1,121.6,221.7,121.6z"/>
	<path class="st3" d="M155.7,254.3c-6.9,0-12.1-3.3-12.3-7.9c-0.1-2.5,1.4-5,4.1-6.6c2.2-1.4,5.2-2.2,8.3-2.3
		c7.3-0.3,13,3.1,13.2,7.8c0.1,2.5-1.4,5-4.1,6.6c-2.2,1.4-5.2,2.2-8.3,2.3C156.3,254.3,156,254.3,155.7,254.3z M156.8,243.3
		c-0.2,0-0.4,0-0.7,0c-2.1,0.1-4.2,0.6-5.5,1.5c-1,0.6-1.4,1.2-1.3,1.4c0,0.5,2.1,2.3,6.4,2.3c0.2,0,0.4,0,0.7,0
		c2.1-0.1,4.2-0.6,5.5-1.5c1-0.6,1.4-1.2,1.3-1.4C163.2,245,161.2,243.3,156.8,243.3z"/>
	<path class="st3" d="M142,139.7c-3.2,0-6.3-1.9-8.1-4.9c-1.2-2.1-1.7-4.5-1.3-6.7c0.4-2.4,1.8-4.4,3.8-5.6c1.2-0.7,2.5-1,3.9-1
		c3.2,0,6.3,1.9,8.1,4.9c2.6,4.5,1.5,10-2.5,12.3C144.7,139.3,143.3,139.7,142,139.7z M140.3,127.2c-0.3,0-0.6,0.1-0.9,0.2
		c-0.7,0.4-0.9,1.1-1,1.5c-0.2,0.9,0.1,1.9,0.6,2.8c0.8,1.4,2.1,2,3,2c0.3,0,0.6-0.1,0.9-0.2c1.2-0.7,1.4-2.7,0.4-4.3
		C142.5,127.9,141.2,127.2,140.3,127.2z"/>
	<path class="st3" d="M192,114.5c-0.3,0-0.7,0-1,0c-5.3-0.4-9.2-3.4-8.9-7.1c0.3-3.7,4.4-6.2,9.8-5.8c5.3,0.4,9.2,3.4,8.9,7.1
		C200.5,112.1,196.9,114.5,192,114.5z M188.3,107.8c0.6,0.4,1.6,0.8,3,0.9c1.4,0.1,2.5-0.2,3.1-0.4c-0.6-0.3-1.6-0.8-3-0.9
		c-0.2,0-0.4,0-0.6,0C189.7,107.4,188.8,107.6,188.3,107.8z"/>
	<path class="st3" d="M374.8,147.5c-0.5,0-1-0.1-1.6-0.2c-1.7-0.4-3.1-1.5-4-3c-0.9-1.5-1.2-3.3-0.8-4.9c0.7-2.9,3.3-5,6.4-5
		c0.5,0,1,0.1,1.6,0.2c1.7,0.4,3.1,1.5,4,3c0.9,1.5,1.2,3.3,0.8,4.9C380.4,145.4,377.8,147.5,374.8,147.5z M374.8,140.2
		c-0.3,0-0.6,0.2-0.7,0.5c-0.1,0.2,0,0.4,0.1,0.5s0.2,0.3,0.4,0.3c0.3,0.1,0.7-0.1,0.9-0.5c0.1-0.2,0-0.4-0.1-0.5s-0.2-0.3-0.4-0.3
		C374.9,140.2,374.8,140.2,374.8,140.2z"/>
	<path class="st3" d="M354.7,131.2c-0.5,0-1-0.1-1.6-0.2c-3.5-0.9-5.7-4.4-4.8-7.9c0.7-2.9,3.3-5,6.4-5c0.5,0,1,0.1,1.6,0.2
		c1.7,0.4,3.1,1.5,4,3c0.9,1.5,1.2,3.2,0.8,4.9C360.4,129.2,357.7,131.2,354.7,131.2z M354.7,124c-0.3,0-0.6,0.2-0.7,0.5
		c-0.1,0.4,0.1,0.8,0.5,0.9c0.3,0.1,0.7-0.1,0.9-0.5c0.1-0.4-0.1-0.8-0.5-0.9C354.8,124,354.8,124,354.7,124z"/>
	<path class="st3" d="M342.3,113.8c-0.7,0-1.5-0.1-2.2-0.3c-2.4-0.6-4.5-2.1-5.8-4.2c-1.3-2.1-1.7-4.7-1.1-7.1
		c1-4.2,4.8-7.2,9.1-7.2c0.7,0,1.5,0.1,2.2,0.3c5,1.2,8.1,6.3,6.9,11.3C350.4,110.9,346.6,113.8,342.3,113.8z M342.3,100.9
		c-1.6,0-3,1.1-3.4,2.7c-0.2,0.9-0.1,1.9,0.4,2.7s1.3,1.4,2.2,1.6c0.3,0.1,0.6,0.1,0.8,0.1c1.6,0,3-1.1,3.4-2.7
		c0.5-1.9-0.7-3.8-2.6-4.3C342.8,100.9,342.6,100.9,342.3,100.9z"/>
	<path class="st3" d="M302.4,147.2c-0.7,0-1.5-0.1-2.2-0.3c-5-1.2-8.1-6.3-6.9-11.3c1-4.2,4.8-7.2,9.1-7.2c0.7,0,1.5,0.1,2.2,0.3
		c2.4,0.6,4.5,2.1,5.8,4.2s1.7,4.7,1.1,7.1C310.5,144.3,306.7,147.2,302.4,147.2z M302.4,134.3c-1.6,0-3,1.1-3.4,2.7
		c-0.5,1.9,0.7,3.8,2.6,4.3c1.9,0.5,3.8-0.7,4.3-2.6c0.2-0.9,0.1-1.9-0.4-2.7c-0.5-0.8-1.3-1.4-2.2-1.6
		C303,134.3,302.7,134.3,302.4,134.3z"/>
	<path class="st3" d="M282.9,125.6c-1.1,0-2.2-0.1-3.3-0.4c-2.1-0.5-4.1-1.5-5.5-2.8c-1.8-1.7-2.6-3.8-2.1-5.7
		c0.7-2.8,3.5-4.5,7.4-4.5c1.1,0,2.2,0.1,3.3,0.4c2.1,0.5,4.1,1.5,5.5,2.8c1.8,1.7,2.6,3.8,2.1,5.7
		C289.5,123.9,286.7,125.6,282.9,125.6z M278.1,118.2c0.5,0.4,1.4,1,2.9,1.4c1.2,0.3,2.5,0.3,3.2,0.1c-0.5-0.4-1.4-1-2.9-1.4
		C280,118,278.7,118,278.1,118.2z"/>
	<path class="st3" d="M249.2,192.1c-1.1,0-2.2-0.1-3.3-0.4c-5.2-1.3-8.4-4.9-7.6-8.5c0.7-2.8,3.5-4.5,7.4-4.5c1.1,0,2.2,0.1,3.3,0.4
		c5.2,1.3,8.4,4.9,7.6,8.5C255.8,190.3,253,192.1,249.2,192.1z M244.4,184.6c0.5,0.4,1.4,1,2.9,1.4c1.2,0.3,2.5,0.3,3.2,0.1
		c-0.5-0.4-1.4-1-2.9-1.4C246.3,184.4,245,184.5,244.4,184.6z"/>
	<path class="st3" d="M333.4,158.6c-1.1,0-2.2-0.3-3-0.9c-1.7-1.2-2.5-3.3-2.2-5.7c0.2-1.9,1-3.9,2.3-5.7c2.1-3,5.1-4.8,7.7-4.8
		c1.1,0,2.2,0.3,3,0.9c3,2.1,3,7-0.1,11.4C339,156.7,336.1,158.6,333.4,158.6z M337.6,147.5c-0.6,0.3-1.5,1-2.3,2.1
		c-0.8,1.2-1.2,2.2-1.3,2.9c0.6-0.3,1.5-1,2.3-2.1C337.2,149.2,337.5,148.1,337.6,147.5z"/>
	<path class="st3" d="M428.7,243.3c-1.1,0-2.2-0.3-3-0.9c-1.7-1.2-2.5-3.3-2.2-5.7c0.2-1.9,1-3.9,2.3-5.7c2.1-3,5.1-4.8,7.7-4.8
		c1.1,0,2.2,0.3,3,0.9c1.7,1.2,2.5,3.3,2.2,5.7c-0.2,1.9-1,3.9-2.3,5.7C434.3,241.4,431.4,243.3,428.7,243.3z M433,232.2
		c-0.6,0.3-1.5,1-2.3,2.1c-0.8,1.2-1.2,2.2-1.3,2.9c0.6-0.3,1.5-1,2.3-2.1S432.9,232.8,433,232.2z"/>
	<path class="st3" d="M163.5,197.7c-1.1,0-2.2-0.3-3-0.9c-3-2.1-3-7,0.1-11.4c2.1-3,5.1-4.8,7.7-4.8c1.1,0,2.2,0.3,3,0.9
		c1.7,1.2,2.5,3.3,2.2,5.7c-0.2,1.9-1,3.9-2.3,5.7C169.1,195.9,166.1,197.7,163.5,197.7z M167.7,186.6c-0.6,0.3-1.5,1-2.3,2.1
		c-0.8,1.2-1.2,2.2-1.3,2.9c0.6-0.3,1.5-1,2.3-2.1S167.6,187.3,167.7,186.6z"/>
	<path class="st3" d="M308.3,116.5c-6.9,0-12.1-3.3-12.3-7.9c-0.1-2.5,1.4-5,4.1-6.6c2.2-1.4,5.2-2.2,8.3-2.3
		c7.4-0.3,13,3.1,13.2,7.8c0.1,2.5-1.4,5-4.1,6.6c-2.2,1.4-5.2,2.2-8.3,2.3C308.9,116.5,308.6,116.5,308.3,116.5z M309.4,105.4
		c-0.2,0-0.4,0-0.7,0c-2.1,0.1-4.2,0.6-5.5,1.5c-1,0.6-1.4,1.2-1.3,1.4c0,0.5,2.1,2.3,6.4,2.3c0.2,0,0.4,0,0.7,0
		c2.1-0.1,4.2-0.6,5.5-1.5c1-0.6,1.4-1.2,1.3-1.4C315.8,107.2,313.8,105.4,309.4,105.4z"/>
	<path class="st3" d="M281.7,166.8c-0.3,0-0.7,0-1,0c-5.3-0.4-9.2-3.4-8.9-7.1c0.3-3.7,4.4-6.2,9.8-5.8c2.2,0.2,4.3,0.8,5.9,1.8
		c2.1,1.3,3.2,3.3,3,5.3C290.2,164.4,286.6,166.8,281.7,166.8z M278,160.1c0.6,0.4,1.6,0.8,3,0.9c1.4,0.1,2.5-0.2,3.1-0.4
		c-0.6-0.4-1.6-0.8-3-0.9C279.7,159.5,278.6,159.8,278,160.1z"/>
	<path class="st3" d="M340.6,237.1c-0.5,0-1-0.1-1.6-0.2c-1.7-0.4-3.1-1.5-4-3c-0.9-1.5-1.2-3.3-0.8-4.9c0.7-2.9,3.3-5,6.4-5
		c0.5,0,1,0.1,1.6,0.2c1.7,0.4,3.1,1.5,4,3c0.9,1.5,1.2,3.3,0.8,4.9C346.3,235.1,343.7,237.1,340.6,237.1z M340.6,229.9
		c-0.3,0-0.6,0.2-0.7,0.5c-0.1,0.2,0,0.4,0.1,0.5s0.2,0.3,0.4,0.3c0.3,0.1,0.7-0.1,0.9-0.5c0.1-0.4-0.1-0.8-0.5-0.9
		C340.8,229.9,340.7,229.9,340.6,229.9z"/>
	<path class="st3" d="M360.8,219c-0.5,0-1-0.1-1.6-0.2c-1.7-0.4-3.1-1.5-4-3c-0.9-1.5-1.2-3.3-0.8-4.9c0.7-2.9,3.3-5,6.4-5
		c0.5,0,1,0.1,1.6,0.2c3.5,0.9,5.7,4.4,4.8,7.9C366.4,217,363.8,219,360.8,219z M360.8,211.8c-0.3,0-0.6,0.2-0.7,0.5
		c-0.1,0.2,0,0.4,0.1,0.5s0.2,0.3,0.4,0.3c0.3,0.1,0.7-0.1,0.9-0.5c0.1-0.4-0.1-0.8-0.5-0.9C360.9,211.8,360.8,211.8,360.8,211.8z"
		/>
	<path class="st3" d="M330.5,272.6c-0.5,0-1-0.1-1.6-0.2c-1.7-0.4-3.1-1.5-4-3c-0.9-1.5-1.2-3.3-0.8-4.9c0.7-2.9,3.3-5,6.4-5
		c0.5,0,1,0.1,1.6,0.2c1.7,0.4,3.1,1.5,4,3c0.9,1.5,1.2,3.3,0.8,4.9C336.2,270.6,333.6,272.6,330.5,272.6z M330.5,265.4
		c-0.3,0-0.6,0.2-0.7,0.5c-0.1,0.2,0,0.4,0.1,0.5c0.1,0.1,0.2,0.3,0.4,0.3c0.3,0.1,0.7-0.1,0.9-0.5c0.1-0.4-0.1-0.8-0.5-0.9
		C330.7,265.4,330.6,265.4,330.5,265.4z"/>
	<path class="st3" d="M341.1,208.7c-0.7,0-1.5-0.1-2.2-0.3c-2.4-0.6-4.5-2.1-5.8-4.2c-1.3-2.1-1.7-4.7-1.1-7.1
		c1-4.2,4.8-7.2,9.1-7.2c0.7,0,1.5,0.1,2.2,0.3c2.4,0.6,4.5,2.1,5.8,4.2c1.3,2.1,1.7,4.7,1.1,7.1
		C349.2,205.7,345.4,208.7,341.1,208.7z M341.1,195.7c-1.6,0-3,1.1-3.4,2.7c-0.2,0.9-0.1,1.9,0.4,2.7c0.5,0.8,1.3,1.4,2.2,1.6
		c1.9,0.5,3.8-0.7,4.3-2.6c0.2-0.9,0.1-1.9-0.4-2.7c-0.5-0.8-1.3-1.4-2.2-1.6C341.7,195.8,341.4,195.7,341.1,195.7z"/>
	<path class="st3" d="M392,277.2c-0.7,0-1.5-0.1-2.2-0.3c-5-1.2-8.1-6.3-6.9-11.3c1-4.2,4.8-7.2,9.1-7.2c0.7,0,1.5,0.1,2.2,0.3
		c2.4,0.6,4.5,2.1,5.8,4.2c1.3,2.1,1.7,4.7,1.1,7.1C400.1,274.3,396.4,277.2,392,277.2z M392,264.3c-1.6,0-3,1.1-3.4,2.7
		c-0.5,1.9,0.7,3.8,2.6,4.3c0.3,0.1,0.6,0.1,0.8,0.1c1.6,0,3-1.1,3.4-2.7c0.2-0.9,0.1-1.9-0.4-2.7c-0.5-0.8-1.3-1.4-2.2-1.6
		C392.6,264.4,392.3,264.3,392,264.3z"/>
	<path class="st3" d="M419.9,157.5c-0.7,0-1.5-0.1-2.2-0.3c-5-1.2-8.1-6.3-6.9-11.3c1-4.2,4.8-7.2,9.1-7.2c0.7,0,1.5,0.1,2.2,0.3
		c2.4,0.6,4.5,2.1,5.8,4.2s1.7,4.7,1.1,7.1C428,154.6,424.2,157.5,419.9,157.5z M419.9,144.6c-1.6,0-3,1.1-3.4,2.7
		c-0.5,1.9,0.7,3.8,2.6,4.3c0.3,0.1,0.6,0.1,0.8,0.1c1.6,0,3-1.1,3.4-2.7c0.2-0.9,0.1-1.9-0.4-2.7c-0.5-0.8-1.3-1.4-2.2-1.6
		C420.5,144.6,420.2,144.6,419.9,144.6z"/>
	<path class="st3" d="M372.5,202.6c-1.1,0-2.2-0.1-3.3-0.4c-2.1-0.5-4.1-1.5-5.5-2.8c-1.8-1.7-2.6-3.8-2.1-5.7
		c0.7-2.8,3.5-4.5,7.4-4.5c1.1,0,2.2,0.1,3.3,0.4c2.1,0.5,4.1,1.5,5.5,2.8c1.8,1.7,2.6,3.8,2.1,5.7
		C379.2,200.8,376.3,202.6,372.5,202.6z M367.7,195.1c0.5,0.4,1.4,1,2.9,1.4c1.2,0.3,2.5,0.3,3.2,0.1c-0.5-0.4-1.4-1-2.9-1.4
		C369.6,194.9,368.4,195,367.7,195.1z"/>
	<path class="st3" d="M366,172.6c-1.1,0-2.2-0.1-3.3-0.4c-5.2-1.3-8.4-4.9-7.6-8.5c0.7-2.8,3.5-4.5,7.4-4.5c1.1,0,2.2,0.1,3.3,0.4
		c5.2,1.3,8.4,4.9,7.6,8.5C372.7,170.9,369.9,172.6,366,172.6z M361.3,165.1c0.5,0.4,1.4,1,2.9,1.4c1.2,0.3,2.5,0.3,3.2,0.1
		c-0.5-0.4-1.4-1-2.9-1.4C363.2,164.9,361.9,165,361.3,165.1z"/>
	<path class="st3" d="M396.1,139.8c-1.1,0-2.2-0.1-3.3-0.4c-2.1-0.5-4.1-1.5-5.5-2.8c-1.8-1.7-2.6-3.8-2.1-5.7
		c0.7-2.8,3.5-4.5,7.4-4.5c1.1,0,2.2,0.1,3.3,0.4c2.1,0.5,4.1,1.5,5.5,2.8c1.8,1.7,2.6,3.8,2.1,5.7
		C402.8,138.1,400,139.8,396.1,139.8z M391.3,132.4c0.5,0.4,1.4,1,2.9,1.4c1.2,0.3,2.5,0.3,3.2,0.1c-0.5-0.4-1.4-1-2.9-1.4
		C393.3,132.2,392,132.2,391.3,132.4z"/>
	<path class="st3" d="M308.3,186.5c-6.9,0-12.1-3.3-12.3-7.9c-0.1-2.5,1.4-5,4.1-6.6c2.2-1.4,5.2-2.2,8.3-2.3
		c7.4-0.3,13,3.1,13.2,7.8c0.1,2.5-1.4,5-4.1,6.6c-2.2,1.4-5.2,2.2-8.3,2.3C308.9,186.5,308.6,186.5,308.3,186.5z M309.4,175.5
		c-0.2,0-0.4,0-0.7,0c-2.1,0.1-4.2,0.6-5.5,1.5c-1,0.6-1.4,1.2-1.3,1.4c0,0.5,2.1,2.3,6.4,2.3c0.2,0,0.4,0,0.7,0
		c2.1-0.1,4.2-0.6,5.5-1.5c1-0.6,1.4-1.2,1.3-1.4C315.8,177.3,313.8,175.5,309.4,175.5z"/>
	<path class="st3" d="M371.3,243.8c-0.3,0-0.7,0-1,0c-5.3-0.4-9.2-3.4-8.9-7.1c0.3-3.7,4.4-6.2,9.8-5.8c2.2,0.2,4.3,0.8,5.9,1.8
		c2.1,1.3,3.2,3.3,3,5.3C379.8,241.3,376.2,243.8,371.3,243.8z M367.6,237c0.6,0.4,1.6,0.8,3,0.9c1.4,0.1,2.5-0.2,3.1-0.4
		c-0.6-0.4-1.6-0.8-3-0.9C369.4,236.5,368.2,236.8,367.6,237z"/>
	<path class="st3" d="M201.6,220c-0.3,0-0.7,0-1,0c-5.3-0.4-9.2-3.4-8.9-7.1c0.3-3.7,4.4-6.2,9.8-5.8c5.3,0.4,9.2,3.4,8.9,7.1
		C210.2,217.6,206.6,220,201.6,220z M198,213.3c0.6,0.3,1.6,0.8,3,0.9c1.4,0.1,2.5-0.2,3.1-0.4c-0.6-0.4-1.6-0.8-3-0.9
		c-0.2,0-0.4,0-0.6,0C199.3,212.8,198.5,213,198,213.3z"/>
	<path class="st3" d="M121.3,290c-1.2,0-2.3-0.3-3.3-0.9c-3.1-1.8-4.1-5.9-2.3-9c1.2-2,3.3-3.2,5.6-3.2c1.2,0,2.3,0.3,3.3,0.9
		c1.5,0.9,2.6,2.3,3,4c0.4,1.7,0.2,3.5-0.7,5C125.8,288.8,123.6,290,121.3,290z M121.3,282.8c-0.1,0-0.4,0-0.6,0.3
		c-0.2,0.3-0.1,0.8,0.2,1c0.1,0.1,0.2,0.1,0.4,0.1c0.1,0,0.4,0,0.6-0.3c0.1-0.2,0.1-0.4,0.1-0.5c0-0.1-0.1-0.3-0.3-0.4
		C121.5,282.8,121.4,282.8,121.3,282.8z"/>
	<path class="st3" d="M102.3,326.2c-1.8,0-3.6-0.5-5.1-1.5c-4.3-2.8-5.6-8.6-2.8-13c1.7-2.7,4.7-4.3,7.9-4.3c1.8,0,3.6,0.5,5.1,1.5
		c2.1,1.4,3.5,3.5,4.1,5.9c0.5,2.4,0.1,5-1.3,7.1C108.5,324.6,105.5,326.2,102.3,326.2z M102.4,313.3c-1.2,0-2.3,0.6-3,1.6
		c-1.1,1.6-0.6,3.8,1,4.9c0.6,0.4,1.2,0.6,1.9,0.6c1.2,0,2.3-0.6,3-1.6c0.5-0.8,0.7-1.7,0.5-2.7c-0.2-0.9-0.7-1.7-1.5-2.2
		C103.7,313.5,103,313.3,102.4,313.3z"/>
	<path class="st3" d="M130.2,207.2c-2,0-4.3-0.7-6.4-2.1c-1.9-1.2-3.4-2.8-4.2-4.4c-1.2-2.2-1.2-4.4-0.1-6.1c1-1.6,2.8-2.4,5-2.4
		c2,0,4.3,0.7,6.4,2.1c1.9,1.2,3.4,2.8,4.2,4.4c1.2,2.2,1.2,4.4,0.1,6.1C134.2,206.3,132.4,207.2,130.2,207.2z M124.8,198
		c0.3,0.6,1,1.4,2.2,2.2c1.2,0.8,2.2,1.1,3,1.1c-0.3-0.6-1-1.4-2.2-2.2C126.6,198.3,125.5,198,124.8,198z"/>
	<path class="st3" d="M109.9,266.8c-3.1,0-5.6-1.2-6.9-3.4c-2.4-4.2,0.6-10,7-13.7c2.8-1.6,5.8-2.5,8.5-2.5c3.1,0,5.6,1.2,6.9,3.4
		c2.4,4.2-0.6,10.1-7,13.7C115.6,265.9,112.6,266.8,109.9,266.8z M118.5,253.1c-1.6,0-3.7,0.6-5.6,1.7c-3.9,2.2-5.1,5.2-4.8,5.7
		c0.1,0.2,0.6,0.5,1.8,0.5c1.6,0,3.7-0.6,5.6-1.7c3.9-2.2,5.1-5.2,4.8-5.7C120.2,253.4,119.7,253.1,118.5,253.1z"/>
	<path class="st3" d="M93,354.4c-2,0-3.7-0.8-4.8-2.2c-1.2-1.7-1.2-3.9-0.2-6.1c0.8-1.7,2.3-3.3,4.1-4.6c2.1-1.5,4.5-2.4,6.6-2.4
		c2,0,3.7,0.8,4.8,2.2c1.2,1.7,1.2,3.9,0.2,6.1c-0.8,1.7-2.3,3.3-4.1,4.6C97.5,353.6,95.1,354.4,93,354.4z M98.4,345
		c-0.7,0.1-1.8,0.5-2.9,1.3c-1.2,0.8-1.8,1.7-2.1,2.3c0.7-0.1,1.8-0.5,2.9-1.3C97.5,346.4,98.1,345.6,98.4,345z"/>
	<path class="st3" d="M357.2,305.8c-1.6,0-3.4-0.4-5.1-1.1c-4.9-2.1-7.5-6.3-6-9.7c0.9-2.1,3.2-3.4,6.1-3.4c1.6,0,3.4,0.4,5.1,1.1
		c4.9,2.1,7.5,6.3,6,9.7C362.4,304.6,360.1,305.8,357.2,305.8z M351.9,297.5c0.4,0.5,1.2,1.3,2.6,1.8c1,0.4,1.9,0.6,2.8,0.6
		c0.1,0,0.2,0,0.3,0c-0.4-0.5-1.2-1.3-2.6-1.8c-1-0.4-1.9-0.6-2.8-0.6C352.1,297.5,352,297.5,351.9,297.5z"/>
</g>
</svg>
