<?xml version="1.0" encoding="utf-8"?>
<!-- Generator: Adobe Illustrator 26.3.1, SVG Export Plug-In . SVG Version: 6.00 Build 0)  -->
<svg version="1.1" id="Layer_1" xmlns="http://www.w3.org/2000/svg" xmlns:xlink="http://www.w3.org/1999/xlink" x="0px" y="0px"
	 viewBox="0 0 36 36" style="enable-background:new 0 0 36 36;" xml:space="preserve">
<style type="text/css">
	.st0{fill:#4AFF68;}
	.st1{fill:#FFCFB4;}
	.st2{fill:#655D5F;}
	.st3{fill:#231F20;}
</style>
<path class="st0" d="M28.7,12.8c0,0,3.8,1.6,5.5,0.4c1.7-1.2,2.1-2.8,1.2-4.7c-1-2-3.6-2.7-3.7-5.3c0,0-0.3,4.1,1.5,5.5
	c2.6,1.9-0.4,4.2-3.5,3.8C26.6,12.2,28.7,12.8,28.7,12.8z"/>
<path class="st1" d="M23.9,19.4c0,0-0.6,2.5,0.2,5c0.1,0.3,0,0.6-0.2,0.7c-0.3,0.1-4.3,1.5-4.7,1.8c-0.4,0.2-1.1,1.8-1.2,2.9
	c0.8,0.2,1.6,0.1,1.6,0.1s0-1.9,0.2-2c0.2-0.1,5.7-1,6.1-1.8s1.6-3.9,0.8-5.3c-0.2-0.4-0.6-1.1-0.6-1.1S23.9,19.4,23.9,19.4z"/>
<path class="st2" d="M17.9,29.7c0,0-0.6,2,0,2.1c0.6,0.1,1.7-0.4,1.8-0.6c0.1-0.3,0.2-1.2,0.1-1.4C19.7,29.6,17.9,29.7,17.9,29.7z"
	/>
<path class="st1" d="M11.8,21.9l-0.8-2.6c0,0-2.8,2.1-3.9,3.6c-0.3,0.4-1.8,3.2-1.7,4.4c0.1,0.5,0.5,2.6,0.5,2.6l1.7-0.5
	c0,0-1.3-1.9-1-2.6C7.9,23.6,11.8,21.9,11.8,21.9z"/>
<path class="st2" d="M7.7,29.4c-0.2-0.1-1.8,0.5-1.8,0.5s0.1,2.1,0.7,2C7.2,31.9,8.1,31,8,30.8C8,30.4,7.9,29.6,7.7,29.4z"/>
<path class="st1" d="M27.2,11.2c-3.4,0.2-7.2,0.4-9.5,0.4c-3.7,0-5.2-1.4-6.6-2.6C8.8,7,8.2,4.8,6,5.5c0,0-0.6-0.4-1.2-0.8L4.5,4.6
	C4.2,4.4,4,4.3,3.8,4.2c-0.2-0.1-0.3-0.1-0.2,0c0,0.1,0.1,0.1,0.2,0.3C4.3,5,4.5,5.4,4.6,5.9c-2,1.2-2.1,2.3-2.9,3.6
	c-0.5,0.8-1.4,2.1-1.6,2.5c-0.4,0.9,1,2.1,1.7,1.4c0.9-0.8,1-1.1,2-1.7c1,0,2-0.4,2.3-1c0,0,0.9,2.1,1.9,3.6s2.5,3.1,2.5,3.1
	c-0.1,1.2,0.1,2.2,0.5,2.9C10.8,21,10.2,22,9.8,23c-0.7,1.2-1.5,3.2-1.2,3.6c0.5,0.8,2.7,2.9,4.1,3.3c1,0.3,2.1,0.4,2.1,0.4
	l-0.2-1.6c0,0-1.3,0.2-1.9-0.1c-1.4-0.8-2.7-2.2-2.7-2.5c-0.1-0.5,3.8-2.9,5.1-3.6c2.3,0.1,6-0.4,8.6-1.7c1,1.9,3,2.5,3,2.5
	s0.7,2.2,1.4,4.1c-1,0.5-4.5,3.3-5,3.9c-0.5,0.5-0.9,2.5-0.9,2.5c0.8,0.4,1.6,0.2,1.6,0.2s0-1.6,0.4-2.1s4.7-2.6,6-3.5
	c0.5-0.4,0.4-0.9,0.3-1.6c-0.3-1.5-1-4.8-1-4.8C34.7,19.1,36,10.8,27.2,11.2z"/>
<path class="st2" d="M22.3,33.8c0,0-0.6,2,0,2.1c0.6,0.1,1.7-0.4,1.8-0.6c0.1-0.3,0.2-1.2,0.1-1.4S22.3,33.8,22.3,33.8z M14.7,28.5
	c-0.2,0.1,0.2,1.9,0.2,1.9s2.1,0.3,2.1-0.3c0-0.6-0.6-1.6-0.9-1.6C15.7,28.3,14.8,28.3,14.7,28.5z"/>
<circle class="st3" cx="4.2" cy="8" r="0.3"/>
<path class="st0" d="M12.7,9.1c1.8,1.4,3.1,0.3,3.1,0.3c-1.3-0.3-2.1-0.9-2.7-1.6c0.8-0.1,1.3-0.7,1.3-0.7c-1.1,0-1.8-0.3-2.5-0.7
	c-0.6-0.6-1.2-1.2-2.3-1.6C9.3,4.7,9,4.6,8.7,4.6c-0.1,0-0.2-0.1-0.3-0.1C7.6,4.4,6.6,4.5,5.7,5.1C5.4,5.3,5.5,5.7,5.8,5.7
	c1.7-0.1,2.9,0.6,3.5,1.6c2.2,3.8,5.3,3.9,5.3,3.9S13.4,10.5,12.7,9.1z"/>
</svg>
