<?xml version="1.0" encoding="utf-8"?>
<!-- Generator: Adobe Illustrator 26.3.1, SVG Export Plug-In . SVG Version: 6.00 Build 0)  -->
<svg version="1.1" id="Penguin" xmlns="http://www.w3.org/2000/svg" xmlns:xlink="http://www.w3.org/1999/xlink" x="0px" y="0px"
	 viewBox="0 0 128 128" style="enable-background:new 0 0 128 128;" xml:space="preserve">
<style type="text/css">
	.st0{fill:#FFBE55;}
	.st1{fill:#74CAC2;}
	.st2{fill:#F0FF9F;}
	.st3{fill:#4D4D4D;}
	.st4{fill:#000409;}
</style>
<path class="st0" d="M69.8,112.8c0,0-6.7,4.6-7.3,5.4c-0.6,0.8-0.9,1.7,0.3,2.1s3.2-0.1,3.2-0.1s-1,1.4,1.3,2
	c1.5,0.3,4.5-1.2,4.5-1.2s-0.5,1.4,1.6,1.7c2.9,0.4,8-5.9,9.1-7.9s0.6-3.7,0.6-3.7L69.8,112.8z"/>
<path class="st0" d="M52.2,108.6c0,0-8.2,4.9-8.9,5.2s-3.2,1.7-2.2,3.3c0.8,1.2,3.7,0.3,3.7,0.3s-0.6,1.4,1,2.2
	c1.7,0.8,5.2-1.1,5.2-1.1s-0.4,1.7,1.9,2c2.9,0.3,9.4-8.5,9.4-8.5L52.2,108.6z"/>
<path class="st1" d="M85,38.4c0,0,1.1-17.6-7.5-25.8S58.4,5.4,55.1,6.2c-3.2,0.8-8.9,2.9-12.9,8.6c-5.3,7.6-3.1,14.7-5.5,19.3
	c-1.9,3.6-7.2,14-8.1,21.5s-1.4,21.6-1,26.6c0.4,4.9,0.6,9.2,3.2,13.2c1.6,2.4,4.7,2.4,5.8,1.1c0.6-0.8,0.4-1.9,0.4-1.9
	s4.3,6.4,6,8.5c2.8,3.5,8.7,9.1,18.2,10.7c12.6,2.2,33.2-4.5,33.2-4.5s1.8,1.2,4.6,1.3c1.4,0.1,3.1-1.3,2.9-2.8s-1.8-3.4-2.2-4.2
	c-0.3-0.8,0.7-22.3-2.7-37S87.5,40.3,85,38.4z"/>
<path class="st2" d="M39.8,38.4c0,0-6.1,6.3-6.7,15.1c-0.5,7.3-0.5,20.7,3.7,32.7s12.2,21.9,23.9,24.2c12.6,2.5,26.6-1.9,27.1-2.1
	c0.4-0.1-2.5-3.3-4.6-6.4c-1.6-2.4-3.6-7.6-3.6-7.6s0.1,4-2.5,4.4c-2,0.2-4.8-1.7-6.9-6.3s-5-17.3-5.8-27.7
	c-0.7-9.3,0.2-15.3,1.2-17.9c0.6-1.6,1.7-2.6,1.7-2.6s3.2,3.9,8.3,2.6c4.9-1.3,6.1-6.6,5.3-11c-1-5.2-3.1-10.8-10.2-9.3
	c-8,1.8-5.2,12.1-5.2,12.1s-5.7,4.7-13.8,3.8C43.7,41.5,39.8,38.4,39.8,38.4z"/>
<path class="st0" d="M47.1,18.1c0,0-1-3.6-3.4-4.1c-4.7-0.9-11.3,2.2-14,3.9c-2.2,1.3-5.1,4.2-4.2,5.6s5.8,0,9.9,0.8
	c2.9,0.5,6.9,1.7,8.6,1.6c1.3,0,3.1-2.4,3.3-3.4C47.6,21.4,47.6,19.5,47.1,18.1z"/>
<path class="st3" d="M47.3,18.5c0,0-4,1.7-12.4,2.3c-3.6,0.2-9.6,2-9.6,2s-0.6,0.6,0.4,1.1c1,0.5,6-0.9,9.1-1.1
	c5-0.3,14.2-0.9,14.2-0.9L47.3,18.5z"/>
<path class="st4" d="M63.8,22c0.1,2.1-2,4-3.9,3.7c-2.4-0.4-3.5-2.7-3.3-4.9s2.3-3.4,4.2-3.2C62.7,17.8,63.7,19.8,63.8,22z"/>
</svg>
