<?xml version="1.0" encoding="utf-8"?>
<!-- Generator: Adobe Illustrator 26.3.1, SVG Export Plug-In . SVG Version: 6.00 Build 0)  -->
<svg version="1.1" id="Layer_1" xmlns="http://www.w3.org/2000/svg" xmlns:xlink="http://www.w3.org/1999/xlink" x="0px" y="0px"
	 viewBox="0 0 458.6 306.5" style="enable-background:new 0 0 458.6 306.5;" xml:space="preserve">
<style type="text/css">
	.st0{fill:#F7D564;}
	.st1{fill:#F3C118;}
	.st2{fill:#2C3C47;}
	.st3{fill:#150800;}
</style>
<g id="Layer_2_00000013174558346184021280000011931456100519700123_">
	<path class="st0" d="M191.8,296.5c-10.4,0-16.6-72.2-16.6-72.2h11.3l27.2-5.6c-4,21.7,2.5,77.8-20,77.8H191.8z M319.7,296.5
		c24.7,0,21.3-53.5,57.1-136.1l-29,29.6L333,224.3l-24.1-12c18.5,23.4-15.9,84.2,8.3,84.2L319.7,296.5L319.7,296.5z"/>
</g>
<g id="Layer_3">
	<path class="st1" d="M457.8,61.5c-1.1-1.4-3.2-1.6-4.6-0.5l-0.3,0.2c0,0-0.1,0.1-0.3,0.2s-0.4,0.3-0.8,0.5c-0.8,0.4-2,1-4,1.2
		c-1.9,0.2-4.5,0.1-7.4-0.6c-0.2,0-0.3-0.1-0.5-0.1c0.3-0.7,0.6-1.4,0.9-2.2c1.1-2.7,1.9-5.6,2.4-8.5c0.3-1.4,0.5-2.9,0.7-4.4
		c0.1-1.5,0.3-2.9,0.3-4.4c0.1-1.5,0.1-2.9,0.1-4.4l0-0.6l0-0.4l0-0.3l0-0.5l0-0.6c-0.1-0.9-0.1-1.8-0.3-2.6
		c-0.5-3.4-1.6-6.9-3.7-10.2c-2.1-3.2-5.4-6-9.4-7.4c-3.9-1.4-8.2-1.2-11.9,0.1c-3.7,1.3-6.9,3.9-9,6.9c-2.1,3-3.3,6.5-3.8,9.7
		c-0.2,1.6-0.3,3.3-0.3,4.8l0.1,1.1l0.1,1.3c0.1,0.8,0.2,1.6,0.4,2.4c0.7,3.1,1.9,6,3.4,8.5c1.5,2.5,3.3,4.7,5.2,6.6
		c2.2,2.2,4.6,4,6.9,5.5c-1.3,1.1-2.7,1.9-4.1,2.4c-1.3,0.5-2.6,0.8-3.8,1c-1.3,0.2-2.5,0.1-3.6,0c-2.3-0.3-4.4-0.9-6-1.7
		c-0.8-0.3-1.6-0.8-2.2-1.1c-0.3-0.2-0.5-0.3-0.7-0.4c-0.1-0.1-0.2-0.1-0.3-0.2l-0.2-0.1c-0.1,0-0.1-0.1-0.2-0.1
		c-1.1-0.7-1.7-1.1-1.7-1.1c-0.1-0.1-0.2-0.2-0.4-0.2c-49-43.8-167.8-53-246.2-34.2c-2.3,5.5-3.5,14.6-4.9,24.6
		c-15.9-7.7-26.4-21.4-26.3-21.4c-31,0-43.3,16.4-56.3,33.7C53.9,79.5,34.6,95,9.7,101.4c-5.1,1.3-6.6,4.7-8.5,9.9
		c-3.5,9.9,3.2,30.9,12.5,37.6c10.7,7.7,27.4,7,34.9,7c16.3,0,40.4,11.7,50.7,23c9.2,10.1,20.4,19,33.1,25.8
		c4.1,38.1,6.7,101.8,19.4,101.8h7.9c10.3,0,22.2-41.6,30.3-77.6c10.9,8.4,32.1,19,70.2,19c40.2,0,62.4-4,78.7-11.4
		c13.3,33.4,12.9,70,25,70h7.3c8.1,0,17.2-58.4,19.7-71.5c0.3-1.7,0.8-3.4,1.5-5.1c4.5-11.3,30.7-53.4,28.7-111.1l0,0
		c0.1-3.4,0.1-7,0.1-10.7c0-9.5-2.2-18.2-6.3-26.1c0.5-0.1,1.1-0.1,1.7-0.3c2.5-0.5,5-1.2,7.5-2.4c4.6-2.1,8.8-5.7,11.9-10
		c4.9,1.2,9.3,1.4,12.9,0.8c2.8-0.5,5.1-1.5,6.5-2.5c0.7-0.5,1.2-0.9,1.6-1.2c0.3-0.3,0.5-0.5,0.5-0.5
		C458.8,64.8,458.9,62.8,457.8,61.5z M416.4,40.8c-0.1-0.5-0.1-1-0.1-1.5l0-0.6l0-0.9c0-1.1,0.1-2.1,0.4-3.1c0.4-2,1.2-3.7,2.2-5.1
		c1.1-1.4,2.5-2.3,3.9-2.7c1.5-0.4,3-0.4,4.3,0.2c1.3,0.5,2.4,1.5,3.2,2.9c0.8,1.4,1.3,3.2,1.5,5.2c0,0.5,0.1,1,0.1,1.5l0,0.2l0,0.3
		l0,0.5l0,0.3c0,0,0,0.2,0-0.1l0,0.1l0,0.1l0,0.5c-0.1,1.2-0.1,2.4-0.3,3.6c-0.1,1.2-0.3,2.3-0.5,3.5c-0.2,1.1-0.4,2.3-0.7,3.3
		c-0.5,2.2-1.2,4.2-2.1,6.1c-0.2,0.5-0.5,1.1-0.8,1.6c-2-1.4-4-3.1-5.7-5.1C419,48.4,416.9,44.7,416.4,40.8z"/>
</g>
<g id="Layer_4">
	<path class="st0" d="M133.4,37.3c-13.5-15-31.1-20.9-35-22.2c-3.3-1.2-7-0.3-9.2,2.1c-1.2,1.4-0.7,2.6,0.3,5
		c2,4.8,7.5,17.7,5.5,30.4c-2.5,16.1,7.8,25.2,29.2,37.4c0.4,0.2,0.7,0.4,1.1,0.5l0.1,0c3.7,1.4,7.9-0.1,9.9-3.4
		C135.9,85.9,152.6,58.6,133.4,37.3z"/>
</g>
<g id="Layer_5">
	<path class="st1" d="M152.6,27.5C136.2,9.4,115,2.2,110.2,0.6c-4-1.4-8.4-0.4-11.2,2.5c-1.5,1.6-0.8,3.2,0.4,6
		c2.5,5.9,9,21.4,6.6,36.8c-3.1,19.5,9.5,30.5,35.3,45.2c0.4,0.2,0.8,0.4,1.3,0.6l0.2,0.1c4.5,1.7,9.5-0.1,12-4.1
		C155.7,86.4,175.9,53.3,152.6,27.5z"/>
</g>
<g id="Layer_6">
	<path class="st0" d="M23.7,122.1c1.4,12.6,2.5,28.6-4,29.3c-6.5,0.7-18-14.2-19.4-26.8s2.8-23.3,9.3-24S22.3,109.5,23.7,122.1z"/>
</g>
<g id="Layer_7">
	<path class="st2" d="M75.7,92.5c4.4,0,8,2.1,8,4.7v5.8c0,2.6-3.6,4.7-8,4.7l0,0c-4.4,0-8-2.1-8-4.7v-5.8
		C67.8,94.6,71.3,92.5,75.7,92.5L75.7,92.5z"/>
</g>
<g id="Layer_8">
	<path class="st3" d="M12.8,132.1c-3.6-0.1-5.8-17.7-2.2-17.6S16.4,132.2,12.8,132.1z"/>
</g>
</svg>
