<?xml version="1.0" encoding="utf-8"?>
<!-- Generator: Adobe Illustrator 26.3.1, SVG Export Plug-In . SVG Version: 6.00 Build 0)  -->
<svg version="1.1" id="Layer_2_00000158739503258204258680000008672299516383104662_"
	 xmlns="http://www.w3.org/2000/svg" xmlns:xlink="http://www.w3.org/1999/xlink" x="0px" y="0px" viewBox="0 0 128 128"
	 style="enable-background:new 0 0 128 128;" xml:space="preserve">
<style type="text/css">
	.st0{fill:#00D4BF;}
	.st1{fill:#FFCC56;}
	.st2{fill:#DF8A00;}
	.st3{fill:#5D6167;}
	.st4{fill:#5D6268;}
	.st5{fill:#5D6164;}
	.st6{fill:#5F6467;}
	.st7{fill:#00E91A;}
	.st8{fill:#2F2F2F;}
</style>
<path class="st0" d="M108.3,48.9c1.3-0.4,4.4,4.8,7.1,6.9c2.5,2,4,3.2,5.3,3.4c0.8,0.1,3.8,0.9,2.2,3.9c-1.6,2.9-5.7,3-7.7,3
	s-11.6-9.9-11.6-9.9S103.8,50.2,108.3,48.9z"/>
<path class="st1" d="M37.9,16.6c0,0-4.2-2.4-12.5-1.3C19.1,16.2,12.1,19.7,7.8,28C2.8,37.4,3.2,46.6,6.7,53
	c4.2,7.6,11.8,12.2,11.8,12.2L37.9,16.6z"/>
<path class="st2" d="M21.1,30.4c0,0-2.7,0-5,3.1c-1.9,2.5-2.7,4.5-2.7,4.5s-5.8,0.9-6,4.4c-0.1,2.1,2.5,1.4,4.4,3.4s2.5,3.3,3,5.6
	c0.5,2.2,3.3,2.7,3.3,2.7s0.1-5.7-3-8.8S9.9,42.8,10,42c0.1-0.8,2.5-2.4,5-2.3c3.9,0.1,5.6,4.7,5.6,4.7l2.6-11.5L21.1,30.4z"/>
<path class="st3" d="M76.2,108.2c0,0-0.1,2.5,0.1,3.6c0.1,0.5,2.1,2.1,6,2.2c3.8,0.1,6.1-2,6.1-3.1c0-0.9,0.3-5,0.3-5l-1.2-4.1
	l-9.4,2.7l-0.7,1.4L76.2,108.2z"/>
<path class="st0" d="M79.8,108.3c0,0,1.6,0.4,4.5,0.1c2.8-0.3,4.3-1.5,4.3-1.5l1.1-7.1l-13.4,1.4l1.8,6.8L79.8,108.3z"/>
<path class="st4" d="M95.1,107.5c0,0,0.2,5.3,0.5,6c0.3,0.7,1.9,2.2,5.7,2.3c4.8,0.2,6-1.6,6.1-2.8s0.8-5.2,0.3-6.7
	c-0.6-1.5-10.1-0.5-10.1-0.5L95.1,107.5z"/>
<path class="st0" d="M108.7,91.9L95,93.6c0,0-0.3,13.1,0,13.9c0.3,0.8,2.2,2.1,6.5,2.2c4.6,0.1,6.3-1.2,6.3-1.2l1.4-16.3L108.7,91.9
	z"/>
<path class="st5" d="M51.6,115c0,0,0.2,5.6,0.8,6.3c0.6,0.7,1.7,2.9,6.4,2.8s6.3-2.9,6.5-3.6s0.2-4.7,0.2-4.7l-13.1-2.7L51.6,115z"
	/>
<path class="st0" d="M65.6,106.3l-14.5,1.2c0,0,0.3,6.8,0.5,8.1c0.2,1.1,2.1,2.7,7.1,2.6s6.8-2.4,6.8-2.4L65.6,106.3z"/>
<path class="st6" d="M30.4,112.7c0,0,2.7-2.8,6.6-3s6.5,4.8,6.5,4.8s0.1,2.7,0.1,3.5c0,1.3-3,3.3-6.3,3.2c-5.1-0.1-5.8-2.1-6-3.1
	C31.2,117.5,30.4,112.7,30.4,112.7z"/>
<path class="st0" d="M31.6,102.1l-2.9,1l1.8,9.9c0,0,2.1,3,6.8,3s6.2-1.4,6.2-1.4l-0.4-8.4L31.6,102.1z"/>
<path class="st7" d="M59.5,20.2c0,0-2.4-7.1-12.2-7.5c-11.7-0.4-14.1,8.9-14.1,8.9s-5.8-3.1-11.1,2.5s-1.1,11.7-1.1,11.7
	s-3.1,2.3-2.7,6.3c0.4,3.7,2.5,4.8,2.5,4.8s-7.9,4.1-8.9,13.5c-1.1,10.4,3.5,14.1,3.5,14.1s-4.1,6.6,0.4,15.9
	c4.3,8.9,10.4,9.3,10.4,9.3s3.2,7.3,9.1,8.7s10.8-0.3,10.8-0.3s5.3,4.8,11.1,4.1c5.8-0.7,7.6-3.5,7.6-3.5s3.5,3.4,10.6,1.8
	s8.3-5.5,8.3-5.5s6.5,3.7,13.1,0.1c6.6-3.5,7.2-9.7,7.2-9.7s7.2-1.1,11-8.4s0.3-12.1,0.3-12.1s1.8-3.8-0.1-11.5s-7.9-8.6-7.9-8.6
	s4.4-7.9-1.6-13.8c-5.9-5.9-14.6-4.8-14.6-4.8l-22.5-7.9c0,0,2.9-4.1-2-7.3C62.9,18.5,59.5,20.2,59.5,20.2z"/>
<path class="st0" d="M21.7,47.3c0,0,2.4,0.3,5-1.8c2.6-2.1,4-4.8,4-4.8s2.4,5,7.9,6c6.8,1.2,11.6-5.2,11.6-5.2s-0.8,3.7,3.1,6.7
	s8.5,1.8,8.5,1.8s-5.6,5.8-7.4,10.7s-2.7,13.1-7.3,17.2c-6.5,5.7-26.1,4.9-27.5-8.6c-0.6-5.7,2.4-5.8,2.8-13.5
	C22.6,50.2,21.7,47.3,21.7,47.3z"/>
<path class="st8" d="M31.7,66.1c0.3,0,2.2-1,2.6-1.2s2.1-1.3,2.9-0.2c0.8,1.1,0.2,2.1-1.4,2.9c-1.2,0.6-2.5,1.2-2.5,1.2
	s-0.7,4.1,2.2,4.4c1.8,0.2,2.2-1,3.4,0.2c1.3,1.2-0.4,3.1-3.1,3c-1.5-0.1-2.4-0.4-3.3-1.2c-0.4-0.4-1-1.7-1-1.7s-0.7,2.1-3.5,2.3
	c-2.6,0.2-4-2.1-2.9-3.1s1.1,0.3,2.8,0.3c2.4-0.1,2-4.3,2-4.3s-1.6-1.8-2.1-2.3s-1.2-1.4-0.7-2.2c0.8-1.1,1.7-0.4,2.2-0.1
	C29.8,64.2,31.4,66.1,31.7,66.1z"/>
<path class="st2" d="M64,48.7l-1.2-13.1l21.4-4.2l6,12.1l-3.9,18.2L85.2,67l-6.1,6.8c0,0-4.3,2.5-10,0.8c-6.1-1.8-8.7-5.5-10-11.7
	C57,53.7,64,48.7,64,48.7z"/>
<path class="st1" d="M60.1,38.1c0,6,2.9,10.9,3.9,10.5c1-0.4,4.8-1.4,6-6.3c0.6-2.3,3.4-4.7,6.6-5c3.2-0.4,6.7,1.3,8.4,7.3
	c1.5,5.4-0.2,10.5-3.1,12.7C79,59.4,75,59,74,56.1c-1.5-4.4,4.7-5.9,4.8-7.4s-7.6-4.8-12.9,0.4c-5.9,5.8-6.4,14.3-1.8,20.2
	s12,6.9,19.3,3c7.5-3.9,13.8-11.9,13.3-27.3c-0.6-18-14.6-27.4-25.4-25c-4,0.9-6.7,2.8-8.4,5.7C61.3,28.5,60.1,33.5,60.1,38.1z"/>
<ellipse class="st8" cx="47.4" cy="51.5" rx="3.3" ry="4"/>
<ellipse class="st8" cx="28.3" cy="49.5" rx="3" ry="3.6"/>
</svg>
