<?xml version="1.0" encoding="utf-8"?>
<!-- Generator: Adobe Illustrator 26.3.1, SVG Export Plug-In . SVG Version: 6.00 Build 0)  -->
<svg version="1.1" id="Layer_3" xmlns="http://www.w3.org/2000/svg" xmlns:xlink="http://www.w3.org/1999/xlink" x="0px" y="0px"
	 viewBox="0 0 119.7 103.1" style="enable-background:new 0 0 119.7 103.1;" xml:space="preserve">
<style type="text/css">
	.st0{fill:#E8DD9E;}
	.st1{fill:#3FE6FF;}
	.st2{fill:#CB00D4;}
	.st3{fill:#FFFFFF;}
	.st4{fill:#E3D9A8;}
	.st5{fill:#E3E0AA;}
	.st6{fill:#FF7FD9;}
	.st7{fill:#31312F;}
	.st8{fill:#E90076;}
</style>
<path class="st0" d="M1.1,13l8.4,1.3l7.3,5.2c0,0-1.7,2.8-3.8,2.1c-2.2-0.7-1.8-3.6-1.8-3.6s-1.5,2.4-3,1.7
	c-1.9-0.8-1.8-3.5-1.8-3.5S5,18,3.3,17.4C0.6,16.5,1.1,13,1.1,13z"/>
<path class="st1" d="M30.2,12.5L7.9,7.6L2.1,8.3c0,0-2.2,3.5-2,4.1c0.2,0.7,0.6,1.3,1.8,1.7c1.2,0.4,5.9,1.3,7.7,2.2
	c1.8,0.9,7.1,5,7.1,5s-1.6,2.8-4,5c-1.1,1-7.1,5.1-7.1,5.1l8.9,1.9l15.9-9.5L30.2,12.5z"/>
<path class="st2" d="M39.1,38.4c0,0-5.3-1.7-7.4,2.8c-2.2,4.5,0.4,6-1.8,8.4c-1.2,1.3-2.4-0.5-5.2,1.3c-2,1.3-3.1,4.4-2.7,7
	c0.4,2.6,1.9,6,3.6,5.7s1.1-3.9,1.1-3.9s1.3,3.5,2.9,3.5c2.3,0,1-5.3,1.7-5.7c0.7-0.4,4.1,0.6,6.4-0.7c2.8-1.5,5.3-10.9,5.3-10.9
	L39.1,38.4z"/>
<path class="st2" d="M55.9,34.7c0,0-16.9,18.8-17.3,27.6c-0.3,7.6,3.4,12,7.2,14.3c3.8,2.2,8.5,3.5,8.5,8.1s-5.3,5.6-7.6,5.8
	s-5.5,0.7-8.3,2.2c-2.8,1.5-4.2,5.2-2.7,6.1c0.9,0.6,4.8-1.7,4.8-1.7s-1.3,3.3,0.4,3.6c2.9,0.5,7.8-2.5,7.8-2.5s-1.7,2.2-0.5,2.8
	c1.9,0.8,4.5-0.7,5.7-1.4c1.1-0.7,4-2.9,5.8-3c1.8-0.1,5.3,0.5,5.4-0.4c0.1-0.8-2.8-4.1-2.9-7.1c-0.1-3,2.1-6.2,2.1-9.2
	s-6.5-4.8-6.1-9.8c0.1-1.9,12.1-17,11.9-23.6C69.8,36.1,55.9,34.7,55.9,34.7z"/>
<path class="st2" d="M98.4,32.2c0,0,8.1-3.2,7.7-5.9s-7.3-4.1-9.2-4.3s-5.3-1-7.1-2.8c-1.8-1.8-2.4-4.1-1.4-4.6
	c1-0.5,5.3,1.6,5.3,1.6s11.4,0.5,12.9,0.8s12.1,5.8,8.3,11.1C111.3,33.2,98.4,32.2,98.4,32.2z"/>
<path class="st3" d="M3.6,9.3c0,0,1,4.2,3,4.4s2.5-3.8,2.5-3.8l1.1-1c0,0-1.4,5,1.3,6.1c2.7,1.1,2.2-4.9,2.2-4.9l1.1,1
	c0,0,0.1,6.9,2.5,6.8s2.5-5.1,2.5-5.1l-7-7L3.6,9.3z"/>
<path class="st4" d="M43.8,64.1c0,0-0.6,4.2,1.3,4.7s1.7-3.7,1.7-3.7L43.8,64.1z"/>
<path class="st4" d="M49,66.8c0,0,0.3,4.1,2.1,3.7s0.6-5.1,0.6-5.1L49,66.8z"/>
<path class="st3" d="M22.7,27.8c0,0-0.2-4.8-2.3-4.3c-1.2,0.3-1.9,1.8-2,3.9c-0.1,1-0.5,3.2-0.5,3.2H17c0,0-0.4-4.2-2.3-3.7
	c-2,0.4-2.1,5.1-2.1,5.1l5.2,1.1L22.7,27.8z"/>
<path class="st5" d="M10.9,31c0,0-0.1-4.7-2-4.4S7,29.8,7,29.8S5.9,27.5,4.6,28s-1,2.3-0.1,4.1C5.3,33.9,10.9,31,10.9,31z"/>
<path class="st3" d="M9.2,32.4c0,0,0.4-4.6-0.5-4.8c-0.9-0.1-0.9,1.3-0.9,2s0.1,3,0.1,3L9.2,32.4z"/>
<path class="st6" d="M34.9,5.6c0,0-0.7-3.9-3.7-4.9c-5.4-1.7-8.7,3-8.7,3s-4.1-0.2-6.7-1.2S8.7-1,5.3,0.4C2.6,1.5,1.2,4.2,0.4,7.3
	s-0.3,5.2-0.3,5.2S3.3,9.4,7,9.7s9.3,3.2,10.8,3.9c1.5,0.8,10,3.2,10,3.2s-1.7,5.3-2.9,6.8s-3.9,3.6-8,5.3S4.6,32.1,4.6,32.1
	s0.6,6.6,2.8,7.6c2.2,1,6.3,1.9,9.3,0.6S30.6,38,30.6,38s1.7,0.8,3.1,2.3s3.3,3.6,4.1,5.9c0.8,2.3,1.7,5,2.4,6.5
	c0.8,1.5,2.5,5.2,2.5,5.2s1.4-2.8,3.4-3.5c2-0.7,4.6-0.2,4.6-0.2s-0.3-10.4,2-14.1c2.2-3.6,5-4.4,8.1-4.2c3.1,0.2,3.7,2.2,1.2,2.2
	c-2.4,0-6.1,0.9-7.4,3.8s-1.5,4.9-1.9,7.6c-0.4,2.7-0.4,6.1-0.4,6.1s-3.5-0.5-5.5,0.4c-2.1,0.8-3.4,3.6-3.6,5.4
	c-0.2,1.9,0.4,4.4,2.1,4.5c1.7,0.1,2.2-1.8,2.2-1.8s0.3,3.8,3.3,3.3s2.1-2.8,3.6-4.5c1.5-1.8,4.6-2.1,7.9-6.5
	c3.3-4.4,3.2-6.9,3.2-7.7s-0.2-2.9,0.9-3c1-0.1,1.2,2,1.2,3s-0.8,5.8-3.7,9.1c-2.3,2.6-6.4,4.7-7.6,6.5c-1.2,1.8-1.2,4.1-1.1,4.1
	c0.2,0.6,3.5,1.8,7,2.1c3.5,0.3,6.6-1.2,6.6-1.2s0,3.9,0.4,7s2.6,5.9,2.2,9.4c-0.4,3.5-2.2,6.3-3.6,7c-1.3,0.8-7.2,3-6.6,5.4
	c0.4,1.7,3.7,1.3,5.2,1.1c1.6-0.3,2.5-0.5,4-0.3c1.5,0.2,0.6,4.4,3.5,4.2c2.9-0.2,5.3-4.2,7-4.1c2.3,0.1,6.6,3.3,9.1,1.2
	c1.9-1.6-1.7-4.5-4-6.8s-4.5-5.5-4.3-11.3c0,0,0.4-9,0.5-11.6c0.1-2.6,0.1-7.3,0.1-7.3s4.4-3.3,6.5-5.5c2.1-2.2,2.3-3.8,5.9-6.9
	c3.6-3.1,12.3-2.6,21.3-10.8c4.4-4.1,6.1-13.7,0.2-20.5c-5.9-6.8-17.1-4-19.4-4.3s-5.9-2.2-7.5-1.4c-1.2,0.7-1.1,1.7-1.1,1.7
	s4.4,2.3,7.5,2.8c6,1,16.6-1.5,16.8,5.9s-19.7,8-21.6,7.8c-1.9-0.2-12.4-6.2-16.2-7.2c-3.4-0.9-8.3-1.7-11.9-1.5
	c-3.8,0.2-6.5,0.9-9.2,2.2C51.8,26,51,26.7,51,26.7S44.4,12.9,40.6,9.1C37.6,6.1,34.9,5.6,34.9,5.6z"/>
<path class="st2" d="M29,15.6c-0.6-0.8-6-0.2-8.8-1.8s-9.9-5.8-14-5.5c-4.1,0.3-6.1,3.2-6.1,4.1c0,0.9,0.7,0.9,1.5,0s2.7-2.6,6.4-2
	c3.7,0.6,10.9,5.1,13.7,6.3c2.8,1.1,5.1,0.4,5.1,0.4s-0.1,1.6-1.1,3.4c-1,1.8-4,5.8-2.4,4.7c1.8-1.2,4-4.2,4.6-5.4
	C28.7,18.2,29,15.6,29,15.6z"/>
<ellipse transform="matrix(0.8308 -0.5565 0.5565 0.8308 1.2621 16.847)" class="st7" cx="28.3" cy="6.3" rx="2.6" ry="2.5"/>
<path class="st2" d="M41.8,19.6c1.2-1.2,3.9,4.7,1.7,11.6c-1.1,3.5-4.5,6.7-10.2,7.9s-7.8,0.2-11.1,0.6S14.9,43,9.5,41.4
	S4.3,35,4,33.8c-0.3-1.3-0.1-1.8,0.7-1.7s0.9,4.2,2,5.7c1,1.3,3.7,2.8,6.1,2.5c3.2-0.3,3.8-1.8,9.4-2.8s12.3-0.1,16.4-6.2
	C43.1,24.6,40.7,20.7,41.8,19.6z"/>
<path class="st2" d="M66.1,29.5c0.4,3.1,0,5.7-0.9,7.2c-0.8,1.4-3.1,1.4-3.1,1.4s-0.9-0.9-2.4-1.2c-1.5-0.3-1.5-1.5-1.5-3.5
	c-0.1-1.9-1-3.4-1.8-4.9c-1-1.8-2.7-3.5-2.7-3.5s1.2-0.8,4.7-1.5c2.5-0.5,4.8-0.5,4.8-0.5S65.7,26.2,66.1,29.5z"/>
<path class="st2" d="M68.7,23.7c0,0,2.9,2.3,3,6.8c0.2,4.8-0.9,10,2.2,11c3.2,1,5.8-1.7,6.3-5.8c0.4-4.1-0.6-8.6-0.6-8.6
	s-3-1.4-5.4-2.2C72.9,24.3,68.7,23.7,68.7,23.7z"/>
<path class="st2" d="M88.2,40.8c2.7,0.8,4.2-1.2,4.8-4.5s0.7-4.3,0.7-4.3s-2,0.1-3.3,0c-0.8-0.1-4.2-1.7-4.2-1.7s0,3.1,0,4.1
	C86.3,37.1,85.7,40,88.2,40.8z"/>
<path class="st8" d="M75.7,60.6c-0.9,1.4-1.9,2.3-2.8,2c-0.9-0.3-1.1-1.8-0.7-3.4c0.6-2.1,2-2.6,2.9-2.2S76.7,58.9,75.7,60.6z"/>
<ellipse transform="matrix(0.1171 -0.9931 0.9931 0.1171 -7.0368 145.3863)" class="st8" cx="78.2" cy="76.7" rx="1.7" ry="1.1"/>
<ellipse class="st8" cx="77.9" cy="69.7" rx="1.3" ry="1.9"/>
</svg>
