<?xml version="1.0" encoding="utf-8"?>
<!-- Generator: Adobe Illustrator 26.3.1, SVG Export Plug-In . SVG Version: 6.00 Build 0)  -->
<svg version="1.1" id="Layer_1" xmlns="http://www.w3.org/2000/svg" xmlns:xlink="http://www.w3.org/1999/xlink" x="0px" y="0px"
	 viewBox="0 0 505.7 290.3" style="enable-background:new 0 0 505.7 290.3;" xml:space="preserve">
<style type="text/css">
	.st0{fill:#ED559E;}
	.st1{fill:#FFFFFF;}
	.st2{fill:#2B3B47;}
</style>
<g id="Layer_2_00000082332903084025994860000005574451244966040455_">
	<path class="st0" d="M505.7,172.9c0-4.2-3.3-7.8-7.6-8c-4.4-0.2-8.1,3.2-8.3,7.6l0,0c0,0,0,0.2,0,0.7c0,0.5,0,1.2-0.1,2.1
		c-0.1,1.8-0.4,4.5-1.1,7.7c-0.8,3.2-2,6.9-4.3,10.3c-2.2,3.3-5.5,6.1-9.5,6.8c-2,0.3-4.1,0.2-6.3-0.5c-2.2-0.8-4.5-2.1-6.7-4.1
		c-4.3-4-7.8-10.1-10.1-17.1c-2.3-7.1-3.5-15-3.8-23.2c-0.2-4.1-0.1-8.3,0.2-12.5c0-1.1,0.1-2.1,0.2-3.2c0.1-1.1,0.2-2.1,0.3-3.1
		c0.1-1,0.2-2,0.3-3.1l0.4-3.3l0.4-3.5l0.3-3.6c0.2-2.4,0.3-4.8,0.3-7.2c0-4.8-0.3-9.7-1-14.5c-1.4-9.6-4.5-18.8-9-27
		c-4.4-8.2-10.1-15.3-16.3-21c-6.2-5.8-12.9-10.3-19.4-13.7c-6.5-3.4-12.9-5.7-18.7-7.3c-1.9-0.5-3.7-0.9-5.4-1.2
		c-12.8-8.1-28.4-12.9-45.3-12.9c-55.2,0-41.5,16.4-120,16.4s-45.1-11.6-108.8-11.6c-0.4,0-0.8,0-1.3,0c0.1-2.9-0.1-5.8-0.4-8.5
		c-1.3-11.5-14-17.8-24-12.1c-4.2,2.4-8.6,5.6-12.4,9.6c-1.3-0.1-2.6-0.2-3.9-0.2C35,11.5,11.5,37.9,11.5,66c0,2.9,0.2,5.7,0.7,8.4
		c0.7,4.1-0.7,8.3-3.8,11.1c-4.3,4-6.8,9.8-6.4,16.1c0.6,10.2,8.8,18.5,19,19.1c8.7,0.6,16.4-4.3,19.9-11.6c7.1,3,15.2,4.7,23.7,4.7
		c7.1,0,13.9-1.1,20-3.3c9.7,11.8,20.7,24.7,32.5,35c-1.6,5.1-2,10.7-1,16.3l0,0c0,0,0.1,0.5,0.2,1.4c0.1,0.4,0.2,1,0.3,1.6
		c0.1,0.3,0.1,0.7,0.2,1c0.1,0.2,0.1,0.4,0.2,0.6c0.1,0.5,0.3,1,0.4,1.5c0,0.1,0,0.1,0.1,0.2c0,0.1,0,0.2,0,0.3
		c0,0.2,0.1,0.4,0.1,0.6c0.1,0.4,0.1,0.9,0.2,1.3c0.1,0.5,0.2,0.9,0.2,1.4c0.1,0.5,0.1,1,0.2,1.6c0.1,0.5,0.1,1.1,0.2,1.7
		c0.1,0.6,0.1,1.2,0.2,1.8c0.1,1.2,0.2,2.5,0.3,3.9c0.1,1.4,0.2,2.8,0.2,4.2c0,1.5,0.1,3,0.1,4.6c0,1.6,0,3.2,0,4.9
		c0,1.7-0.1,3.4-0.1,5.1c0,0.9-0.1,1.7-0.1,2.6c0,0.9-0.1,1.8-0.1,2.7c-0.2,3.6-0.5,7.2-0.8,10.9c-0.2,1.8-0.3,3.7-0.5,5.5
		c-0.2,1.8-0.4,3.7-0.6,5.5c-0.4,3.7-0.8,7.3-1.3,10.8c-0.9,7-1.9,13.6-2.8,19.2c-0.4,2.6-0.8,4.9-1.2,7.1
		c-6.1-1.9-12.5-2.9-17.1-2.9c-9.5,0-13.6,11.8-13.6,11.8c-5.1,7,0.1,16.8,8.7,16.8h28.8c5.6,0,9.7-4.1,10.6-8.8
		c0.4-0.6,0.9-1.3,1.4-2.2c1.9-2.9,4.6-7,7.7-12.1c3.1-5,6.7-11,10.5-17.4c1.9-3.2,3.8-6.6,5.7-10.1c0.9-1.7,1.9-3.5,2.9-5.2
		c0.9-1.8,1.9-3.6,2.8-5.4c1.9-3.6,3.7-7.2,5.5-10.9c0.4-0.9,0.9-1.8,1.3-2.7c0.4-0.9,0.9-1.8,1.3-2.7c0.9-1.8,1.7-3.6,2.5-5.4
		c0.2-0.4,0.4-0.8,0.6-1.3c0.2,1.3,0.4,2.7,0.7,4c0.6,3.7,1.2,7.5,1.8,11.3c0.6,3.8,1.1,7.6,1.7,11.3c0.5,3.7,1.1,7.4,1.6,11
		c1,7.1,1.9,13.7,2.7,19.4c-4.1-0.9-8-1.4-11-1.4c-9.5,0-13.6,11.8-13.6,11.8c-5.1,7,0.1,16.8,8.7,16.8h24.8
		c0.3,0.1,0.5,0.2,0.8,0.3c3.4,0.9,6.9,0,9.3-2.2c3.3-2.3,5.1-6.4,4.5-10.3c0.9-3.2,2.1-7.7,3.6-13.1c1.5-5.6,3.3-12.2,5.1-19.2
		c0.9-3.5,1.9-7.2,2.8-10.9c0.9-3.7,1.9-7.5,2.9-11.3c0.9-3.8,1.9-7.6,2.8-11.3c0.9-3.7,1.8-7.4,2.6-11c0.8-3.6,1.6-7.1,2.4-10.3
		c0.7-3.3,1.4-6.4,2.1-9.3c1.7-8,2.9-14.1,3.6-17.2c19.8-1,36-2.3,51.4-3.6l0.6,1.9c0.6,1.9,1.1,3.9,1.7,5.8l1.6,5.8l1.6,5.8
		l1.6,5.8l1.5,5.8c1,3.9,2,7.7,3,11.6c1,3.9,1.9,7.7,2.9,11.6c0.5,1.9,0.9,3.9,1.4,5.8l0.7,2.9l0.3,1.5l0.1,0.4l0,0
		c0-0.5,0-0.1,0-0.2l0,0l0,0.1l0,0.2l0.1,0.4l0,0.1c0,0,0,0,0,0l0,0l0.1,0c0,0,0,0,0,0l0,0.1l0.1,0.3c0.1,0.2,0.2,0.4,0.2,0.6
		c0.1,0.4,0.2,0.8,0.3,1.2c0.2,0.8,0.2,1.7,0.1,2.6l-0.7,1.9c-0.2,1.6-0.4,3.2-0.7,4.8c-0.3,1.6-0.5,3.2-0.8,4.8
		c-0.3,1.6-0.5,3.2-0.8,4.8c-0.3,1.6-0.6,3.2-0.9,4.7c-0.3,1.6-0.6,3.1-1,4.7c-0.2,0.8-0.4,1.6-0.6,2.3c-0.2,0.8-0.4,1.5-0.6,2.3
		c-0.3,1-0.6,2-0.9,3c-5.4-1.5-11-2.3-15-2.3c-9.5,0-13.6,11.8-13.6,11.8c-5.1,7,0.1,16.8,8.7,16.8h28.1c0.1,0,0.2,0,0.4,0.1
		c7.8,1,14.8-4.6,15.8-12.3c0.2-1.6,0.5-3.2,0.9-4.7c0.4-1.6,0.8-3.1,1.3-4.6c0.2-0.8,0.5-1.5,0.7-2.3c0.3-0.8,0.5-1.5,0.8-2.3
		c0.5-1.5,1.1-3,1.7-4.5c0.6-1.5,1.2-3,1.9-4.5c0.6-1.5,1.3-3,1.9-4.4c0.6-1.5,1.3-2.9,2-4.4c0.6-1.5,1.4-2.9,2-4.4l-0.7,1.9
		c1.5-2.7,2.7-5.5,3.7-8.4c0.5-1.5,0.9-3,1.3-4.5c0.2-0.8,0.3-1.5,0.5-2.3c0.1-0.4,0.1-0.8,0.2-1.2l0-0.3l0-0.3l0.1-0.7l0-0.4l0-0.2
		l0-0.1l0.1-0.4l0-0.2l0-0.1l0,0c0-0.1,0,0.2,0-0.3l0,0l0.1-0.4l0.2-1.5l0.5-2.9c0.4-2,0.7-3.9,1.1-5.9c0.7-3.9,1.5-7.8,2.3-11.7
		c0.8-3.9,1.6-7.8,2.4-11.7l0.6-2.8c0.6,0.5,1.2,0.9,1.8,1.4c2,1.6,4.3,3.5,6.8,5.5c2.5,2,5.2,4.2,8,6.6c2.8,2.4,5.8,4.8,8.8,7.4
		c3,2.6,6.2,5.2,9.4,8c3.2,2.7,6.4,5.5,9.6,8.3c1.6,1.4,3.2,2.8,4.8,4.2c0.8,0.7,1.6,1.4,2.4,2.1l1.2,1l0.6,0.5l0.1,0.1l0.1,0.1l0,0
		c-0.1-0.2,0.3,0.4-0.2-0.4l0.3,0.3l0.6,0.5l0.3,0.3l0.1,0l0.2,0c0,0,0.1,0,0.1,0l0.1,0.1c0.4,0.2,0.7,0.5,1.1,0.8
		c0.7,0.6,1.3,1.3,1.8,2c0.5,0.8,0.9,1.6,1.3,2.5c0.3,0.9,0.5,1.8,0.6,2.7l0,0.2l0,0.1l0,0c0.1-0.9,0-0.2,0.1-0.4l0,0l0,0.7
		c0,0.4,0,0.9,0,1.3c0,0.9-0.1,1.7-0.1,2.6c-0.1,1.7-0.1,3.3-0.2,4.9c-0.1,3.1-0.3,6-0.6,8.5c-0.2,1.4-0.4,2.8-0.6,4
		c-4.6-1.1-9.2-1.7-12.6-1.7c-9.5,0-13.6,11.8-13.6,11.8c-5.1,7,0.1,16.8,8.7,16.8h24.8c1.4,0.4,3,0.6,4.5,0.6
		c7.9-0.3,14-6.9,13.7-14.7c0,0-0.1-2.1,0.4-5.7c0.2-1.8,0.6-4,1.2-6.4c0.5-2.5,1.3-5.2,2.2-8.2c0.4-1.5,0.9-3.1,1.4-4.7
		c0.2-0.8,0.5-1.6,0.8-2.5c0.1-0.4,0.3-0.8,0.4-1.3l0.2-0.6l0,0c0-0.2-0.1,0.4,0.1-0.5l0-0.1l0-0.2l0.1-0.5c0.5-2.6,0.9-5.4,1-8.3
		c0.1-2.9,0-5.8-0.4-8.9c-0.4-3-1.1-6.1-2.1-9.1c-0.5-1.5-1.1-3-1.7-4.5l-0.2-0.6l-0.3-0.7l-0.7-1.3l-0.3-0.7l-0.2-0.4l-0.3-0.7
		l-0.2-0.4c-0.6-0.8-0.2-0.2-0.3-0.4l0,0l0-0.1l-0.1-0.2l-0.3-0.7l-0.7-1.4c-0.4-1-0.9-1.9-1.3-2.9c-0.9-1.9-1.8-3.8-2.7-5.8
		c-1.8-3.9-3.5-7.7-5.3-11.5c-1.2-2.7-2.5-5.5-3.6-8.1c-5-23.6-0.8-53.6-0.8-82.3c0.5-3.2,0-5.4,0-8.8c0-4.3-0.5-8.5-1.3-12.6
		c3,3.2,5.8,6.7,8.2,10.7c3.4,5.7,5.8,12.2,7.2,19.3c0.7,3.5,1,7.2,1.2,11c0.1,1.9,0,3.8,0,5.7l-0.2,2.9l-0.3,3.1l-0.3,3.3l-0.3,3.7
		c-0.1,1.3-0.1,2.5-0.2,3.7c-0.1,1.2-0.1,2.4-0.1,3.6c-0.1,4.8,0,9.7,0.4,14.5c0.7,9.7,2.4,19.3,5.8,28.5c1.7,4.6,3.8,9.1,6.4,13.2
		c2.6,4.2,5.8,8.1,9.7,11.4c3.8,3.3,8.4,6,13.3,7.6c5,1.6,10.4,1.9,15.3,0.8c4.9-1,9.2-3.3,12.6-5.9c3.4-2.7,5.9-5.8,7.8-8.7
		c3.8-6,5.3-11.6,6.2-16.1c0.9-4.5,1.1-8,1.1-10.3c0.1-1.2,0-2.1,0-2.7C505.7,173.2,505.7,172.9,505.7,172.9z"/>
</g>
<g id="Layer_3">
	<path class="st1" d="M117,166.6c0,0,0,0.1,0,0.1c-14.6-12.8-28-29.4-39.2-43.2c-6.3,4.2-19.2,8.7-45.6,0.9
		c-0.4-0.1-0.7-0.2-1.1-0.4c-0.1,0-0.2,0-0.3,0c-0.9,0-1.7,0-2.6,0c-0.6,0-1.3,0-1.9-0.1c-17.7-0.8-23.6-6.5-23.6-20.4
		c0-4.8,6.2-5,13.4-4.4c0.8-0.2,1.7-0.2,2.6-0.2c2.2,0,4.8-0.4,7.4-1c0-2,0-6.8,0-12.4V66.3c0-7.4,6-13.3,13.3-13.3
		c7.4,0,13.3,6,13.3,13.3v19.3c0,1-0.1,2-0.4,3c1.8-0.4,3.4-0.6,4.8-0.6c29.1,0,33.2,14.3,30.5,14.3c-11,0,5,3.2,2.9,6.1
		c-0.3,0.4-3.4,1.2-6.2,2.1c9.6,11.7,20.9,25,32.6,35.1c-1.6,5.1-2,10.7-1,16.3l0,0c0,0,0.1,0.5,0.2,1.4c0.1,0.4,0.2,1,0.3,1.6
		c0.1,0.3,0.1,0.7,0.2,1C116.9,166.2,117,166.4,117,166.6z M287.6,179.4l-1.6-5.8l-1.6-5.8c-0.6-1.9-1.1-3.9-1.7-5.8l-0.6-1.9
		c-15.4,1.3-31.6,2.6-51.4,3.6c-0.6,3.1-1.9,9.2-3.6,17.2c-0.5,2.3-1.1,4.8-1.6,7.4c28,1.3,45.7,2.8,64.7,0.9l-1-4L287.6,179.4z"/>
</g>
<g id="Layer_4">
	<path class="st1" d="M82.7,16.9c6.7-9,14.4-3.9,15.4,4.4c1,8.8-0.1,20-9.3,28C71.3,64.5,79.7,21,82.7,16.9z"/>
</g>
<g id="Layer_5">
	<path class="st2" d="M1.9,96.6H14c4.9,0,7.5,3.7,4.3,6.1l-5.6,4.1C1.7,113.8-3,96.6,1.9,96.6z M34.7,95.5V83.1c1,2,3.1,3.3,5.4,3.3
		c3.4,0,6.1-2.7,6.1-6.1v-8.8c0-1.9-0.9-3.7-2.3-4.8c1.5-0.1,3.1-0.1,4.9-0.1c0.7,0,1.2-0.5,1.2-1.2s-0.5-1.2-1.2-1.2
		c-8.5,0-16.6,0-16.6,8.8v23.2C33.1,96.1,33.9,95.8,34.7,95.5z M152.6,48.4c0.2-3.5,0.5-6.8,0.8-9.8c0.2-1.5,0.4-2.9,0.6-4.3
		c0.2-1.3,0.4-2.6,0.6-3.8c0.2-0.7,0.3-1.4,0.4-2.1c-3.1-1-6.1-1.9-9.8-2.8c-0.2,1.1-0.3,2.2-0.5,3.4c-0.2,1.3-0.3,2.7-0.4,4.2
		c-0.1,1.5-0.2,3-0.3,4.6c-0.1,3.2-0.2,6.7-0.2,10.3c0,3.6,0.1,7.5,0.3,11.4c0.2,3.9,0.5,8,0.8,12.1c0.4,4.1,0.7,8.3,1.2,12.5
		c1.9,16.7,4.6,33.2,7.5,45.4c0.7,3.1,1.4,5.9,2.1,8.3c0.7,2.5,1.4,4.6,2.1,6.3c0.6,1.7,1.3,3.1,1.7,4c0.5,0.9,0.8,1.4,0.8,1.4
		c0.3,0.5,0.9,0.6,1.3,0.4c0.5-0.3,0.7-0.9,0.5-1.4l-0.1-0.1c0,0-0.2-0.4-0.6-1.2c-0.4-0.8-0.9-2.1-1.4-3.8c-0.5-1.7-1-3.8-1.6-6.3
		c-0.5-2.5-1.1-5.2-1.6-8.3c-2-12.2-3.7-28.7-4.5-45.2c-0.2-4.1-0.3-8.3-0.4-12.3c-0.1-4.1-0.1-8,0-11.9
		C152.2,55.6,152.4,51.9,152.6,48.4z M194.6,59.6c0.3-3.4,0.7-6.7,1.2-9.8c0.5-3.2,1-6.2,1.6-9.1c0.5-2.3,1-4.5,1.5-6.6
		c-3.6-0.1-6.8-0.2-9.8-0.4c-0.3,1.7-0.6,3.5-0.9,5.4c-0.4,3.1-0.8,6.3-1.1,9.6c-0.3,3.3-0.5,6.8-0.7,10.3c-0.2,3.5-0.2,7-0.3,10.6
		c-0.1,14.2,0.9,28.3,2.4,38.8c0.4,2.6,0.8,5.1,1.2,7.2c0.4,2.1,0.8,4,1.3,5.6c0.2,0.8,0.4,1.5,0.6,2.1c0.2,0.6,0.3,1.1,0.5,1.5
		c0.3,0.8,0.5,1.3,0.5,1.3c0.4,1.1,1.6,1.6,2.7,1.2c1.1-0.4,1.8-1.6,1.4-2.8l-0.1-0.2c0,0-0.1-0.4-0.4-1c-0.1-0.3-0.2-0.8-0.4-1.3
		c-0.2-0.5-0.3-1.2-0.4-1.9c-0.3-1.4-0.6-3.2-0.9-5.3c-0.3-2.1-0.5-4.4-0.7-7c-0.8-10.3-1-24.2-0.1-38C194,66.4,194.2,63,194.6,59.6
		z M234.8,37.4c-0.2,1.4-0.5,2.8-0.8,4.3c-0.4,3-0.9,6.2-1.1,9.5c-0.3,3.4-0.5,6.9-0.6,10.6c-0.1,3.7-0.1,7.4-0.1,11.2
		c0,3.8,0.1,7.7,0.3,11.5c0.6,15.4,2,30.7,3.2,42.2c1.2,11.4,2,19.1,2,19.1l0,0c0.1,0.5,0.5,0.9,1.1,0.9c0.6,0,1-0.5,1-1.1
		c0,0-0.2-7.7-0.6-19.2c-0.3-11.5-0.7-26.8-0.2-42c0.1-3.8,0.3-7.6,0.5-11.3c0.2-3.7,0.5-7.4,0.9-10.9c0.4-3.5,0.8-6.9,1.3-10.1
		c0.5-3.2,1.1-6.1,1.7-8.8c0.3-1.3,0.7-2.6,1-3.8c0.4-1.2,0.7-2.3,1-3.3c0.4-1,0.7-2,1-2.8c0-0.1,0.1-0.2,0.1-0.3
		c-3.3,0.3-6.9,0.5-10.8,0.7C235.3,35,235,36.2,234.8,37.4z M275.7,28.7c0.4,2.8,0.7,5.8,1,9c0.3,3.2,0.6,6.6,0.8,10.1
		c0.2,3.5,0.5,7.2,0.7,10.9c0.2,3.7,0.4,7.5,0.5,11.3c0.6,15.1,0.9,30.3,1.2,41.7c0.1,2.9,0.2,5.5,0.3,7.8c0.1,2.3,0.2,4.3,0.3,6
		c0.2,3.3,0.4,5.3,0.4,5.3c0.1,0.7,0.7,1.3,1.4,1.3c0.8,0,1.4-0.7,1.4-1.4v-0.1c0,0,0-1.9,0-5.2c0-1.7,0.1-3.7,0.1-6
		c0.1-2.3,0.1-4.9,0.2-7.7c0.4-11.4,1.1-26.5,1.5-41.8c0.1-3.8,0.2-7.6,0.2-11.4c0.1-3.8,0.1-7.5,0-11c0-3.6-0.1-7.1-0.2-10.4
		c-0.1-3.3-0.2-6.4-0.4-9.3c-0.1-0.7-0.1-1.3-0.1-2c-2.9,0.9-6,1.8-9.4,2.7C275.6,28.6,275.6,28.6,275.7,28.7z M315.7,27.2
		c0.3,3.2,0.6,6.6,0.9,10.1c0.3,3.5,0.5,7.2,0.7,10.9c0.2,3.7,0.4,7.5,0.6,11.3c0.7,15.1,1,30.3,1.4,41.7c0.1,2.9,0.2,5.5,0.3,7.8
		c0.1,2.3,0.2,4.3,0.3,6c0.1,1.7,0.2,3,0.3,3.9c0,0.9,0,1.4,0,1.4c0,0,0,0.1,0,0.1c0.1,0.6,0.6,1,1.1,0.9s1-0.6,0.9-1.1l0,0
		c0,0-0.1-0.5-0.1-1.4c0-0.9-0.1-2.2-0.1-3.8c0-1.7,0.1-3.7,0.1-6c0.1-2.3,0.2-4.9,0.3-7.8c0.4-11.4,1.2-26.5,1.7-41.8
		c0.1-3.8,0.2-7.6,0.3-11.4c0.1-3.8,0.1-7.5,0.1-11c0-3.6-0.1-7.1-0.1-10.4c-0.1-3-0.2-5.8-0.4-8.5c-3.4,0.2-6.4,0.4-9.3,0.7
		C315.1,21.5,315.4,24.3,315.7,27.2z M354.8,20.4c0.3,3.6,0.7,7.5,0.9,11.5c0.1,2,0.3,4,0.4,6.1c0.1,2.1,0.2,4.1,0.3,6.2
		c0.2,4.2,0.4,8.5,0.6,12.7c0.7,17.1,1.2,34.2,1.6,47.1c0.2,6.4,0.5,11.8,0.7,15.6c0.1,1.9,0.2,3.4,0.3,4.4c0.1,1,0.1,1.5,0.1,1.5
		c0.1,0.8,0.7,1.3,1.4,1.3c0.8,0,1.4-0.7,1.4-1.5l0-0.1c0,0,0-0.5,0-1.5c0-1-0.1-2.5,0-4.3c0-3.7,0.1-9.1,0.2-15.5
		c0.3-12.8,0.8-30,1.1-47.2c0-4.3,0.1-8.6,0.1-12.8c0-2.1,0-4.2,0-6.3c0-2.1,0-4.1-0.1-6.2c0-3-0.1-6-0.2-8.9c-2.9-1-5.9-1.9-9-2.6
		C354.8,20.2,354.8,20.3,354.8,20.4z M380.6,30.8c1,2.7,2,5.6,3,8.5c1.2,3.9,2.4,7.9,3.4,12c1,4.2,1.9,8.4,2.7,12.7
		c3.2,17.2,4.7,34.7,5.5,47.9c0.4,6.6,0.6,12.1,0.7,16c0.1,3.9,0.2,6.1,0.2,6.1l0,0c0,1.2,1,2.1,2.2,2.1c1.2,0,2.2-0.9,2.2-2.2
		c0,0,0-2.2,0.1-6.1c0.1-3.9,0.1-9.4,0-16.1c-0.1-13.3-0.8-31.2-3.4-48.9c-0.6-4.4-1.4-8.9-2.2-13.2c-0.9-4.4-1.9-8.6-3-12.7
		c-0.3-1.1-0.6-2.2-0.9-3.3c-1.7-0.6-3.4-1.1-5.1-1.5C384.2,31.6,382.4,31.2,380.6,30.8z M433.5,63.4c-2.9,2.5-5.7,4.9-7.8,6.9
		c-2.5,2.3-4.2,3.9-4.2,3.9c-0.3,0.3-0.4,0.9-0.2,1.3c0.3,0.5,0.9,0.6,1.4,0.3c0,0,1.9-1.2,4.9-2.9c2.5-1.4,5.7-3.3,9.1-5
		C435.7,66.4,434.6,64.9,433.5,63.4z M434.4,88.2c0,0-0.6,0.1-1.6,0.2c-1,0.1-2.5,0.3-4.2,0.6c-1.7,0.3-3.8,0.6-6,0.9
		c0.7,1.5,1.4,3.1,1.9,4.6c1.8-0.7,3.5-1.4,5-2c1.6-0.6,3-1.2,3.9-1.5c0.9-0.3,1.5-0.5,1.5-0.5l0.1,0c0.5-0.2,0.8-0.7,0.8-1.2
		C435.5,88.6,435,88.2,434.4,88.2z M443.8,125.3L443.8,125.3c0,0-0.6,0-1.6,0.1c-1,0-2.4,0.1-4.2,0.1c-2.8,0-6.3,0-10-0.2l-0.2,1.8
		l-0.3,3.3l-0.1,1.1c4.1-0.8,8-1.7,11-2.4c1.7-0.4,3.1-0.8,4.1-1.1c1-0.3,1.6-0.5,1.6-0.5c0.5-0.1,0.8-0.6,0.8-1.2
		C445,125.7,444.5,125.2,443.8,125.3z M441.5,153.7c0,0-2,0.1-5.1,0.3c-2.5,0.2-5.8,0.4-9.1,0.5c0,0.4,0,0.9,0.1,1.3
		c0.1,1.6,0.3,3.3,0.5,4.9c3.4-1.1,6.7-2.3,9.3-3.2c2.9-1,4.8-1.7,4.8-1.7l0,0c0.5-0.2,0.8-0.6,0.8-1.2
		C442.7,154.2,442.1,153.7,441.5,153.7z M454.4,200.9c2.3-2.2,4.5-4.5,6.4-6.5c-0.9-0.9-1.8-2-2.6-3.1c-2.3,1.5-4.9,3.2-7.5,4.9
		c-1.9,1.2-3.8,2.4-5.7,3.4c-1,0.6-2,1.1-3,1.6c1.6,2.2,3.4,4.3,5.4,6.2c0.7-0.6,1.3-1.2,2-1.8C451,204.1,452.7,202.5,454.4,200.9z
		 M468.6,211.3c-0.5-3.4-1-5.7-1-5.7c-0.1-0.5-0.5-0.8-1-0.8c-0.6,0-1,0.4-1.1,1c0,0-0.1,2.3-0.3,5.7c-0.1,1.7-0.2,3.7-0.4,5.8
		c1.5,0.4,3.1,0.6,4.7,0.7C469.2,215.6,468.9,213.2,468.6,211.3z M487.3,206.4c-2.6-2.3-4.3-3.8-4.3-3.8c-0.4-0.3-0.9-0.3-1.3,0
		c-0.5,0.3-0.5,1-0.2,1.4c0,0,1.4,1.8,3.3,4.6c1,1.4,2.1,3,3.3,4.7c0.8-0.5,1.6-1.1,2.4-1.7c0.4-0.3,0.9-0.7,1.3-1.1
		C490.2,209,488.6,207.6,487.3,206.4z M504.3,187.7c-1.3-1.2-2.5-2.3-3.6-3.3c-2.6-2.3-4.3-3.8-4.3-3.8c-0.4-0.3-0.9-0.3-1.3,0
		c-0.5,0.3-0.5,1-0.2,1.4c0,0,1.4,1.8,3.3,4.6c1.3,1.9,2.9,4.2,4.6,6.6C503.5,191.2,503.9,189.4,504.3,187.7z M449.7,170.9
		c-2.4,2-4.6,4-6.3,5.6c-2.5,2.3-4.2,3.9-4.2,3.9c-0.3,0.3-0.4,0.9-0.2,1.3c0.3,0.5,0.9,0.6,1.4,0.3c0,0,1.9-1.2,4.9-2.9
		c1.6-0.9,3.6-2,5.6-3.2C450.5,174.3,450.1,172.6,449.7,170.9z M449.7,104.1c-0.1-1-0.2-2.1-0.4-3.1c-0.2-1.2-0.4-2.3-0.6-3.4
		c-0.3,0.3-0.7,0.6-1,0.8c-3.6,3-7,6-9.5,8.4c-2.5,2.3-4.2,3.9-4.2,3.9c-0.3,0.3-0.4,0.9-0.2,1.3c0.3,0.5,0.9,0.6,1.4,0.3
		c0,0,1.9-1.2,4.9-2.9C442.7,107.9,446.2,106,449.7,104.1z M413.9,178.1c0-0.2-0.1-0.4-0.1-0.5c-3.9,2-7.7,4.2-10.5,5.8
		c-1.5,0.9-2.7,1.6-3.5,2.2c-0.8,0.6-1.3,0.9-1.3,0.9c-0.4,0.3-0.6,0.8-0.4,1.3c0.2,0.6,0.8,0.9,1.4,0.7l0,0c0,0,0.5-0.2,1.4-0.5
		c0.9-0.3,2.2-0.8,3.8-1.3c3.1-1,7.3-2.1,11.5-3.2C415.5,181.6,414.7,179.8,413.9,178.1z M424.5,232.3c0.3-0.4,0.3-0.9,0-1.3
		c-0.4-0.5-1.1-0.5-1.6-0.2c0,0-1.5,1.2-3.9,3.1c-2.3,1.9-5.4,4.3-8.5,6.7c-1.6,1.2-3.1,2.3-4.6,3.3c-1.1,0.8-2.2,1.5-3.2,2.1
		c-0.1,1.5-0.1,3-0.2,4.4c-0.1,2.9-0.3,5.6-0.6,8c0.5-0.2,1-0.4,1.5-0.8c0,0,0.4-0.3,1.1-0.8c0.4-0.3,1-0.8,1.6-1.3
		c0.6-0.5,1.1-1,1.7-1.6c1.1-1.2,2.4-2.5,3.6-4c1.3-1.5,2.5-3.1,3.7-4.7c2.4-3.2,4.8-6.4,6.5-8.8
		C423.3,233.9,424.5,232.3,424.5,232.3L424.5,232.3z M410.4,208.5c0.3-0.4,0.3-1,0-1.4c-0.4-0.5-1.1-0.6-1.5-0.2l0,0
		c0,0-0.4,0.3-1.2,0.9c-0.8,0.6-1.9,1.4-3.2,2.4c-2.7,2-6.4,4.5-10.2,6.8c-1.9,1.2-3.8,2.3-5.6,3.4c-1.1,0.6-2.2,1.2-3.2,1.8
		c0.7,0.6,1.4,1.2,2.1,1.8c1.5,1.4,3.1,2.7,4.6,4c0.4-0.4,0.9-0.8,1.3-1.2c1.6-1.5,3.2-3.1,4.8-4.8c3.2-3.3,6.3-6.7,8.5-9.3
		c1.1-1.3,2-2.4,2.7-3.2C410.1,208.9,410.4,208.5,410.4,208.5z M368.6,205.1c1.3-1.8,2.5-3.7,3.8-5.6c2.5-3.8,4.9-7.6,6.8-10.4
		c0.9-1.4,1.7-2.6,2.2-3.4c0.6-0.8,0.9-1.2,0.9-1.2l0-0.1c0.3-0.4,0.3-1-0.1-1.4c-0.4-0.5-1.1-0.5-1.6-0.1c0,0-0.4,0.4-1.2,1.1
		c-0.7,0.7-1.8,1.6-3,2.8c-2.5,2.3-5.7,5.4-9,8.5c-1.6,1.5-3.3,3-4.8,4.4c-0.6,0.6-1.2,1.1-1.8,1.6c2.1,1.8,4.3,3.6,6.6,5.5
		C367.8,206.3,368.2,205.7,368.6,205.1z M327.5,203.1c2.4,0.6,4.7,1.3,6.8,2c1.1,0.3,2.1,0.7,3.1,1c0.6,0.2,1.2,0.4,1.7,0.6
		c0.3-1.8,0.7-3.5,1-5.3c0.2-1.2,0.5-2.4,0.7-3.7c-0.5-0.1-1-0.1-1.6-0.2c-1.1-0.1-2.2-0.3-3.4-0.4c-2.4-0.2-4.9-0.4-7.4-0.5
		c-5-0.3-10-0.4-13.7-0.4c-3.7,0-6.2,0-6.2,0c-0.5,0-1,0.4-1.1,0.9c-0.1,0.6,0.3,1.2,0.9,1.3c0,0,2.4,0.5,6,1.3
		C318,200.7,322.8,201.8,327.5,203.1z M333.6,224c-5-0.3-10-0.4-13.7-0.4c-3.7,0-6.2,0-6.2,0c-0.5,0-1,0.4-1.1,0.9
		c-0.1,0.6,0.3,1.2,0.9,1.3c0,0,2.4,0.5,6,1.3c3.6,0.8,8.4,2,13.1,3.3c0.7,0.2,1.4,0.4,2.1,0.6c0.1-0.3,0.1-0.5,0.2-0.8
		c0.2-0.8,0.3-1.5,0.5-2.3c0.1-0.4,0.1-0.8,0.2-1.2l0-0.3l0-0.3l0.1-0.7l0-0.4l0-0.2l0-0.1l0.1-0.4l0-0.2l0-0.1
		C335.1,224.1,334.4,224.1,333.6,224z M326.9,249.4c-1-0.1-2.1-0.2-3.3-0.3c-2.4-0.2-4.9-0.4-7.4-0.5c-5-0.3-10-0.4-13.7-0.4
		c-2.8,0-5,0-5.8,0c-0.1,0.7-0.3,1.5-0.4,2.2c0.6,0.1,2.8,0.6,5.8,1.2c3.6,0.8,8.4,2,13.1,3.3c2.4,0.6,4.7,1.3,6.8,2
		c0.5,0.2,1,0.3,1.4,0.5c0.4-1,0.8-1.9,1.2-2.9c0.6-1.5,1.3-3,1.9-4.4C326.7,249.9,326.8,249.6,326.9,249.4z M321.8,173l-0.2,0.1
		c0,0-0.2,0.1-0.5,0.2c-0.3,0.1-0.8,0.3-1.5,0.4c-0.7,0.2-1.5,0.3-2.5,0.5c-1,0.2-2.1,0.4-3.3,0.5c-2.4,0.4-5.3,0.7-8.4,1.1
		c-3.1,0.4-6.4,0.7-9.7,1.1c-2.9,0.3-5.8,0.6-8.6,0.8l0.5,1.8l1.6,5.7c2.5-0.6,5.1-1.3,7.7-2c3.2-0.9,6.5-1.8,9.5-2.6
		c3-0.9,5.8-1.7,8.2-2.5c1.2-0.4,2.3-0.7,3.3-1.1c1-0.3,1.8-0.7,2.5-0.9c0.7-0.2,1.3-0.5,1.7-0.7c0.4-0.2,0.6-0.3,0.6-0.3
		c0.5-0.2,0.7-0.8,0.6-1.3C323,173.1,322.4,172.8,321.8,173z M210,250c-1.3-0.4-2.6-0.8-3.9-1.1c-1.3-0.3-2.6-0.6-3.8-0.9
		c-2.5-0.5-4.8-0.9-6.8-1.2c-1-0.1-1.9-0.2-2.8-0.3s-1.5-0.1-2.1-0.1c-1.2,0-1.9,0-1.9,0c-0.5,0-1,0.3-1.1,0.9
		c-0.1,0.6,0.2,1.2,0.8,1.3l0.1,0c0,0,0.6,0.1,1.7,0.4c0.5,0.1,1.2,0.3,1.9,0.5c0.7,0.2,1.6,0.5,2.5,0.8c1.8,0.6,3.9,1.4,6.1,2.4
		c1.1,0.5,2.2,1,3.3,1.6c1.1,0.5,2.3,1.2,3.4,1.7c0.3,0.2,0.7,0.4,1,0.6c0.6-2.1,1.1-4.2,1.7-6.5C210.2,250.1,210.1,250.1,210,250z
		 M214.6,228.6c-1.3-0.4-2.6-0.8-3.9-1.1c-1.3-0.3-2.6-0.6-3.8-0.9c-2.5-0.5-4.8-0.9-6.8-1.2c-1-0.1-1.9-0.2-2.8-0.3
		s-1.5-0.1-2.1-0.1c-1.2,0-1.9,0-1.9,0c-0.5,0-1,0.3-1.1,0.9c-0.1,0.6,0.2,1.2,0.8,1.3l0.1,0c0,0,0.6,0.1,1.7,0.4
		c0.5,0.1,1.2,0.3,1.9,0.5c0.7,0.2,1.6,0.5,2.5,0.8c1.8,0.6,3.9,1.4,6.1,2.4c1.1,0.5,2.2,1,3.3,1.6c1.1,0.5,2.3,1.2,3.4,1.7
		c0.6,0.4,1.3,0.7,1.9,1.1c0.1-0.5,0.2-1,0.4-1.4c0.4-1.7,0.9-3.5,1.3-5.3C215.4,228.8,215,228.7,214.6,228.6z M222.1,200
		c-1.3-0.4-2.6-0.8-3.9-1.1c-1.3-0.3-2.6-0.6-3.8-0.9c-2.5-0.5-4.8-0.9-6.8-1.2c-1-0.1-1.9-0.2-2.8-0.3s-1.5-0.1-2.1-0.1
		c-1.2,0-1.9,0-1.9,0c-0.5,0-1,0.3-1.1,0.9c-0.1,0.6,0.2,1.2,0.8,1.3l0.1,0c0,0,0.6,0.1,1.7,0.4c0.5,0.1,1.2,0.3,1.9,0.5
		c0.7,0.2,1.6,0.5,2.5,0.8c1.8,0.6,3.9,1.4,6.1,2.4c1.1,0.5,2.2,1,3.3,1.6c1.1,0.5,2.3,1.2,3.4,1.7c0.5,0.3,1.1,0.6,1.6,0.9
		c0.5-2.1,1-4.2,1.5-6.3c0-0.1,0.1-0.3,0.1-0.4C222.6,200.2,222.3,200.1,222.1,200z M218.3,172.7c1.1,0.6,2.2,1.2,3.3,1.9
		c1.1,0.7,2.2,1.3,3.2,2c1,0.6,1.9,1.3,2.8,2c0.6-3,1.2-5.6,1.7-7.9c-0.4-0.2-0.8-0.3-1.2-0.5c-1.2-0.5-2.5-0.9-3.8-1.4
		c-1.3-0.4-2.6-0.9-3.9-1.2c-1.3-0.4-2.5-0.7-3.8-1c-2.5-0.6-4.8-1.1-6.8-1.4c-1-0.1-1.9-0.3-2.7-0.4s-1.5-0.2-2.1-0.2
		c-1.2-0.1-1.9-0.1-1.9-0.1c-0.5,0-1,0.3-1.1,0.8c-0.2,0.6,0.2,1.2,0.8,1.3l0.1,0c0,0,0.6,0.2,1.7,0.4c0.5,0.1,1.2,0.4,1.9,0.6
		c0.7,0.2,1.6,0.6,2.5,0.9c1.8,0.7,3.9,1.6,6,2.6C216.1,171.5,217.2,172.1,218.3,172.7z M142.9,198.2L142.9,198.2
		c-0.1,0-0.7-0.2-1.7-0.6c-0.5-0.2-1.2-0.5-1.9-0.7c-0.7-0.3-1.5-0.7-2.4-1.1c-1.7-0.8-3.7-1.9-5.8-3.1c-1-0.6-2.1-1.3-3.1-1.9
		c-1.1-0.7-2.1-1.4-3.1-2.1c-1-0.8-2.1-1.5-3-2.3c-1-0.7-1.9-1.5-2.8-2.3c0,0.3,0,0.7,0,1c0,1.5,0.1,3,0.1,4.6c0,1.1,0,2.2,0,3.4
		c0.8,0.4,1.7,0.8,2.5,1.2c1.3,0.5,2.5,1.1,3.8,1.5c1.2,0.5,2.5,0.9,3.7,1.3c2.4,0.8,4.7,1.5,6.6,2c1,0.2,1.9,0.5,2.7,0.6
		c0.8,0.1,1.5,0.3,2.1,0.4c1.2,0.2,1.9,0.2,1.9,0.2c0.5,0.1,1-0.2,1.2-0.7C143.7,199,143.4,198.4,142.9,198.2z M135.8,231.9
		L135.8,231.9c-0.1,0-0.7-0.2-1.7-0.6c-0.5-0.2-1.2-0.5-1.9-0.7c-0.7-0.3-1.5-0.7-2.4-1.1c-1.7-0.8-3.7-1.9-5.8-3.1
		c-1-0.6-2.1-1.3-3.1-1.9c-1.1-0.7-2.1-1.4-3.1-2.1c-0.1-0.1-0.2-0.2-0.4-0.3c-0.2,1.7-0.3,3.3-0.5,4.9c-0.1,0.6-0.1,1.2-0.2,1.8
		c0.6,0.2,1.1,0.5,1.7,0.7c1.2,0.5,2.5,0.9,3.7,1.3c2.4,0.8,4.7,1.5,6.6,2c1,0.2,1.9,0.5,2.7,0.6c0.8,0.1,1.5,0.3,2.1,0.4
		c1.2,0.2,1.9,0.2,1.9,0.2c0.5,0.1,1-0.2,1.2-0.7C136.7,232.7,136.4,232.1,135.8,231.9z M125.1,259.4L125.1,259.4
		c-0.1,0-0.7-0.2-1.7-0.6c-0.5-0.2-1.2-0.5-1.9-0.7c-0.7-0.3-1.5-0.7-2.4-1.1c-1.7-0.8-3.7-1.9-5.8-3.1c0,0,0,0-0.1,0
		c-0.2,1.1-0.3,2.1-0.5,3.1c-0.1,0.6-0.2,1.2-0.3,1.8c2,0.6,3.8,1.2,5.5,1.6c1,0.2,1.9,0.5,2.7,0.6c0.8,0.1,1.5,0.3,2.1,0.4
		c1.2,0.2,1.9,0.2,1.9,0.2c0.5,0.1,1-0.2,1.2-0.7C125.9,260.2,125.6,259.6,125.1,259.4z M159.1,230.1c0.3-0.5,0.6-1.1,0.8-1.6
		c1.1-2.1,2.2-4.2,3.2-6.4c-2.2-0.5-5-1-7.7-1.4c-3.2-0.4-6.4-0.7-8.9-0.7c-1.2,0-2.2,0-2.9,0c-0.7,0-1.1,0.1-1.1,0.1
		c-0.5,0-0.9,0.3-1,0.8c-0.2,0.6,0.2,1.2,0.8,1.4l0.1,0c0,0,0.4,0.1,1,0.3c0.6,0.2,1.5,0.5,2.6,0.9c2.1,0.8,4.9,2,7.6,3.4
		C155.5,228,157.5,229.1,159.1,230.1z M143.7,246c-3.2-0.4-6.4-0.7-8.9-0.7c-1.2,0-2.2,0-2.9,0c-0.7,0-1.1,0.1-1.1,0.1
		c-0.5,0-0.9,0.3-1,0.8c-0.2,0.6,0.2,1.2,0.8,1.4l0.1,0c0,0,0.4,0.1,1,0.3c0.6,0.2,1.5,0.5,2.6,0.9c2.1,0.8,4.9,2,7.6,3.4
		c1.3,0.7,2.6,1.4,3.8,2.1c1-1.7,2-3.4,3-5.1c0.4-0.7,0.8-1.4,1.2-2.1C147.9,246.7,145.8,246.3,143.7,246z M106.5,22.7
		c-0.1,0-0.2,0-0.3,0c-0.3,0.2-0.6,0.3-1,0.5c-0.1,1.9-0.2,3.8-0.5,5.8c3.1-0.9,6.1-1.7,8.5-2.3c1.4-0.3,2.5-0.6,3.3-0.8
		c0.8-0.2,1.2-0.3,1.2-0.3l0.1,0c0.2-0.1,0.5-0.1,0.7-0.2c1.1-0.5,1.9-1.4,2.2-2.5C116.5,22.8,111.9,22.7,106.5,22.7z M111.5,41.4
		c-2,0.7-4.1,1.3-6,2c-2,0.7-3.8,1.4-5.3,2.1c-0.8,0.4-1.5,0.6-2.1,1c-0.6,0.3-1.2,0.6-1.6,0.8c-0.9,0.6-1.4,0.9-1.4,0.9
		c-0.3,0.2-0.4,0.6-0.3,0.9c0.2,0.4,0.6,0.6,1,0.4l0.1-0.1c0,0,0.5-0.2,1.3-0.6c0.4-0.2,1-0.3,1.6-0.5c0.6-0.2,1.4-0.4,2.1-0.6
		c1.6-0.4,3.4-0.7,5.4-1.1c2-0.3,4.2-0.7,6.3-1c0.3,0,0.5-0.1,0.8-0.1C112.9,44.3,112.3,42.8,111.5,41.4z M99,64.8
		c-0.1,0.4,0.2,0.8,0.7,0.9l17.9,2.3c0-0.6,0.1-1.3,0.1-2c0-1.4-0.1-2.8-0.2-4.2l-17.8,2.3C99.4,64.1,99.1,64.4,99,64.8z
		 M109.8,91.9l-18-4.5c-0.3-0.1-0.7,0.1-0.9,0.4c-0.2,0.4-0.1,0.9,0.3,1.1l14.6,8C107.2,95.4,108.6,93.7,109.8,91.9z M65.7,11.6
		c-0.4,0-0.7,0-1.1,0c-2.1,0-4.2,0.1-6.2,0.4c-0.4,0.5-0.7,1.1-1.1,1.6c-0.5,0.8-1,1.7-1.5,2.4c-0.4,0.7-0.8,1.5-1.1,2.1
		c-0.3,0.6-0.6,1.2-0.7,1.7c-0.4,0.9-0.6,1.5-0.6,1.5c-0.2,0.4,0,1,0.4,1.2c0.5,0.3,1.1,0.2,1.5-0.3l0.1-0.1c0,0,0.3-0.4,0.8-1.2
		c0.3-0.4,0.6-0.8,1-1.3c0.4-0.5,0.9-1.1,1.4-1.6c0.6-0.6,1.1-1.2,1.8-1.8c0.7-0.6,1.4-1.3,2.1-1.9c0.8-0.6,1.5-1.3,2.4-2
		C65.2,11.9,65.5,11.7,65.7,11.6z M38.1,19.2c-0.9,1.8-1.7,3.4-2.4,4.9c-0.3,0.8-0.7,1.5-0.9,2.1c-0.2,0.7-0.4,1.2-0.6,1.7
		c-0.3,1-0.4,1.6-0.4,1.6c-0.1,0.4,0.1,0.7,0.4,0.9c0.4,0.2,0.8,0,1-0.4l0.1-0.1c0,0,0.2-0.5,0.6-1.3c0.2-0.4,0.5-0.9,0.8-1.5
		c0.3-0.6,0.8-1.2,1.2-1.9c0.9-1.3,2-2.9,3.2-4.5c1.2-1.6,2.6-3.3,4-5c0.1-0.1,0.2-0.2,0.3-0.4C42.9,16.4,40.4,17.7,38.1,19.2z"/>
</g>
</svg>
